<svg width="25" height="25" viewBox="0 0 25 25" fill="none" xmlns="http://www.w3.org/2000/svg">
<path d="M19.6797 0.699897V0.697314C19.236 0.251227 18.6328 0.000258264 18.0036 0H6.99379C5.68613 0.00426136 4.62719 1.06321 4.62292 2.37087V22.6265C4.62318 23.2557 4.87415 23.8589 5.32024 24.3027C5.76336 24.7481 6.3655 24.999 6.99379 25H18.0062C18.6345 24.999 19.2366 24.7481 19.6797 24.3027C20.1252 23.8596 20.3761 23.2574 20.3771 22.6291V2.37345C20.3761 1.74516 20.1252 1.14301 19.6797 0.699897ZM12.5 23.391C12.1462 23.391 11.8595 23.1043 11.8595 22.7505C11.8595 22.3968 12.1462 22.11 12.5 22.11C12.8537 22.11 13.1405 22.3968 13.1405 22.7505C13.1405 23.1043 12.8537 23.391 12.5 23.391ZM18.4943 19.3698C18.4943 20.2257 17.8005 20.9194 16.9447 20.9194H8.05268C7.19685 20.9194 6.50309 20.2257 6.50309 19.3698V4.27428C6.50309 3.41845 7.19685 2.72469 8.05268 2.72469H16.9473C17.8031 2.72469 18.4969 3.41845 18.4969 4.27428L18.4943 19.3698Z" fill="white"/>
</svg>
