<svg width="23" height="23" viewBox="0 0 23 23" fill="none" xmlns="http://www.w3.org/2000/svg">
<g clip-path="url(#clip0)">
<path d="M19.0852 12.4851C18.7134 12.0155 18.8197 11.8066 19.0852 11.3869C19.09 11.3821 22.1595 7.1405 22.4758 5.70204L22.4777 5.70108C22.6349 5.17688 22.4777 4.79163 21.7177 4.79163H19.2031C18.5629 4.79163 18.2677 5.12225 18.1096 5.49217C18.1096 5.49217 16.8293 8.55692 15.018 10.5435C14.4335 11.1176 14.1632 11.3016 13.8441 11.3016C13.6869 11.3016 13.4425 11.1176 13.4425 10.5934V5.70108C13.4425 5.07242 13.2633 4.79163 12.7334 4.79163H8.77929C8.37775 4.79163 8.13912 5.08488 8.13912 5.358C8.13912 5.95409 9.04475 6.09113 9.13867 7.76821V11.407C9.13867 12.2043 8.99396 12.351 8.67292 12.351C7.81808 12.351 5.74329 9.27375 4.51375 5.75188C4.26554 5.06858 4.02308 4.79258 3.37812 4.79258H0.8625C0.144708 4.79258 0 5.12321 0 5.49313C0 6.14671 0.854833 9.39642 3.97517 13.6898C6.05475 16.6203 8.98342 18.2083 11.6476 18.2083C13.249 18.2083 13.4445 17.8556 13.4445 17.249C13.4445 14.4488 13.2997 14.1843 14.1019 14.1843C14.4737 14.1843 15.1139 14.3683 16.6089 15.7818C18.3176 17.4579 18.5984 18.2083 19.5548 18.2083H22.0695C22.7863 18.2083 23.1495 17.8556 22.9406 17.1599C22.4624 15.6965 19.2309 12.6864 19.0852 12.4851Z" fill="white"/>
</g>
<defs>
<clipPath id="clip0">
<rect width="23" height="23" fill="white"/>
</clipPath>
</defs>
</svg>
