<?xml version="1.0" standalone="no"?>
<!DOCTYPE svg PUBLIC "-//W3C//DTD SVG 1.1//EN" "http://www.w3.org/Graphics/SVG/1.1/DTD/svg11.dtd" >
<svg xmlns="http://www.w3.org/2000/svg">
<metadata>
Generated by SVGconv.
</metadata>
<defs>
<font id="Tele2TextSansWebSHORT-Bold" horiz-adv-x="544" >
<font-face units-per-em="1000" ascent="1117" descent="287" />
<missing-glyph horiz-adv-x="500" />
<glyph unicode="&#13;" horiz-adv-x="248" />
<glyph unicode="&#32;" horiz-adv-x="248" />
<glyph unicode="&#65;" horiz-adv-x="632" d="M216 276h175l-86 286h-6zM429 151h-249l-44 -151h-126l227 750h148l237 -750l-148 0z" />
<glyph unicode="&#66;" horiz-adv-x="623" d="M70 0v750h241q64 0 110 -14.5q46 -14.5 76 -40q30 -25.5 44 -61q14 -35.5 14 -78.5q0 -57 -30 -96.5q-30 -39.5 -83 -59.5l0 -7q66 -14 103.5 -58.5q37.5 -44.5 37.5 -113.5q0 -47 -14 -87.5q-14 -40.5 -45 -70q-31 -29.5 -80 -46.5q-49 -17 -119 -17zM294 446q46 0 77.5 21.5q31.5 21.5 31.5 71.5q0 24 -8.5 40.5q-8.5 16.5 -23 26.5q-14.5 10 -34.5 14.5q-20 4.5 -43 4.5h-78v-179zM308 125q25 0 47.5 4.5q22.5 4.5 39.5 16q17 11.5 26.5 30q9.5 18.5 9.5 47.5q0 30 -10.5 49q-10.5 19 -27.5 30.5q-17 11.5 -40 16q-23 4.5 -47 4.5h-90l0 -198z" />
<glyph unicode="&#67;" horiz-adv-x="550" d="M363 -10q-84 0 -145.5 28q-61.5 28 -101.5 79q-40 51 -59.5 122q-19.5 71 -19.5 156q0 84 20.5 154.5q20.5 70.5 61.5 121.5q41 51 102 80q61 29 142 29q38 0 77.5 -7q39.5 -7 65.5 -18l0 -128q-24 12 -54.5 18.5q-30.5 6.5 -72.5 6.5q-39 0 -73.5 -14.5q-34.5 -14.5 -60.5 -46q-26 -31.5 -41 -80q-15 -48.5 -15 -116.5q0 -74 14 -123q14 -49 39.5 -78q25.5 -29 60.5 -41.5q35 -12.5 76 -12.5q26 0 61.5 4.5q35.5 4.5 75.5 30.5l0 -128q-35 -20 -74.5 -28.5t-78.5 -8.5z" />
<glyph unicode="&#68;" horiz-adv-x="656" d="M70 0v750h183q179 0 272.5 -96q93.5 -96 93.5 -278q0 -183 -94 -279.5q-94 -96.5 -272 -96.5zM253 133q98 0 156.5 59.5q58.5 59.5 58.5 183.5q0 64 -15 109.5q-15 45.5 -43 75q-28 29.5 -68 43q-40 13.5 -89 13.5h-37l0 -484z" />
<glyph unicode="&#69;" horiz-adv-x="534" d="M70 750h424v-131h-278v-169h222v-131h-222v-188h287v-131l-433 0z" />
<glyph unicode="&#70;" horiz-adv-x="494" d="M70 750h404v-133h-258v-179h210v-132h-210v-306l-146 0z" />
<glyph unicode="&#71;" horiz-adv-x="622" d="M567 15q-38 -14 -86.5 -19.5q-48.5 -5.5 -99.5 -5.5q-174 0 -259 101q-85 101 -85 284q0 93 25.5 165q25.5 72 72 121q46.5 49 111.5 74q65 25 143 25q21 0 44.5 -2q23.5 -2 46 -5.5q22.5 -3.5 41.5 -8.5q19 -5 31 -10l0 -133q-26 14 -66 22q-40 8 -82 8q-53 0 -93 -19.5q-40 -19.5 -67 -54q-27 -34.5 -41 -81q-14 -46.5 -14 -101.5q0 -54 10.5 -101q10.5 -47 34 -81.5q23.5 -34.5 60 -54q36.5 -19.5 89.5 -19.5q7 0 17.5 0q10.5 0 23.5 1l0 152h-99v121h242l0 -378z" />
<glyph unicode="&#72;" horiz-adv-x="685" d="M70 750h146v-303h253v303h147v-750h-147v314h-253v-314l-146 0z" />
<glyph unicode="&#73;" horiz-adv-x="286" d="M70 750h146v-750l-146 0z" />
<glyph unicode="&#74;" horiz-adv-x="378" d="M172 750h146v-513q0 -55 -10 -100.5q-10 -45.5 -32.5 -78q-22.5 -32.5 -60 -50.5q-37.5 -18 -91.5 -18q-35 0 -67 6q-32 6 -51 17l0 138q20 -14 42.5 -20.5q22.5 -6.5 45.5 -6.5q45 0 61.5 26q16.5 26 16.5 82z" />
<glyph unicode="&#75;" horiz-adv-x="630" d="M272 267l-56 -86v-181h-146v750h146v-362l229 362h153l-224 -361l254 -389l-180 0z" />
<glyph unicode="&#76;" horiz-adv-x="501" d="M70 750h146v-617h265v-133l-411 0z" />
<glyph unicode="&#77;" horiz-adv-x="850" d="M70 750h220l137 -529h6l137 529h211v-750h-147v585h-9l-148 -585h-122l-148 585h-9v-585l-128 0z" />
<glyph unicode="&#78;" horiz-adv-x="687" d="M70 750h162l247 -490h5v490h133v-750h-162l-249 491h-7v-491l-129 0z" />
<glyph unicode="&#79;" horiz-adv-x="680" d="M339 -10q-73 0 -129 27.5q-56 27.5 -94.5 78q-38.5 50.5 -58.5 121.5q-20 71 -20 158q0 88 20 159q20 71 58.5 121q38.5 50 94.5 77.5q56 27.5 129 27.5q74 0 131 -27q57 -27 95.5 -77.5q38.5 -50.5 58 -121.5q19.5 -71 19.5 -158q0 -88 -20 -159q-20 -71 -58.5 -121.5q-38.5 -50.5 -95 -78q-56.5 -27.5 -130.5 -27.5zt0 0zM339 119q152 0 152 257q0 127 -38 191q-38 64 -114 64q-73 0 -111.5 -64q-38.5 -64 -38.5 -192q0 -128 38.5 -192t111.5 -64z" />
<glyph unicode="&#80;" horiz-adv-x="569" d="M70 750h224q70 0 119.5 -21q49.5 -21 80 -54.5q30.5 -33.5 44.5 -76.5q14 -43 14 -87q0 -47 -14.5 -91.5q-14.5 -44.5 -45.5 -79q-31 -34.5 -80 -56q-49 -21.5 -118 -21.5h-78v-263h-146zM281 396q24 0 46 6q22 6 38 19.5q16 13.5 25.5 35.5q9.5 22 9.5 53q0 55 -35 81q-35 26 -84 26h-65l0 -221z" />
<glyph unicode="&#81;" horiz-adv-x="680" d="M599 -59v-121l-330 20v121zM339 -10q-73 0 -129 27.5q-56 27.5 -94.5 78q-38.5 50.5 -58.5 121.5q-20 71 -20 158q0 88 20 159q20 71 58.5 121q38.5 50 94.5 77.5q56 27.5 129 27.5q74 0 131 -27q57 -27 95.5 -77.5q38.5 -50.5 58 -121.5q19.5 -71 19.5 -158q0 -88 -20 -159q-20 -71 -58.5 -121.5q-38.5 -50.5 -95 -78q-56.5 -27.5 -130.5 -27.5zt0 0zM339 119q152 0 152 257q0 127 -38 191q-38 64 -114 64q-73 0 -111.5 -64q-38.5 -64 -38.5 -192q0 -128 38.5 -192t111.5 -64z" />
<glyph unicode="&#82;" horiz-adv-x="621" d="M294 408q46 0 77.5 26q31.5 26 31.5 82q0 53 -31.5 77q-31.5 24 -77.5 24h-78v-209zM70 0v750h222q73 0 123.5 -19q50.5 -19 81.5 -50q31 -31 44.5 -72q13.5 -41 13.5 -84q0 -30 -7 -62q-7 -32 -22.5 -62q-15.5 -30 -40 -54.5q-24.5 -24.5 -60.5 -39.5l186 -307h-175l-165 275h-55l0 -275z" />
<glyph unicode="&#83;" horiz-adv-x="505" d="M227 120q45 0 70 17.5q25 17.5 25 58.5q0 20 -7.5 35q-7.5 15 -22 27.5q-14.5 12.5 -35.5 24q-21 11.5 -49 25.5q-43 22 -74.5 45q-31.5 23 -52.5 51q-21 28 -31 63q-10 35 -10 80q0 61 21.5 102q21.5 41 56.5 65.5q35 24.5 78.5 35q43.5 10.5 87.5 10.5q23 0 47 -2q24 -2 45.5 -5.5q21.5 -3.5 40 -9.5q18.5 -6 30.5 -15l0 -136q-27 20 -68 29.5q-41 9.5 -86 9.5q-44 0 -73 -21q-29 -21 -29 -62q0 -24 10 -41q10 -17 26 -30.5q16 -13.5 37 -25.5q21 -12 44 -24q40 -22 71 -44.5q31 -22.5 52 -48.5q21 -26 31.5 -58.5q10.5 -32.5 10.5 -74.5q0 -44 -13 -82.5q-13 -38.5 -41.5 -67q-28.5 -28.5 -73 -45q-44.5 -16.5 -108.5 -16.5q-20 0 -45 1.5q-25 1.5 -52.5 6.5q-27.5 5 -55 14.5q-27.5 9.5 -52.5 25.5l0 147q51 -34 101 -49.5t94 -15.5z" />
<glyph unicode="&#84;" horiz-adv-x="565" d="M209 617h-189v133h525v-133h-189v-617l-147 0z" />
<glyph unicode="&#85;" horiz-adv-x="660" d="M594 268q0 -59 -15 -110q-15 -51 -46.5 -88.5q-31.5 -37.5 -81 -58.5q-49.5 -21 -118.5 -21q-70 0 -120.5 20q-50.5 20 -83 56.5q-32.5 36.5 -48 87.5q-15.5 51 -15.5 113v483h146v-471q0 -79 29 -117.5q29 -38.5 94 -38.5q67 0 92.5 39q25.5 39 25.5 118v470h141l0 -482z" />
<glyph unicode="&#86;" horiz-adv-x="619" d="M317 219h8l153 531h131l-228 -750h-133l-238 750l148 0z" />
<glyph unicode="&#87;" horiz-adv-x="892" d="M202 0l-191 750h149l116 -475h6l117 475h112l119 -475h9l111 475h131l-189 -750h-132l-120 473h-7l-114 -473z" />
<glyph unicode="&#88;" horiz-adv-x="639" d="M310 267l-152 -267h-141l220 385l-203 365h162l130 -231l131 231h141l-199 -349l222 -401l-162 0z" />
<glyph unicode="&#89;" horiz-adv-x="591" d="M228 0v307l-226 443h169l140 -285h4l134 285h140l-214 -445l0 -305z" />
<glyph unicode="&#90;" horiz-adv-x="512" d="M22 0v109l290 508h-275v133h439v-109l-289 -508h303l0 -133z" />
<glyph unicode="&#1040;" horiz-adv-x="632" d="M216 276h175l-86 286h-6zM429 151h-249l-44 -151h-126l227 750h148l237 -750l-148 0z" />
<glyph unicode="&#1041;" horiz-adv-x="596" d="M565 239q0 -44 -15.5 -87q-15.5 -43 -49 -76.5q-33.5 -33.5 -86 -54.5q-52.5 -21 -127.5 -21h-217v750h441v-133h-295v-142h74q73 0 125.5 -18q52.5 -18 85.5 -49.5q33 -31.5 48.5 -74.5q15.5 -43 15.5 -94zt0 0zM283 133q61 0 95.5 24q34.5 24 34.5 81q0 29 -10 49q-10 20 -27 32q-17 12 -41.5 17.5q-24.5 5.5 -52.5 5.5h-66l0 -209z" />
<glyph unicode="&#1042;" horiz-adv-x="623" d="M70 0v750h241q64 0 110 -14.5q46 -14.5 76 -40q30 -25.5 44 -61q14 -35.5 14 -78.5q0 -57 -30 -96.5q-30 -39.5 -83 -59.5l0 -7q66 -14 103.5 -58.5q37.5 -44.5 37.5 -113.5q0 -47 -14 -87.5q-14 -40.5 -45 -70q-31 -29.5 -80 -46.5q-49 -17 -119 -17zM294 446q46 0 77.5 21.5q31.5 21.5 31.5 71.5q0 24 -8.5 40.5q-8.5 16.5 -23 26.5q-14.5 10 -34.5 14.5q-20 4.5 -43 4.5h-78v-179zM308 125q25 0 47.5 4.5q22.5 4.5 39.5 16q17 11.5 26.5 30q9.5 18.5 9.5 47.5q0 30 -10.5 49q-10.5 19 -27.5 30.5q-17 11.5 -40 16q-23 4.5 -47 4.5h-90l0 -198z" />
<glyph unicode="&#1043;" horiz-adv-x="502" d="M70 750h412v-133h-266v-617l-146 0z" />
<glyph unicode="&#1044;" horiz-adv-x="699" d="M453 133v484h-169q0 -80 -3.5 -151.5q-3.5 -71.5 -11.5 -133q-8 -61.5 -23 -112q-15 -50.5 -37 -87.5zM146 0l-10 -160h-131v293h56q35 48 54 116.5q19 68.5 27 149.5q8 81 9 170.5q1 89.5 1 180.5l448 0v-617h79v-293h-131l-11 160z" />
<glyph unicode="&#1045;" horiz-adv-x="534" d="M70 750h424v-131h-278v-169h222v-131h-222v-188h287v-131l-433 0z" />
<glyph unicode="&#1025;" horiz-adv-x="534" d="M70 750h424v-131h-278v-169h222v-131h-222v-188h287v-131h-433zM382 779q-35 0 -55 21q-20 21 -20 52q0 29 20 51q20 22 55 22q36 0 56 -22q20 -22 20 -51q0 -31 -20 -52q-20 -21 -56 -21zt0 0zM185 779q-36 0 -56 21q-20 21 -20 52q0 29 20 51q20 22 56 22q35 0 55 -22q20 -22 20 -51q0 -31 -20 -52t-55 -21z" />
<glyph unicode="&#1046;" horiz-adv-x="899" d="M374 750h147v-329l27 11l179 318h147l-201 -357l222 -393h-164l-178 313l-32 -12v-301h-147v301l-31 12l-179 -313h-160l217 380l-208 370h154l178 -318l29 -11z" />
<glyph unicode="&#1047;" horiz-adv-x="514" d="M209 -10q-51 0 -93 10q-42 10 -76 27l0 137q38 -22 77.5 -33.5q39.5 -11.5 92.5 -11.5q54 0 87.5 24.5q33.5 24.5 33.5 76.5q0 27 -10.5 46q-10.5 19 -29 31q-18.5 12 -43 17q-24.5 5 -52.5 5h-68v133h64q54 0 83.5 26q29.5 26 29.5 70q0 42 -27.5 62q-27.5 20 -75.5 20q-48 0 -85 -15.5q-37 -15.5 -68 -44.5l0 138q34 27 82.5 39.5q48.5 12.5 94.5 12.5q120 0 175 -53q55 -53 55 -144q0 -27 -8.5 -52q-8.5 -25 -24.5 -46q-16 -21 -38.5 -37q-22.5 -16 -49.5 -25l0 -8q42 -9 70.5 -27.5q28.5 -18.5 46 -43q17.5 -24.5 24.5 -55q7 -30.5 7 -64.5q0 -45 -15 -84q-15 -39 -48 -68.5q-33 -29.5 -85 -46t-126 -16.5z" />
<glyph unicode="&#1048;" horiz-adv-x="687" d="M471 0v481h-8l-250 -481h-143v750h146v-479h8l250 479h143l0 -750z" />
<glyph unicode="&#1049;" horiz-adv-x="687" d="M471 0v481h-8l-250 -481h-143v750h146v-479h8l250 479h143v-750zM346 766q-33 0 -64.5 7q-31.5 7 -56.5 24.5q-25 17.5 -40.5 46.5q-15.5 29 -15.5 74l115 0q0 -20 13 -38q13 -18 49 -18q35 0 48.5 18q13.5 18 13.5 38l115 0q0 -45 -15 -74.5q-15 -29.5 -39.5 -46.5q-24.5 -17 -56.5 -24t-66 -7z" />
<glyph unicode="&#1050;" horiz-adv-x="609" d="M216 0h-146v750h146v-321l35 14l187 307h146l-210 -350l231 -400h-170l-183 310l-36 -13z" />
<glyph unicode="&#1051;" horiz-adv-x="650" d="M74 -9q-22 0 -38 2.5q-16 2.5 -29 6.5l0 131q2 -1 10 -2.5q8 -1.5 20 -1.5q28 0 47.5 19q19.5 19 32.5 65.5q13 46.5 19 125q6 78.5 6 198.5v215h438v-750h-146v617h-159v-87q0 -108 -5.5 -205.5q-5.5 -97.5 -25.5 -171.5q-20 -74 -60 -118t-110 -44z" />
<glyph unicode="&#1052;" horiz-adv-x="850" d="M70 750h220l137 -529h6l137 529h211v-750h-147v585h-9l-148 -585h-122l-148 585h-9v-585l-128 0z" />
<glyph unicode="&#1053;" horiz-adv-x="685" d="M70 750h146v-303h253v303h147v-750h-147v314h-253v-314l-146 0z" />
<glyph unicode="&#1054;" horiz-adv-x="680" d="M339 -10q-73 0 -129 27.5q-56 27.5 -94.5 78q-38.5 50.5 -58.5 121.5q-20 71 -20 158q0 88 20 159q20 71 58.5 121q38.5 50 94.5 77.5q56 27.5 129 27.5q74 0 131 -27q57 -27 95.5 -77.5q38.5 -50.5 58 -121.5q19.5 -71 19.5 -158q0 -88 -20 -159q-20 -71 -58.5 -121.5q-38.5 -50.5 -95 -78q-56.5 -27.5 -130.5 -27.5zt0 0zM339 119q152 0 152 257q0 127 -38 191q-38 64 -114 64q-73 0 -111.5 -64q-38.5 -64 -38.5 -192q0 -128 38.5 -192t111.5 -64z" />
<glyph unicode="&#1055;" horiz-adv-x="673" d="M70 750h533v-750h-146v617h-241v-617l-146 0z" />
<glyph unicode="&#1056;" horiz-adv-x="569" d="M70 750h224q70 0 119.5 -21q49.5 -21 80 -54.5q30.5 -33.5 44.5 -76.5q14 -43 14 -87q0 -47 -14.5 -91.5q-14.5 -44.5 -45.5 -79q-31 -34.5 -80 -56q-49 -21.5 -118 -21.5h-78v-263h-146zM281 396q24 0 46 6q22 6 38 19.5q16 13.5 25.5 35.5q9.5 22 9.5 53q0 55 -35 81q-35 26 -84 26h-65l0 -221z" />
<glyph unicode="&#1057;" horiz-adv-x="550" d="M363 -10q-84 0 -145.5 28q-61.5 28 -101.5 79q-40 51 -59.5 122q-19.5 71 -19.5 156q0 84 20.5 154.5q20.5 70.5 61.5 121.5q41 51 102 80q61 29 142 29q38 0 77.5 -7q39.5 -7 65.5 -18l0 -128q-24 12 -54.5 18.5q-30.5 6.5 -72.5 6.5q-39 0 -73.5 -14.5q-34.5 -14.5 -60.5 -46q-26 -31.5 -41 -80q-15 -48.5 -15 -116.5q0 -74 14 -123q14 -49 39.5 -78q25.5 -29 60.5 -41.5q35 -12.5 76 -12.5q26 0 61.5 4.5q35.5 4.5 75.5 30.5l0 -128q-35 -20 -74.5 -28.5t-78.5 -8.5z" />
<glyph unicode="&#1058;" horiz-adv-x="565" d="M209 617h-189v133h525v-133h-189v-617l-147 0z" />
<glyph unicode="&#1059;" horiz-adv-x="595" d="M147 0l88 219l-229 531h157l143 -332h9l133 332h141l-301 -750z" />
<glyph unicode="&#1060;" horiz-adv-x="834" d="M344 89q-71 0 -128.5 20.5q-57.5 20.5 -98.5 57.5q-41 37 -63.5 89.5q-22.5 52.5 -22.5 118.5q0 67 22.5 120q22.5 53 63.5 90q41 37 98.5 57.5q57.5 20.5 128.5 21.5l0 96h146v-96q71 -1 129 -21.5q58 -20.5 98.5 -58q40.5 -37.5 63 -90.5q22.5 -53 22.5 -120q0 -66 -22.5 -118.5q-22.5 -52.5 -63 -89.5q-40.5 -37 -98.5 -57q-58 -20 -129 -20l0 -99h-146zM344 541q-45 0 -76 -14.5q-31 -14.5 -49.5 -38.5q-18.5 -24 -27 -53.5q-8.5 -29.5 -8.5 -59.5q0 -29 8.5 -58q8.5 -29 27 -52.5q18.5 -23.5 49.5 -38.5q31 -15 76 -15zM490 211q46 0 76.5 14.5q30.5 14.5 49.5 37.5q19 23 27.5 52q8.5 29 8.5 59q0 30 -8.5 59.5q-8.5 29.5 -27.5 53.5q-19 24 -49.5 39q-30.5 15 -76.5 15z" />
<glyph unicode="&#1061;" horiz-adv-x="639" d="M310 267l-152 -267h-141l220 385l-203 365h162l130 -231l131 231h141l-199 -349l222 -401l-162 0z" />
<glyph unicode="&#1062;" horiz-adv-x="692" d="M531 0h-461v750h146v-617h231v617h146v-617h80v-293l-132 0z" />
<glyph unicode="&#1063;" horiz-adv-x="631" d="M415 298q-15 -8 -35 -13q-17 -5 -42.5 -8.5q-25.5 -3.5 -57.5 -3.5q-51 0 -93 13.5q-42 13.5 -72 43q-30 29.5 -46 76q-16 46.5 -16 111.5v233h146v-215q0 -76 26.5 -105.5q26.5 -29.5 86.5 -29.5q26 0 45 3q19 3 32 7q15 4 26 11l0 329h146v-750l-146 0z" />
<glyph unicode="&#1064;" horiz-adv-x="944" d="M70 750h146v-617h183v617h146v-617h182v617h147v-750l-804 0z" />
<glyph unicode="&#1065;" horiz-adv-x="972" d="M70 0v750h146v-617h183v617h146v-617h182v617h147v-617h79v-293h-131l-11 160z" />
<glyph unicode="&#1066;" horiz-adv-x="672" d="M156 0v617h-140v133h286v-254h74q73 0 125.5 -18.5q52.5 -18.5 85.5 -51.5q33 -33 48.5 -78q15.5 -45 15.5 -98q0 -45 -15.5 -90q-15.5 -45 -49 -80.5q-33.5 -35.5 -86 -57.5q-52.5 -22 -127.5 -22zM369 133q61 0 95.5 27q34.5 27 34.5 89q0 32 -10 54q-10 22 -27 35.5q-17 13.5 -41.5 19.5q-24.5 6 -52.5 6h-66l0 -231z" />
<glyph unicode="&#1067;" horiz-adv-x="846" d="M70 750h146v-254h74q73 0 125.5 -18.5q52.5 -18.5 85.5 -51.5q33 -33 48.5 -78q15.5 -45 15.5 -98q0 -45 -15.5 -90q-15.5 -45 -49 -80.5q-33.5 -35.5 -86 -57.5q-52.5 -22 -127.5 -22h-217zM283 133q61 0 95.5 27q34.5 27 34.5 89q0 32 -10 54q-10 22 -27 35.5q-17 13.5 -41.5 19.5q-24.5 6 -52.5 6h-66v-231zM630 750h146v-750l-146 0z" />
<glyph unicode="&#1068;" horiz-adv-x="586" d="M70 750h146v-254h74q73 0 125.5 -18.5q52.5 -18.5 85.5 -51.5q33 -33 48.5 -78q15.5 -45 15.5 -98q0 -45 -15.5 -90q-15.5 -45 -49 -80.5q-33.5 -35.5 -86 -57.5q-52.5 -22 -127.5 -22h-217zM283 133q61 0 95.5 27q34.5 27 34.5 89q0 32 -10 54q-10 22 -27 35.5q-17 13.5 -41.5 19.5q-24.5 6 -52.5 6h-66l0 -231z" />
<glyph unicode="&#1069;" horiz-adv-x="551" d="M195 -10q-44 0 -83 8.5q-39 8.5 -72 28.5l0 128q40 -23 74 -29q34 -6 66 -6q35 0 65.5 9q30.5 9 54 31.5q23.5 22.5 39 60q15.5 37.5 20.5 93.5l-215 0v133h213q-7 48 -23.5 83q-16.5 35 -40 57.5q-23.5 22.5 -53.5 33.5q-30 11 -63 11q-42 0 -73 -7.5q-31 -7.5 -59 -24.5l0 128q28 14 67.5 23q39.5 9 80.5 9q81 0 141 -29q60 -29 99.5 -80q39.5 -51 59.5 -121.5q20 -70.5 20 -154.5q0 -86 -19 -157q-19 -71 -58 -121.5q-39 -50.5 -99 -78.5t-142 -28z" />
<glyph unicode="&#1070;" horiz-adv-x="913" d="M582 -10q-64 0 -115 23q-51 23 -88 65.5q-37 42.5 -59 102q-22 59.5 -28 133.5l-76 0v-314h-146v750h146v-303h78q8 72 30.5 129.5q22.5 57.5 59 98.5q36.5 41 86 63q49.5 22 112.5 22q72 0 126.5 -27.5q54.5 -27.5 92 -78q37.5 -50.5 56.5 -121q19 -70.5 19 -157.5q0 -87 -19 -158q-19 -71 -56.5 -122q-37.5 -51 -92.5 -78.5q-55 -27.5 -126 -27.5zt0 0zM582 126q64 0 102 59.5q38 59.5 40 190.5q1 65 -9 112q-10 47 -28.5 77q-18.5 30 -45.5 44.5q-27 14.5 -59 14.5q-62 0 -100 -59q-38 -59 -40 -190q-1 -65 9 -112q10 -47 29 -77.5q19 -30.5 45 -45t57 -14.5z" />
<glyph unicode="&#1071;" horiz-adv-x="604" d="M392 412v205h-80q-47 0 -78.5 -23.5q-31.5 -23.5 -31.5 -76.5q0 -54 31.5 -79.5q31.5 -25.5 79.5 -25.5zM173 0h-164l184 309q-40 16 -67 41q-27 25 -43.5 54q-16.5 29 -24 60.5q-7.5 31.5 -7.5 61.5q0 42 14 82q14 40 45 71.5q31 31.5 81 51q50 19.5 123 19.5h224v-750h-146v279l-53 0z" />
<glyph unicode="&#97;" horiz-adv-x="528" d="M246 108q16 0 32 6q16 6 29 19q13 13 20.5 32q7.5 19 7.5 45v18q-75 0 -113 -14q-38 -14 -38 -51q0 -24 16.5 -39.5q16.5 -15.5 45.5 -15.5zt0 0zM187 -10q-69 0 -107 40q-38 40 -38 106q0 42 15.5 73.5q15.5 31.5 50.5 53.5q35 22 90.5 33q55.5 11 136.5 11l0 22q0 33 -22 51q-22 18 -68 18q-46 0 -87.5 -10q-41.5 -10 -79.5 -33l0 125q37 20 83 29q46 9 97 9q112 0 165 -49q53 -49 53 -143v-326h-136v79h-7q-10 -18 -22 -34.5q-12 -16.5 -29.5 -28.5q-17.5 -12 -40.5 -19t-54 -7z" />
<glyph unicode="&#98;" horiz-adv-x="579" d="M57 750h141v-240l-5 -73h7q20 35 56 58q36 23 90 23q46 0 83.5 -19.5q37.5 -19.5 63.5 -54q26 -34.5 40 -82q14 -47.5 14 -104.5q0 -60 -14 -109q-14 -49 -40.5 -84.5q-26.5 -35.5 -64 -55q-37.5 -19.5 -84.5 -19.5q-52 0 -86.5 19q-34.5 19 -57.5 60l-7 0v-69h-136zM298 117q20 0 38.5 7.5q18.5 7.5 32.5 24q14 16.5 22.5 43.5q8.5 27 8.5 66q0 36 -8 61q-8 25 -22 41q-14 16 -32.5 23q-18.5 7 -39.5 7q-20 0 -38.5 -6.5q-18.5 -6.5 -32 -20.5q-13.5 -14 -21.5 -36.5q-8 -22.5 -8 -53.5v-32q0 -67 29 -95.5t71 -28.5z" />
<glyph unicode="&#99;" horiz-adv-x="442" d="M286 -10q-122 0 -188 68.5q-66 68.5 -66 193.5q0 62 18.5 111q18.5 49 51.5 83.5q33 34.5 79 53q46 18.5 101 18.5q38 0 67.5 -5.5q29.5 -5.5 54.5 -19.5l0 -136q-23 16 -50.5 22.5q-27.5 6.5 -54.5 6.5q-54 0 -87 -32.5q-33 -32.5 -33 -101.5q0 -69 33.5 -100q33.5 -31 89.5 -31q28 0 56.5 7.5q28.5 7.5 48.5 24.5l0 -138q-14 -10 -47.5 -17.5t-73.5 -7.5z" />
<glyph unicode="&#100;" horiz-adv-x="579" d="M282 116q19 0 37 6.5q18 6.5 31.5 21.5q13.5 15 21.5 38q8 23 8 56v32q0 64 -27.5 92.5q-27.5 28.5 -70.5 28.5q-21 0 -39.5 -7.5q-18.5 -7.5 -32.5 -24q-14 -16.5 -22.5 -44q-8.5 -27.5 -8.5 -66.5q0 -71 30.5 -102q30.5 -31 72.5 -31zt0 0zM385 0v71h-7q-18 -36 -54.5 -58.5q-36.5 -22.5 -90.5 -22.5q-47 0 -84.5 19q-37.5 19 -63.5 53q-26 34 -39.5 82q-13.5 48 -13.5 105q0 59 14 108.5q14 49.5 40.5 85q26.5 35.5 64.5 55.5q38 20 86 20q51 0 85.5 -19q34.5 -19 55.5 -61l7 0l-5 72v240h142l0 -750z" />
<glyph unicode="&#101;" horiz-adv-x="515" d="M296 -10q-126 0 -195 64.5q-69 64.5 -69 197.5q0 62 16.5 111q16.5 49 47 83.5q30.5 34.5 74.5 53q44 18.5 98 18.5q47 0 86.5 -13q39.5 -13 68 -39q28.5 -26 44 -65q15.5 -39 15.5 -92q0 -27 -3.5 -49q-3.5 -22 -6.5 -32l-286 0q4 -57 33.5 -86.5q29.5 -29.5 88.5 -29.5q42 0 81.5 8.5q39.5 8.5 71.5 28.5l0 -121q-26 -17 -69.5 -27.5q-43.5 -10.5 -95.5 -10.5zt0 0zM347 312q-2 47 -23.5 71.5q-21.5 24.5 -59.5 24.5q-40 0 -59.5 -26.5q-19.5 -26.5 -24.5 -69.5z" />
<glyph unicode="&#102;" horiz-adv-x="333" d="M221 508h107v-124h-107v-384h-141v384h-70v124h70v41q0 102 51.5 156.5q51.5 54.5 145.5 54.5q26 0 52 -3.5q26 -3.5 49 -13.5l0 -122q-24 18 -70 18q-41 0 -64 -20q-23 -20 -23 -68z" />
<glyph unicode="&#103;" horiz-adv-x="528" d="M248 244q34 0 53.5 24q19.5 24 19.5 62q0 40 -20 62.5q-20 22.5 -53 22.5q-34 0 -53 -23.5q-19 -23.5 -19 -62.5q0 -38 19 -61.5q19 -23.5 53 -23.5zt0 0zM520 -76q0 -88 -68 -136.5q-68 -48.5 -197 -48.5q-49 0 -93 8q-44 8 -77 25.5q-33 17.5 -52 44.5q-19 27 -19 66q0 26 8 45.5q8 19.5 21.5 33.5q13.5 14 31 23.5q17.5 9.5 36.5 14.5q-45 26 -45 75q0 37 22 59.5q22 22.5 53 33.5q-52 20 -81.5 61.5q-29.5 41.5 -29.5 101.5q0 43 16 77.5q16 34.5 44.5 58.5q28.5 24 68.5 37q40 13 89 13q78 0 133 -32l148 22v-124l-69 3q3 -13 5 -26.5q2 -13.5 2 -27.5q0 -43 -16 -77q-16 -34 -44.5 -57.5q-28.5 -23.5 -69 -36q-40.5 -12.5 -89.5 -12.5h-1q-22 0 -34.5 -6.5q-12.5 -6.5 -12.5 -18.5q0 -19 28.5 -26q28.5 -7 83.5 -9q109 -5 158.5 -46q49.5 -41 49.5 -119zt0 0zM275 -161q54 0 86 16q32 16 32 51q0 32 -31 44.5q-31 12.5 -94 16.5q-24 2 -45 3.5q-21 1.5 -41 5.5q-18 -11 -25.5 -26.5q-7.5 -15.5 -7.5 -36.5q0 -35 32.5 -54.5t93.5 -19.5z" />
<glyph unicode="&#104;" horiz-adv-x="565" d="M57 750h141v-240l-5 -73h7q22 36 59 58.5q37 22.5 89 22.5q89 0 127 -50q38 -50 38 -137v-331h-142v278q0 55 -20 81.5q-20 26.5 -65 26.5q-41 0 -64.5 -25.5q-23.5 -25.5 -23.5 -79.5v-281l-141 0z" />
<glyph unicode="&#105;" horiz-adv-x="256" d="M57 508h141v-508h-141zM128 579q-37 0 -62 23.5q-25 23.5 -25 59.5q0 37 25 60q25 23 62 23q35 0 61 -23q26 -23 26 -60q0 -18 -7 -33q-7 -15 -19 -26.5q-12 -11.5 -28 -17.5t-33 -6z" />
<glyph unicode="&#106;" horiz-adv-x="274" d="M77 508h141v-550q0 -60 -12.5 -102q-12.5 -42 -34.5 -67.5q-22 -25.5 -52.5 -37q-30.5 -11.5 -67.5 -11.5q-29 0 -57.5 4.5q-28.5 4.5 -50.5 16.5l0 123q25 -19 61 -19q19 0 33 6q14 6 23 22.5q9 16.5 13 46.5q4 30 4 78zM148 579q-37 0 -62 23.5q-25 23.5 -25 59.5q0 37 25 60q25 23 62 23q35 0 61 -23q26 -23 26 -60q0 -18 -7 -33q-7 -15 -19 -26.5q-12 -11.5 -28 -17.5t-33 -6z" />
<glyph unicode="&#107;" horiz-adv-x="524" d="M241 164l-43 -58v-106h-141v750h141v-466l160 224h148l-170 -229l193 -279l-171 0z" />
<glyph unicode="&#108;" horiz-adv-x="280" d="M42 750h141v-585q0 -26 12 -35q12 -9 31 -9q24 0 44 12l0 -125q-11 -7 -33 -12.5q-22 -5.5 -57 -5.5q-66 0 -102 33.5q-36 33.5 -36 113.5z" />
<glyph unicode="&#109;" horiz-adv-x="845" d="M198 0h-141v508h136v-71h7q25 38 63 59.5q38 21.5 90 21.5q54 0 85.5 -23.5q31.5 -23.5 45.5 -57.5l6 0q23 39 60.5 60q37.5 21 84.5 21q44 0 74 -13q30 -13 48.5 -38q18.5 -25 26.5 -60q8 -35 8 -78v-329h-141v286q0 54 -19.5 77q-19.5 23 -54.5 23q-36 0 -59 -22.5q-23 -22.5 -23 -68.5v-295h-141v286q0 54 -20.5 77q-20.5 23 -55.5 23q-34 0 -57 -21.5q-23 -21.5 -23 -69.5z" />
<glyph unicode="&#110;" horiz-adv-x="565" d="M57 508h136v-71h7q21 35 57.5 58q36.5 23 90.5 23q89 0 127 -50q38 -50 38 -137v-331h-142v278q0 55 -20 81.5q-20 26.5 -65 26.5q-42 0 -65 -27q-23 -27 -23 -78v-281l-141 0z" />
<glyph unicode="&#111;" horiz-adv-x="558" d="M278 -10q-52 0 -97 17.5q-45 17.5 -78 51q-33 33.5 -52 82q-19 48.5 -19 111.5q0 63 19 112q19 49 52 83.5q33 34.5 78 52.5q45 18 97 18q52 0 97 -18q45 -18 78.5 -52q33.5 -34 52.5 -83q19 -49 19 -112q0 -63 -19 -111.5q-19 -48.5 -52 -82.5q-33 -34 -78.5 -51.5q-45.5 -17.5 -97.5 -17.5zt0 0zM278 118q21 0 39.5 7.5q18.5 7.5 32 23.5q13.5 16 21.5 41.5q8 25.5 8 62.5q0 37 -8 63q-8 26 -22 42.5q-14 16.5 -32 24q-18 7.5 -39 7.5q-42 0 -70.5 -31.5q-28.5 -31.5 -28.5 -106.5q0 -73 28.5 -103.5t70.5 -30.5z" />
<glyph unicode="&#112;" horiz-adv-x="579" d="M298 118q20 0 38.5 7q18.5 7 32.5 23.5q14 16.5 22.5 43.5q8.5 27 8.5 66q0 36 -8 61q-8 25 -22 41q-14 16 -32.5 23q-18.5 7 -39.5 7q-20 0 -38.5 -6.5q-18.5 -6.5 -32 -20.5q-13.5 -14 -21.5 -36.5q-8 -22.5 -8 -53.5v-32q0 -67 29 -95q29 -28 71 -28zt0 0zM57 508h136v-71h7q19 35 55 58q36 23 91 23q46 0 83.5 -19.5q37.5 -19.5 63.5 -54q26 -34.5 40 -82q14 -47.5 14 -104.5q0 -60 -14 -109q-14 -49 -40.5 -84.5q-26.5 -35.5 -64 -55q-37.5 -19.5 -84.5 -19.5q-52 0 -87 20q-35 20 -57 59l-7 0l5 -79v-240l-141 0z" />
<glyph unicode="&#113;" horiz-adv-x="579" d="M380 0l5 71h-7q-19 -36 -55 -58.5q-36 -22.5 -90 -22.5q-47 0 -84.5 19q-37.5 19 -63.5 53q-26 34 -39.5 82q-13.5 48 -13.5 105q0 59 14 108.5q14 49.5 40.5 85q26.5 35.5 64.5 55.5q38 20 86 20q51 0 85.5 -19q34.5 -19 55.5 -61l7 0v70h137v-758h-142zM282 116q19 0 37 6.5q18 6.5 31.5 21.5q13.5 15 21.5 38q8 23 8 56v32q0 64 -27.5 92q-27.5 28 -70.5 28q-21 0 -39.5 -7.5q-18.5 -7.5 -32.5 -24q-14 -16.5 -22.5 -43.5q-8.5 -27 -8.5 -66q0 -71 30.5 -102t72.5 -31z" />
<glyph unicode="&#114;" horiz-adv-x="398" d="M57 508h136v-79h7q14 35 46.5 62q32.5 27 85.5 27q14 0 29.5 -1.5q15.5 -1.5 26.5 -6.5l0 -138q-14 5 -31.5 8.5q-17.5 3.5 -40.5 3.5q-19 0 -40 -5.5q-21 -5.5 -38 -20q-17 -14.5 -28.5 -40q-11.5 -25.5 -11.5 -65.5v-253l-141 0z" />
<glyph unicode="&#115;" horiz-adv-x="432" d="M207 -10q-17 0 -40 1.5q-23 1.5 -47.5 5q-24.5 3.5 -48 10q-23.5 6.5 -41.5 17.5l0 132q19 -14 42.5 -23.5q23.5 -9.5 47 -15q23.5 -5.5 44.5 -8q21 -2.5 36 -2.5q32 0 46 11q14 11 14 32q0 12 -7.5 20.5q-7.5 8.5 -20 15q-12.5 6.5 -28 11q-15.5 4.5 -31.5 9.5q-25 7 -50 18q-25 11 -44.5 28.5q-19.5 17.5 -31.5 42.5q-12 25 -12 60q0 37 12.5 67q12.5 30 38.5 51.5q26 21.5 65.5 33q39.5 11.5 94.5 11.5q14 0 32.5 -1q18.5 -1 37 -3.5q18.5 -2.5 36 -6q17.5 -3.5 29.5 -8.5l0 -125q-32 15 -65 21q-33 6 -60 6q-64 0 -64 -44q0 -23 22.5 -34.5q22.5 -11.5 54.5 -21.5q22 -7 45.5 -17q23.5 -10 43 -27q19.5 -17 32 -43q12.5 -26 12.5 -66q0 -33 -10 -61.5q-10 -28.5 -33.5 -50q-23.5 -21.5 -60.5 -34t-91 -12.5z" />
<glyph unicode="&#116;" horiz-adv-x="388" d="M260 -10q-52 0 -86.5 14.5q-34.5 14.5 -55.5 41.5q-21 27 -29.5 65q-8.5 38 -8.5 85v188h-70v124h70v144h141v-144h140v-124h-140v-184q0 -42 16.5 -64q16.5 -22 54.5 -22q24 0 41.5 4.5q17.5 4.5 29.5 9.5l0 -119q-24 -11 -51.5 -15t-51.5 -4z" />
<glyph unicode="&#117;" horiz-adv-x="563" d="M216 -10q-86 0 -125 50q-39 50 -39 141v327h141v-279q0 -57 20 -82.5q20 -25.5 61 -25.5q40 0 65.5 25.5q25.5 25.5 25.5 84.5v277h141v-508h-136v71h-7q-20 -34 -56 -57.5t-91 -23.5z" />
<glyph unicode="&#118;" horiz-adv-x="485" d="M-1 508h145l106 -324h7l95 324h134l-165 -508l-142 0z" />
<glyph unicode="&#119;" horiz-adv-x="712" d="M358 329h-10l-67 -329h-157l-125 508h135l82 -362h10l74 362h126l89 -362h11l69 362h119l-113 -508l-157 0z" />
<glyph unicode="&#120;" horiz-adv-x="525" d="M252 158l-95 -158h-139l163 253l-165 255h166l87 -152l89 152h140l-158 -246l172 -262l-167 0z" />
<glyph unicode="&#121;" horiz-adv-x="491" d="M103 -250l82 242l-188 516h148l107 -316h7l101 316h134l-257 -758z" />
<glyph unicode="&#122;" horiz-adv-x="466" d="M35 0v104l222 280h-217v124h378v-104l-222 -280h239l0 -124z" />
<glyph unicode="&#1072;" horiz-adv-x="528" d="M246 108q16 0 32 6q16 6 29 19q13 13 20.5 32q7.5 19 7.5 45v18q-75 0 -113 -14q-38 -14 -38 -51q0 -24 16.5 -39.5q16.5 -15.5 45.5 -15.5zt0 0zM187 -10q-69 0 -107 40q-38 40 -38 106q0 42 15.5 73.5q15.5 31.5 50.5 53.5q35 22 90.5 33q55.5 11 136.5 11l0 22q0 33 -22 51q-22 18 -68 18q-46 0 -87.5 -10q-41.5 -10 -79.5 -33l0 125q37 20 83 29q46 9 97 9q112 0 165 -49q53 -49 53 -143v-326h-136v79h-7q-10 -18 -22 -34.5q-12 -16.5 -29.5 -28.5q-17.5 -12 -40.5 -19t-54 -7z" />
<glyph unicode="&#1073;" horiz-adv-x="567" d="M284 -10q-51 0 -97 15q-46 15 -80.5 52q-34.5 37 -54.5 99.5q-20 62.5 -20 158.5q0 110 18 188q18 78 57 129q39 51 100 77.5q61 26.5 146 34.5q41 3 82 7q41 4 61 9l0 -137q-20 -5 -58 -8q-38 -3 -77 -8q-54 -5 -91.5 -17.5q-37.5 -12.5 -61 -35.5q-23.5 -23 -35 -59.5q-11.5 -36.5 -14.5 -90.5l7 0q6 16 18 33.5q12 17.5 31.5 32q19.5 14.5 47 23.5q27.5 9 64.5 9q45 0 83.5 -18.5q38.5 -18.5 66 -51.5q27.5 -33 43 -79.5q15.5 -46.5 15.5 -103.5q0 -58 -18.5 -106q-18.5 -48 -51.5 -82q-33 -34 -79 -52.5q-46 -18.5 -102 -18.5zt0 0zM284 118q45 0 75 32q30 32 30 99q0 67 -30 96.5q-30 29.5 -75 29.5q-46 0 -75 -30q-29 -30 -29 -97q0 -67 29 -98.5t75 -31.5z" />
<glyph unicode="&#1074;" horiz-adv-x="520" d="M57 508h194q60 0 101 -9.5q41 -9.5 66.5 -26.5q25.5 -17 36.5 -41q11 -24 11 -53q0 -46 -25 -72.5q-25 -26.5 -67 -35.5l0 -7q52 -8 81.5 -38.5q29.5 -30.5 29.5 -79.5q0 -30 -10 -56q-10 -26 -34 -46q-24 -20 -64.5 -31.5q-40.5 -11.5 -100.5 -11.5h-219zM247 308q38 0 55 15q17 15 17 38q0 23 -18.5 35.5q-18.5 12.5 -53.5 12.5h-49v-101zM263 98q35 0 55.5 14.5q20.5 14.5 20.5 41.5q0 29 -20.5 43q-20.5 14 -55.5 14h-65l0 -113z" />
<glyph unicode="&#1075;" horiz-adv-x="400" d="M57 508h337v-124h-196v-384l-141 0z" />
<glyph unicode="&#1076;" horiz-adv-x="579" d="M348 124v259h-105q0 -25 -3 -60q-3 -35 -9.5 -72q-6.5 -37 -17 -71q-10.5 -34 -26.5 -56zM134 -132h-127v256h43q22 23 37 60q15 37 24 86.5q9 49.5 13 109.5q4 60 5 128l361 0v-384h78v-256h-126l-10 132l-288 0z" />
<glyph unicode="&#1077;" horiz-adv-x="515" d="M296 -10q-126 0 -195 64.5q-69 64.5 -69 197.5q0 62 16.5 111q16.5 49 47 83.5q30.5 34.5 74.5 53q44 18.5 98 18.5q47 0 86.5 -13q39.5 -13 68 -39q28.5 -26 44 -65q15.5 -39 15.5 -92q0 -27 -3.5 -49q-3.5 -22 -6.5 -32l-286 0q4 -57 33.5 -86.5q29.5 -29.5 88.5 -29.5q42 0 81.5 8.5q39.5 8.5 71.5 28.5l0 -121q-26 -17 -69.5 -27.5q-43.5 -10.5 -95.5 -10.5zt0 0zM347 312q-2 47 -23.5 71.5q-21.5 24.5 -59.5 24.5q-40 0 -59.5 -26.5q-19.5 -26.5 -24.5 -69.5z" />
<glyph unicode="&#1105;" horiz-adv-x="515" d="M296 -10q-126 0 -195 64.5q-69 64.5 -69 197.5q0 62 16.5 111q16.5 49 47 83.5q30.5 34.5 74.5 53q44 18.5 98 18.5q47 0 86.5 -13q39.5 -13 68 -39q28.5 -26 44 -65q15.5 -39 15.5 -92q0 -27 -3.5 -49q-3.5 -22 -6.5 -32l-286 0q4 -57 33.5 -86.5q29.5 -29.5 88.5 -29.5q42 0 81.5 8.5q39.5 8.5 71.5 28.5l0 -121q-26 -17 -69.5 -27.5q-43.5 -10.5 -95.5 -10.5zt0 0zM347 312q-2 47 -23.5 71.5q-21.5 24.5 -59.5 24.5q-40 0 -59.5 -26.5q-19.5 -26.5 -24.5 -69.5zM371 579q-17 0 -32.5 6.5q-15.5 6.5 -27 17.5q-11.5 11 -18 26q-6.5 15 -6.5 33q0 34 24.5 58.5q24.5 24.5 59.5 24.5q34 0 58.5 -24.5q24.5 -24.5 24.5 -58.5q0 -18 -6.5 -33q-6.5 -15 -18 -26q-11.5 -11 -26.5 -17.5q-15 -6.5 -32 -6.5zt0 0zM155 579q-37 0 -60 24q-23 24 -23 59q0 34 23 58.5q23 24.5 60 24.5q16 0 31 -6.5q15 -6.5 26.5 -18q11.5 -11.5 18.5 -26.5q7 -15 7 -32q0 -18 -7 -33q-7 -15 -18.5 -26q-11.5 -11 -26.5 -17.5t-31 -6.5z" />
<glyph unicode="&#1078;" horiz-adv-x="773" d="M167 0h-161l168 273l-163 235h140l145 -207l20 -5v212h141v-213l18 5l145 208h139l-159 -230l167 -278h-166l-122 197l-22 -6v-191h-141v191l-23 7z" />
<glyph unicode="&#1079;" horiz-adv-x="444" d="M205 -10q-20 0 -42 2q-22 2 -43.5 6q-21.5 4 -42.5 10.5q-21 6.5 -37 16.5l0 122q73 -45 152 -45q76 0 76 53q0 26 -19 37.5q-19 11.5 -52 11.5h-83v109h76q31 0 45 12q14 12 14 32q0 26 -19 37q-19 11 -54 11q-36 0 -66.5 -8.5q-30.5 -8.5 -62.5 -28.5l0 121q31 14 70.5 21.5q39.5 7.5 79.5 7.5q52 0 88 -10q36 -10 59 -27.5q23 -17.5 33.5 -41.5q10.5 -24 10.5 -52q0 -38 -18 -68.5q-18 -30.5 -66 -46.5l0 -7q51 -12 77 -44.5q26 -32.5 26 -82.5q0 -28 -9.5 -54.5q-9.5 -26.5 -32.5 -47.5q-23 -21 -62 -33.5t-98 -12.5z" />
<glyph unicode="&#1080;" horiz-adv-x="557" d="M57 508h141v-286h8l164 286h130v-508h-141v287h-7l-166 -287l-129 0z" />
<glyph unicode="&#1081;" horiz-adv-x="557" d="M57 508h141v-286h8l164 286h130v-508h-141v287h-7l-166 -287h-129zM275 557q-33 0 -64.5 7.5q-31.5 7.5 -56.5 27q-25 19.5 -40.5 52.5q-15.5 33 -15.5 84l123 0q0 -29 11 -46q11 -17 43 -17q30 0 42 17q12 17 12 46l123 0q0 -51 -15.5 -84q-15.5 -33 -40.5 -52.5q-25 -19.5 -56.5 -27t-64.5 -7.5z" />
<glyph unicode="&#1082;" horiz-adv-x="518" d="M198 0h-141v508h141v-205l27 5l137 200h139l-156 -228l167 -280h-167l-119 193l-28 -8z" />
<glyph unicode="&#1083;" horiz-adv-x="546" d="M62 -9q-25 0 -38 3q-8 1 -14 3l0 128q3 -1 7 -2q3 -1 7 -1q4 0 8 0q28 0 45 23q17 23 26.5 70.5q9.5 47.5 13 120q3.5 72.5 3.5 172.5l369 0v-508h-142v384h-107q0 -82 -6.5 -153.5q-6.5 -71.5 -25.5 -125q-19 -53.5 -54 -84t-92 -30.5z" />
<glyph unicode="&#1084;" horiz-adv-x="735" d="M57 508h203l103 -334h7l102 334h203v-508h-142v353h-10l-109 -353h-118l-109 353h-10v-353l-120 0z" />
<glyph unicode="&#1085;" horiz-adv-x="557" d="M359 199h-161v-199h-141v508h141v-185h161v185h141v-508l-141 0z" />
<glyph unicode="&#1086;" horiz-adv-x="558" d="M278 -10q-52 0 -97 17.5q-45 17.5 -78 51q-33 33.5 -52 82q-19 48.5 -19 111.5q0 63 19 112q19 49 52 83.5q33 34.5 78 52.5q45 18 97 18q52 0 97 -18q45 -18 78.5 -52q33.5 -34 52.5 -83q19 -49 19 -112q0 -63 -19 -111.5q-19 -48.5 -52 -82.5q-33 -34 -78.5 -51.5q-45.5 -17.5 -97.5 -17.5zt0 0zM278 118q21 0 39.5 7.5q18.5 7.5 32 23.5q13.5 16 21.5 41.5q8 25.5 8 62.5q0 37 -8 63q-8 26 -22 42.5q-14 16.5 -32 24q-18 7.5 -39 7.5q-42 0 -70.5 -31.5q-28.5 -31.5 -28.5 -106.5q0 -73 28.5 -103.5t70.5 -30.5z" />
<glyph unicode="&#1087;" horiz-adv-x="547" d="M349 384h-151v-384h-141v508h433v-508l-141 0z" />
<glyph unicode="&#1088;" horiz-adv-x="579" d="M298 118q20 0 38.5 7q18.5 7 32.5 23.5q14 16.5 22.5 43.5q8.5 27 8.5 66q0 36 -8 61q-8 25 -22 41q-14 16 -32.5 23q-18.5 7 -39.5 7q-20 0 -38.5 -6.5q-18.5 -6.5 -32 -20.5q-13.5 -14 -21.5 -36.5q-8 -22.5 -8 -53.5v-32q0 -67 29 -95q29 -28 71 -28zt0 0zM57 508h136v-71h7q19 35 55 58q36 23 91 23q46 0 83.5 -19.5q37.5 -19.5 63.5 -54q26 -34.5 40 -82q14 -47.5 14 -104.5q0 -60 -14 -109q-14 -49 -40.5 -84.5q-26.5 -35.5 -64 -55q-37.5 -19.5 -84.5 -19.5q-52 0 -87 20q-35 20 -57 59l-7 0l5 -79v-240l-141 0z" />
<glyph unicode="&#1089;" horiz-adv-x="442" d="M286 -10q-122 0 -188 68.5q-66 68.5 -66 193.5q0 62 18.5 111q18.5 49 51.5 83.5q33 34.5 79 53q46 18.5 101 18.5q38 0 67.5 -5.5q29.5 -5.5 54.5 -19.5l0 -136q-23 16 -50.5 22.5q-27.5 6.5 -54.5 6.5q-54 0 -87 -32.5q-33 -32.5 -33 -101.5q0 -69 33.5 -100q33.5 -31 89.5 -31q28 0 56.5 7.5q28.5 7.5 48.5 24.5l0 -138q-14 -10 -47.5 -17.5t-73.5 -7.5z" />
<glyph unicode="&#1090;" horiz-adv-x="439" d="M149 384h-139v124h419v-124h-140v-384l-140 0z" />
<glyph unicode="&#1091;" horiz-adv-x="491" d="M103 -250l82 242l-188 516h148l107 -316h7l101 316h134l-257 -758z" />
<glyph unicode="&#1092;" horiz-adv-x="720" d="M289 -250v242q-63 3 -111.5 23.5q-48.5 20.5 -82 54.5q-33.5 34 -51 80.5q-17.5 46.5 -17.5 101.5q0 55 17.5 102.5q17.5 47.5 50.5 82.5q33 35 82 55.5q49 20.5 112 23.5l0 234h142v-234q63 -3 111.5 -23.5q48.5 -20.5 82 -54.5q33.5 -34 51 -80.5q17.5 -46.5 17.5 -101.5q0 -56 -17.5 -103q-17.5 -47 -50.5 -82q-33 -35 -82 -55.5q-49 -20.5 -112 -23.5l0 -242zM431 107q57 1 86 43q29 42 29 106q0 63 -29 102.5q-29 39.5 -86 41.5zM289 400q-57 -1 -86 -42.5q-29 -41.5 -29 -105.5q0 -63 29 -103q29 -40 86 -42z" />
<glyph unicode="&#1093;" horiz-adv-x="525" d="M252 158l-95 -158h-139l163 253l-165 255h166l87 -152l89 152h140l-158 -246l172 -262l-167 0z" />
<glyph unicode="&#1094;" horiz-adv-x="581" d="M57 0v508h141v-384h152v384h142v-384h78v-264h-126l-10 140z" />
<glyph unicode="&#1095;" horiz-adv-x="518" d="M319 185q-17 -7 -40.5 -12q-23.5 -5 -54.5 -5q-99 0 -144 52.5q-45 52.5 -45 149.5v138h141v-132q0 -45 18.5 -64q18.5 -19 56.5 -19q15 0 33 3.5q18 3.5 35 11.5l0 200h142v-508l-142 0z" />
<glyph unicode="&#1096;" horiz-adv-x="791" d="M57 0v508h141v-384h127v384h141v-384h126v384h142l0 -508z" />
<glyph unicode="&#1097;" horiz-adv-x="823" d="M686 -140l-10 140h-619v508h141v-384h127v384h141v-384h126v384h142v-384h78l0 -264z" />
<glyph unicode="&#1098;" horiz-adv-x="535" d="M107 0v384h-101v124h242v-146h50q60 0 102.5 -13.5q42.5 -13.5 70.5 -37q28 -23.5 41 -56q13 -32.5 13 -70.5q0 -39 -13 -73q-13 -34 -41 -58.5q-28 -24.5 -70.5 -39q-42.5 -14.5 -102.5 -14.5zM295 112q45 0 64.5 20q19.5 20 19.5 49q0 30 -19.5 49q-19.5 19 -64.5 19h-47l0 -137z" />
<glyph unicode="&#1099;" horiz-adv-x="717" d="M57 508h141v-146h50q60 0 102.5 -13.5q42.5 -13.5 70.5 -37q28 -23.5 41 -56q13 -32.5 13 -70.5q0 -39 -13 -73q-13 -34 -41 -58.5q-28 -24.5 -70.5 -39q-42.5 -14.5 -102.5 -14.5h-191zM245 112q45 0 64.5 20q19.5 20 19.5 49q0 30 -19.5 49q-19.5 19 -64.5 19h-47v-137zM518 508h141v-508l-141 0z" />
<glyph unicode="&#1100;" horiz-adv-x="485" d="M57 508h141v-146h50q60 0 102.5 -13.5q42.5 -13.5 70.5 -37q28 -23.5 41 -56q13 -32.5 13 -70.5q0 -39 -13 -73q-13 -34 -41 -58.5q-28 -24.5 -70.5 -39q-42.5 -14.5 -102.5 -14.5h-191zM245 112q45 0 64.5 20q19.5 20 19.5 49q0 30 -19.5 49q-19.5 19 -64.5 19h-47l0 -137z" />
<glyph unicode="&#1101;" horiz-adv-x="453" d="M172 -10q-53 0 -86.5 8q-33.5 8 -50.5 21l0 134q20 -18 51 -28.5q31 -10.5 69 -10.5q57 0 82.5 22.5q25.5 22.5 33.5 71.5l-161 0v101h160q-8 43 -35 64q-27 21 -81 21q-26 0 -56 -7q-30 -7 -58 -27l0 130q20 13 54 20.5q34 7.5 82 7.5q57 0 102.5 -17.5q45.5 -17.5 77 -50.5q31.5 -33 48 -80.5q16.5 -47.5 16.5 -106.5q0 -62 -14.5 -112.5q-14.5 -50.5 -44.5 -86q-30 -35.5 -77 -55t-112 -19.5z" />
<glyph unicode="&#1102;" horiz-adv-x="764" d="M491 -10q-45 0 -84.5 14q-39.5 14 -71 40.5q-31.5 26.5 -52.5 65.5q-21 39 -28 89l-57 0v-199h-141v508h141v-185h60q9 46 30.5 82.5q21.5 36.5 52 61.5q30.5 25 69 38q38.5 13 81.5 13q50 0 94 -18q44 -18 76.5 -52q32.5 -34 51.5 -83q19 -49 19 -112q0 -63 -18.5 -111.5q-18.5 -48.5 -51 -82.5q-32.5 -34 -76.5 -51.5q-44 -17.5 -95 -17.5zt0 0zM491 118q20 0 37.5 7.5q17.5 7.5 30 23.5q12.5 16 20 41.5q7.5 25.5 7.5 62.5q0 74 -28 105.5q-28 31.5 -67 31.5q-39 0 -66 -31.5q-27 -31.5 -27 -106.5q0 -73 27 -103.5t66 -30.5z" />
<glyph unicode="&#1103;" horiz-adv-x="519" d="M320 259v138h-53q-39 0 -58 -21.5q-19 -21.5 -19 -47.5q0 -27 19 -48q19 -21 58 -21zM292 156l-113 -156h-158l134 187q-53 17 -82 55.5q-29 38.5 -29 96.5q0 29 10.5 59q10.5 30 34.5 54.5q24 24.5 62.5 40q38.5 15.5 93.5 15.5h217v-508h-142l0 156z" />
<glyph unicode="&#48;" horiz-adv-x="601" d="M300 -10q-62 0 -111 22q-49 22 -82.5 69q-33.5 47 -51.5 119q-18 72 -18 173q0 101 18 174q18 73 51.5 120.5q33.5 47.5 82.5 70q49 22.5 111 22.5q62 0 111 -22.5q49 -22.5 83 -69.5q34 -47 52 -120q18 -73 18 -174q0 -101 -18 -173.5q-18 -72.5 -52 -119q-34 -46.5 -83 -69q-49 -22.5 -111 -22.5zt0 0zM300 126q61 0 87 62q26 62 26 186q0 124 -26 187q-26 63 -87 63q-61 0 -86 -63.5q-25 -63.5 -25 -187.5q0 -124 25 -185.5t86 -61.5z" />
<glyph unicode="&#49;" horiz-adv-x="377" d="M158 597l-146 -61v134l196 82h97v-752l-147 0z" />
<glyph unicode="&#50;" horiz-adv-x="510" d="M27 0v126l188 227q53 64 75 108.5q22 44.5 22 80.5q0 45 -20.5 67q-20.5 22 -71.5 22q-33 0 -79 -12.5q-46 -12.5 -87 -47.5l0 137q16 13 40 23q24 10 51 16.5q27 6.5 55.5 9.5q28.5 3 54.5 3q104 0 156 -52.5q52 -52.5 52 -150.5q0 -35 -9 -68q-9 -33 -27 -67q-18 -34 -45.5 -71q-27.5 -37 -64.5 -80l-113 -135h281l0 -136z" />
<glyph unicode="&#51;" horiz-adv-x="509" d="M208 -10q-48 0 -95.5 10q-47.5 10 -80.5 27l0 137q20 -11 38 -19.5q18 -8.5 37 -14q19 -5.5 40.5 -8.5q21.5 -3 47.5 -3q62 0 94 29q32 29 32 81q0 51 -30.5 78.5q-30.5 27.5 -85.5 27.5q-23 0 -41.5 -1.5q-18.5 -1.5 -40.5 -7.5l0 128q51 5 84.5 15q33.5 10 53.5 23.5q20 13.5 28 29.5q8 16 8 34q0 33 -20 54q-20 21 -70 21q-20 0 -42.5 -3q-22.5 -3 -44.5 -10q-22 -7 -42 -18q-20 -11 -36 -27l0 137q15 14 38 23.5q23 9.5 48.5 15.5q25.5 6 52.5 8.5q27 2.5 50 2.5q57 0 98 -13q41 -13 67.5 -36q26.5 -23 39 -55q12.5 -32 12.5 -69q0 -35 -11.5 -63q-11.5 -28 -30.5 -48.5q-19 -20.5 -43 -34.5q-24 -14 -48 -21l0 -7q71 -11 114.5 -60q43.5 -49 43.5 -123q0 -50 -13.5 -93.5q-13.5 -43.5 -44 -76q-30.5 -32.5 -81.5 -51.5t-126 -19z" />
<glyph unicode="&#52;" horiz-adv-x="549" d="M448 178v-188h-146v188h-300v98l302 476h144v-455h86v-119zM141 297h161v242l-6 0z" />
<glyph unicode="&#53;" horiz-adv-x="509" d="M203 -10q-21 0 -44.5 2.5q-23.5 2.5 -46.5 7q-23 4.5 -44.5 11.5q-21.5 7 -38.5 16l0 137q39 -23 81.5 -34q42.5 -11 82.5 -11q72 0 104 32.5q32 32.5 32 87.5q0 55 -40.5 85.5q-40.5 30.5 -115.5 30.5q-24 0 -44.5 -2q-20.5 -2 -35.5 -4q-18 -3 -33 -6l22 407h367v-136h-247l-7 -132h14q69 0 120 -18q51 -18 85 -50q34 -32 50.5 -76.5q16.5 -44.5 16.5 -98.5q0 -48 -15 -92.5q-15 -44.5 -48 -79.5q-33 -35 -86 -56t-129 -21z" />
<glyph unicode="&#54;" horiz-adv-x="597" d="M298 -10q-59 0 -106.5 18.5q-47.5 18.5 -81.5 58q-34 39.5 -52.5 101.5q-18.5 62 -18.5 148q0 121 24.5 206q24.5 85 68.5 137.5q44 52.5 106.5 76.5q62.5 24 139.5 24q45 0 78 -5q33 -5 61 -16l0 -130q-55 22 -120 22q-107 0 -158 -53q-51 -53 -56 -144l10 0q22 27 55 45q33 18 90 18q50 0 91 -18.5q41 -18.5 69.5 -51.5q28.5 -33 44 -79.5q15.5 -46.5 15.5 -102.5q0 -59 -17.5 -106q-17.5 -47 -51 -80q-33.5 -33 -82 -51q-48.5 -18 -109.5 -18zt0 0zM298 111q50 0 79.5 34q29.5 34 29.5 100q0 65 -30.5 98q-30.5 33 -78.5 33q-51 0 -79.5 -33.5q-28.5 -33.5 -28.5 -98.5q-1 -66 27.5 -99.5t80.5 -33.5z" />
<glyph unicode="&#55;" horiz-adv-x="477" d="M99 0q1 27 4 56.5q3 29.5 11.5 66q8.5 36.5 24.5 82q16 45.5 43 104.5l137 305h-297v136h450v-116l-156 -338q-27 -58 -41 -102.5q-14 -44.5 -20.5 -79.5q-6.5 -35 -8 -62.5q-1.5 -27.5 -1.5 -51.5z" />
<glyph unicode="&#56;" horiz-adv-x="588" d="M294 -10q-61 0 -110 15q-49 15 -83 43.5q-34 28.5 -52.5 69q-18.5 40.5 -18.5 92.5q0 66 31 114q31 48 97 75l0 8q-53 21 -78 64q-25 43 -25 94q0 41 15.5 76.5q15.5 35.5 45.5 62q30 26.5 74.5 41.5q44.5 15 103.5 15q61 0 105.5 -15q44.5 -15 74 -41q29.5 -26 44 -61.5q14.5 -35.5 14.5 -76.5q0 -52 -25 -95q-25 -43 -77 -64l0 -8q66 -27 97 -74.5q31 -47.5 31 -113.5q0 -105 -68 -163q-68 -58 -196 -58zt0 0zM294 456q37 0 61.5 23q24.5 23 24.5 72q0 48 -24.5 72q-24.5 24 -61.5 24q-38 0 -63 -24q-25 -24 -25 -72q0 -49 25 -72q25 -23 63 -23zt0 0zM294 103q49 0 80.5 30.5q31.5 30.5 31.5 86.5q0 60 -31.5 90q-31.5 30 -80.5 30q-49 0 -81 -30q-32 -30 -32 -90q0 -56 32 -86.5t81 -30.5z" />
<glyph unicode="&#57;" horiz-adv-x="597" d="M298 639q-50 0 -79 -34q-29 -34 -29 -100q0 -65 30 -98q30 -33 78 -33q53 0 80.5 33.5q27.5 33.5 28.5 98.5q1 66 -27 99.5q-28 33.5 -82 33.5zt0 0zM236 118q92 0 132.5 53q40.5 53 46.5 147l-10 0q-23 -34 -55.5 -49.5q-32.5 -15.5 -88.5 -15.5q-103 0 -162.5 65.5q-59.5 65.5 -59.5 186.5q0 59 18 106q18 47 51.5 80q33.5 33 81.5 51q48 18 109 18q61 0 109 -18.5q48 -18.5 81.5 -59.5q33.5 -41 51 -105.5q17.5 -64.5 17.5 -157.5q0 -128 -22.5 -211q-22.5 -83 -64.5 -131.5q-42 -48.5 -102 -67.5q-60 -19 -134 -19q-16 0 -36 1q-20 1 -40.5 4q-20.5 3 -40.5 8q-20 5 -37 13l0 134q33 -17 69.5 -24.5t85.5 -7.5z" />
<glyph unicode="&#95;" horiz-adv-x="519" d="M0 -40h519v-101l-519 0z" />
<glyph unicode="&#45;" horiz-adv-x="389" d="M48 330h294v-101l-294 0z" />
<glyph unicode="&#8211;" horiz-adv-x="649" d="M48 330h554v-101l-554 0z" />
<glyph unicode="&#8212;" horiz-adv-x="849" d="M48 330h754v-101l-754 0z" />
<glyph unicode="&#40;" horiz-adv-x="383" d="M186 303q0 -101 16.5 -176.5q16.5 -75.5 43 -128q26.5 -52.5 60 -84.5q33.5 -32 67.5 -45l0 -108q-53 14 -111.5 52q-58.5 38 -108 103.5q-49.5 65.5 -81.5 161q-32 95.5 -32 225.5q0 130 32 227q32 97 81.5 164q49.5 67 108 106q58.5 39 111.5 53l0 -109q-34 -14 -67.5 -46q-33.5 -32 -60 -86q-26.5 -54 -43 -130.5t-16.5 -178.5z" />
<glyph unicode="&#41;" horiz-adv-x="383" d="M197 307q0 102 -16.5 178q-16.5 76 -43 129.5q-26.5 53.5 -60 85q-33.5 31.5 -67.5 44.5l0 109q53 -14 112 -52.5q59 -38.5 108 -104.5q49 -66 81 -162.5q32 -96.5 32 -226.5q0 -131 -32 -227.5q-32 -96.5 -81 -162.5q-49 -66 -108 -104q-59 -38 -112 -52l0 108q34 13 67.5 45q33.5 32 60 85q26.5 53 43 129t16.5 179z" />
<glyph unicode="&#91;" horiz-adv-x="366" d="M80 -230v1075h276v-108h-130v-859h130l0 -108z" />
<glyph unicode="&#93;" horiz-adv-x="366" d="M10 -122h130v859h-130v108h276v-1075l-276 0z" />
<glyph unicode="&#123;" horiz-adv-x="426" d="M416 -240q-81 0 -135.5 11q-54.5 11 -88 40q-33.5 29 -47.5 79.5q-14 50.5 -14 129.5v121q0 15 -3.5 33q-3.5 18 -13 34.5q-9.5 16.5 -27.5 28.5q-18 12 -47 15l0 121q29 6 46.5 16q17.5 10 27.5 25q10 15 13 35.5q3 20.5 3 47.5v139q0 63 14 103.5q14 40.5 47.5 64q33.5 23.5 88.5 32.5q55 9 136 9l0 -108q-52 0 -80 -6.5q-28 -6.5 -41.5 -25q-13.5 -18.5 -16 -52q-2.5 -33.5 -2.5 -86.5v-108q0 -26 -1.5 -49.5q-1.5 -23.5 -9 -42q-7.5 -18.5 -23.5 -32q-16 -13.5 -45 -20.5l0 -5q28 -6 44.5 -20q16.5 -14 24 -31.5q7.5 -17.5 9.5 -38q2 -20.5 2 -40.5v-81q0 -64 2.5 -108q2.5 -44 15.5 -71.5q13 -27.5 41 -39.5q28 -12 80 -12l0 -108z" />
<glyph unicode="&#125;" horiz-adv-x="426" d="M10 -132q52 0 80 12q28 12 41 39.5q13 27.5 15.5 71.5q2.5 44 2.5 108v81q0 20 2.5 40.5q2.5 20.5 10.5 38.5q8 18 24 31.5q16 13.5 43 19.5l0 5q-27 6 -43 19.5q-16 13.5 -24 32.5q-8 19 -10 42.5q-2 23.5 -2 49.5v108q0 53 -2.5 86.5q-2.5 33.5 -16 52q-13.5 18.5 -41.5 25q-28 6.5 -80 6.5l0 108q81 0 136 -9q55 -9 88.5 -32.5q33.5 -23.5 47.5 -64q14 -40.5 14 -103.5v-139q0 -27 3 -47.5q3 -20.5 13 -35.5q10 -15 27.5 -25q17.5 -10 46.5 -16l0 -121q-29 -3 -47 -15q-18 -12 -28 -28.5q-10 -16.5 -13 -34.5q-3 -18 -3 -33v-121q0 -79 -14 -129.5q-14 -50.5 -47.5 -79.5q-33.5 -29 -88 -40q-54.5 -11 -135.5 -11z" />
<glyph unicode="&#35;" horiz-adv-x="781" d="M468 428h-126l-34 -127h126zM403 185h-126l-49 -185h-133l49 185h-113l28 116h116l34 127h-116l29 116h118l55 206h133l-55 -206h126l55 206h133l-55 -206h117l-28 -116h-120l-34 -127h119l-27 -116h-123l-49 -185l-133 0z" />
<glyph unicode="&#37;" horiz-adv-x="916" d="M226 379q-42 0 -78.5 12.5q-36.5 12.5 -63.5 36q-27 23.5 -42 58q-15 34.5 -15 78.5q0 44 15 79q15 35 42 59q27 24 63.5 37q36.5 13 78.5 13q42 0 78 -12.5q36 -12.5 62.5 -36.5q26.5 -24 42 -59q15.5 -35 15.5 -79q0 -44 -15 -78.5q-15 -34.5 -42 -58.5q-27 -24 -63 -36.5q-36 -12.5 -78 -12.5zt0 0zM226 486q27 0 46.5 18.5q19.5 18.5 19.5 60.5q0 42 -20 61q-20 19 -46 19q-29 0 -48 -19.5q-19 -19.5 -19 -61.5q0 -40 19 -59q19 -19 48 -19zt0 0zM615 750h148l-462 -750h-148zM691 -10q-42 0 -78.5 12.5q-36.5 12.5 -63.5 36.5q-27 24 -42 58.5q-15 34.5 -15 78.5q0 44 15 79q15 35 42 59q27 24 63.5 37q36.5 13 78.5 13q42 0 78 -12.5q36 -12.5 62.5 -36.5q26.5 -24 42 -59q15.5 -35 15.5 -79q0 -44 -15 -79q-15 -35 -42 -59q-27 -24 -63 -36.5q-36 -12.5 -78 -12.5zt0 0zM691 97q27 0 46.5 19q19.5 19 19.5 61q0 41 -20 60.5q-20 19.5 -46 19.5q-29 0 -48 -20q-19 -20 -19 -61q0 -41 19 -60t48 -19z" />
<glyph unicode="&#39;" horiz-adv-x="294" d="M224 750l-10 -241h-135l-9 241z" />
<glyph unicode="&#34;" horiz-adv-x="493" d="M423 750l-10 -241h-135l-9 241zM224 750l-10 -241h-135l-9 241z" />
<glyph unicode="&#8216;" horiz-adv-x="279" d="M207 760l-42 -133q28 -8 44 -30.5q16 -22.5 16 -52.5q0 -36 -24.5 -61.5q-24.5 -25.5 -61.5 -25.5q-27 0 -45.5 11.5q-18.5 11.5 -28.5 30.5q-10 19 -11.5 42q-1.5 23 7.5 47l63 172z" />
<glyph unicode="&#8217;" horiz-adv-x="279" d="M72 458l42 133q-28 8 -44 30.5q-16 22.5 -16 52.5q0 36 24.5 61.5q24.5 25.5 61.5 25.5q27 0 45.5 -11.5q18.5 -11.5 28.5 -30.5q10 -19 11.5 -42q1.5 -23 -7.5 -47l-63 -172z" />
<glyph unicode="&#8220;" horiz-adv-x="486" d="M414 760l-42 -133q28 -8 44 -30.5q16 -22.5 16 -52.5q0 -36 -24.5 -61.5q-24.5 -25.5 -61.5 -25.5q-27 0 -45.5 11.5q-18.5 11.5 -28.5 30.5q-10 19 -11.5 42q-1.5 23 7.5 47l63 172zM207 760l-42 -133q28 -8 44 -30.5q16 -22.5 16 -52.5q0 -36 -24.5 -61.5q-24.5 -25.5 -61.5 -25.5q-27 0 -45.5 11.5q-18.5 11.5 -28.5 30.5q-10 19 -11.5 42q-1.5 23 7.5 47l63 172z" />
<glyph unicode="&#8221;" horiz-adv-x="486" d="M72 458l42 133q-28 8 -44 30.5q-16 22.5 -16 52.5q0 36 24.5 61.5q24.5 25.5 61.5 25.5q27 0 45.5 -11.5q18.5 -11.5 28.5 -30.5q10 -19 11.5 -42q1.5 -23 -7.5 -47l-63 -172zM278 458l42 133q-28 8 -44 30.5q-16 22.5 -16 52.5q0 36 24.5 61.5q24.5 25.5 61.5 25.5q27 0 45.5 -11.5q18.5 -11.5 28.5 -30.5q10 -19 11.5 -42q1.5 -23 -7.5 -47l-63 -172z" />
<glyph unicode="&#8218;" horiz-adv-x="279" d="M72 -143l42 133q-28 8 -44 30.5q-16 22.5 -16 52.5q0 36 24.5 61.5q24.5 25.5 61.5 25.5q27 0 45.5 -11.5q18.5 -11.5 28.5 -30.5q10 -19 11.5 -42q1.5 -23 -7.5 -47l-63 -172z" />
<glyph unicode="&#8222;" horiz-adv-x="486" d="M278 -143l42 133q-28 8 -44 30.5q-16 22.5 -16 52.5q0 36 24.5 61.5q24.5 25.5 61.5 25.5q27 0 45.5 -11.5q18.5 -11.5 28.5 -30.5q10 -19 11.5 -42q1.5 -23 -7.5 -47l-63 -172zM72 -143l42 133q-28 8 -44 30.5q-16 22.5 -16 52.5q0 36 24.5 61.5q24.5 25.5 61.5 25.5q27 0 45.5 -11.5q18.5 -11.5 28.5 -30.5q10 -19 11.5 -42q1.5 -23 -7.5 -47l-63 -172z" />
<glyph unicode="&#8249;" horiz-adv-x="287" d="M25 233v81l215 181v-152l-92 -69l93 -70l0 -152z" />
<glyph unicode="&#8250;" horiz-adv-x="287" d="M46 203l92 70l-93 69v153l216 -181v-81l-215 -181z" />
<glyph unicode="&#171;" horiz-adv-x="466" d="M28 229v73l200 208v-134l-97 -104l98 -96v-155zM223 229v73l195 203v-134l-95 -103l95 -101l0 -140z" />
<glyph unicode="&#187;" horiz-adv-x="466" d="M238 155l97 105l-98 95v155l201 -208v-73l-200 -208zM48 161l94 102l-94 101v141l195 -203v-73l-195 -203z" />
<glyph unicode="&#42;" horiz-adv-x="444" d="M362 441l-98 71l21 -128h-122l21 127l-102 -70l-49 93l121 41l-120 40l47 90l104 -71l-23 126h124l-22 -128l98 73l49 -90l-118 -40l117 -41z" />
<glyph unicode="&#46;" horiz-adv-x="281" d="M140 -14q-37 0 -61.5 25.5q-24.5 25.5 -24.5 61.5q0 36 24.5 61.5q24.5 25.5 61.5 25.5q17 0 33 -7q16 -7 28 -18.5q12 -11.5 19 -27.5q7 -16 7 -34q0 -18 -7 -34q-7 -16 -19 -27.5q-12 -11.5 -28 -18.5t-33 -7z" />
<glyph unicode="&#44;" horiz-adv-x="279" d="M72 -143l42 133q-28 8 -44 30.5q-16 22.5 -16 52.5q0 36 24.5 61.5q24.5 25.5 61.5 25.5q27 0 45.5 -11.5q18.5 -11.5 28.5 -30.5q10 -19 11.5 -42q1.5 -23 -7.5 -47l-63 -172z" />
<glyph unicode="&#58;" horiz-adv-x="281" d="M140 322q-37 0 -61.5 25.5q-24.5 25.5 -24.5 61.5q0 36 24.5 61.5q24.5 25.5 61.5 25.5q17 0 33 -7q16 -7 28 -18.5q12 -11.5 19 -27.5q7 -16 7 -34q0 -18 -7 -34q-7 -16 -19 -27.5q-12 -11.5 -28 -18.5q-16 -7 -33 -7zt0 0zM140 -14q-37 0 -61.5 25.5q-24.5 25.5 -24.5 61.5q0 36 24.5 61.5q24.5 25.5 61.5 25.5q17 0 33 -7q16 -7 28 -18.5q12 -11.5 19 -27.5q7 -16 7 -34q0 -18 -7 -34q-7 -16 -19 -27.5q-12 -11.5 -28 -18.5t-33 -7z" />
<glyph unicode="&#59;" horiz-adv-x="281" d="M140 322q-37 0 -61.5 25.5q-24.5 25.5 -24.5 61.5q0 36 24.5 61.5q24.5 25.5 61.5 25.5q17 0 33 -7q16 -7 28 -18.5q12 -11.5 19 -27.5q7 -16 7 -34q0 -18 -7 -34q-7 -16 -19 -27.5q-12 -11.5 -28 -18.5q-16 -7 -33 -7zt0 0zM72 -143l42 133q-28 8 -44 30.5q-16 22.5 -16 52.5q0 36 24.5 61.5q24.5 25.5 61.5 25.5q27 0 45.5 -11.5q18.5 -11.5 28.5 -30.5q10 -19 11.5 -42q1.5 -23 -7.5 -47l-63 -172z" />
<glyph unicode="&#8230;" horiz-adv-x="732" d="M591 -14q-37 0 -61.5 25.5q-24.5 25.5 -24.5 61.5q0 36 24.5 61.5q24.5 25.5 61.5 25.5q17 0 33 -7q16 -7 28 -18.5q12 -11.5 19 -27.5q7 -16 7 -34q0 -18 -7 -34q-7 -16 -19 -27.5q-12 -11.5 -28 -18.5q-16 -7 -33 -7zt0 0zM365 -14q-37 0 -61.5 25.5q-24.5 25.5 -24.5 61.5q0 36 24.5 61.5q24.5 25.5 61.5 25.5q17 0 33 -7q16 -7 28 -18.5q12 -11.5 19 -27.5q7 -16 7 -34q0 -18 -7 -34q-7 -16 -19 -27.5q-12 -11.5 -28 -18.5q-16 -7 -33 -7zt0 0zM140 -14q-37 0 -61.5 25.5q-24.5 25.5 -24.5 61.5q0 36 24.5 61.5q24.5 25.5 61.5 25.5q17 0 33 -7q16 -7 28 -18.5q12 -11.5 19 -27.5q7 -16 7 -34q0 -18 -7 -34q-7 -16 -19 -27.5q-12 -11.5 -28 -18.5t-33 -7z" />
<glyph unicode="&#33;" horiz-adv-x="304" d="M234 750l-29 -499h-110l-28 499zM152 -14q-37 0 -61.5 25.5q-24.5 25.5 -24.5 61.5q0 36 24.5 61.5q24.5 25.5 61.5 25.5q17 0 33 -7q16 -7 28 -18.5q12 -11.5 19 -27.5q7 -16 7 -34q0 -18 -7 -34q-7 -16 -19 -27.5q-12 -11.5 -28 -18.5t-33 -7z" />
<glyph unicode="&#63;" horiz-adv-x="481" d="M211 627q-48 0 -89.5 -14q-41.5 -14 -79.5 -46l0 141q16 13 38.5 23q22.5 10 48 16.5q25.5 6.5 53.5 9.5q28 3 56 3q101 0 157 -44q56 -44 56 -132q0 -43 -14 -74.5q-14 -31.5 -35 -54q-21 -22.5 -45.5 -38.5q-24.5 -16 -45.5 -29q-21 -13 -35 -24.5q-14 -11.5 -14 -25.5q0 -16 15.5 -23.5q15.5 -7.5 36.5 -7.5l0 -103q-94 0 -146 26.5q-52 26.5 -52 90.5q0 32 13.5 55.5q13.5 23.5 34 41.5q20.5 18 44.5 32.5q24 14.5 44.5 29.5q20.5 15 34 32.5q13.5 17.5 13.5 40.5q0 74 -89 74zt0 0zM226 -14q-37 0 -61.5 25.5q-24.5 25.5 -24.5 61.5q0 36 24.5 61.5q24.5 25.5 61.5 25.5q17 0 33 -7q16 -7 28 -18.5q12 -11.5 19 -27.5q7 -16 7 -34q0 -18 -7 -34q-7 -16 -19 -27.5q-12 -11.5 -28 -18.5t-33 -7z" />
<glyph unicode="&#47;" horiz-adv-x="516" d="M360 825h136l-340 -1065l-136 0z" />
<glyph unicode="&#92;" horiz-adv-x="518" d="M360 -240l-340 1065h138l340 -1065z" />
<glyph unicode="&#124;" horiz-adv-x="336" d="M100 817h136v-1057l-136 0z" />
<glyph unicode="&#64;" horiz-adv-x="1072" d="M751 -221q-32 -19 -87 -29.5q-55 -10.5 -111 -10.5q-54 0 -112.5 8q-58.5 8 -115 28q-56.5 20 -107.5 55.5q-51 35.5 -89.5 90.5q-38.5 55 -61 131.5q-22.5 76.5 -22.5 180.5q0 136 41.5 234q41.5 98 112 160.5q70.5 62.5 162 92q91.5 29.5 192.5 29.5q107 0 194.5 -29.5q87.5 -29.5 149.5 -87q62 -57.5 96 -142q34 -84.5 34 -193.5q0 -150 -64.5 -228.5q-64.5 -78.5 -174.5 -78.5q-44 0 -72.5 8.5q-28.5 8.5 -46.5 22q-18 13.5 -28 30.5q-10 17 -18 34l-7 0q-20 -40 -52.5 -67.5q-32.5 -27.5 -90.5 -27.5q-86 0 -133 57q-47 57 -47 186q0 125 50.5 185q50.5 60 132.5 60q56 0 86.5 -23q30.5 -23 45.5 -58l7 0v71h136v-250q0 -32 4.5 -51q4.5 -19 12.5 -30q8 -11 18.5 -14.5q10.5 -3.5 23.5 -3.5q20 0 33.5 12q13.5 12 22 33q8.5 21 12 48.5q3.5 27.5 3.5 58.5q0 102 -28.5 168.5q-28.5 66.5 -74.5 104.5q-46 38 -105 53q-59 15 -120 15q-59 0 -123 -16q-64 -16 -117 -58q-53 -42 -87.5 -116q-34.5 -74 -34.5 -189q0 -85 20 -144.5q20 -59.5 52.5 -99.5q32.5 -40 72.5 -62.5q40 -22.5 80.5 -34q40.5 -11.5 76.5 -14.5q36 -3 60 -3q21 0 48 2.5q27 2.5 54.5 7.5q27.5 5 53 12.5q25.5 7.5 42.5 18.5zM532 121q15 0 29.5 4q14.5 4 25 14.5q10.5 10.5 17 29.5q6.5 19 6.5 48v46q0 38 -19.5 60.5q-19.5 22.5 -57.5 22.5q-42 0 -67.5 -27q-25.5 -27 -25.5 -86q0 -60 26 -86t66 -26z" />
<glyph unicode="&#38;" horiz-adv-x="717" d="M622 -10q-24 16 -48.5 33q-24.5 17 -48.5 34q-42 -32 -95 -49.5q-53 -17.5 -119 -17.5q-56 0 -104.5 11.5q-48.5 11.5 -84.5 36q-36 24.5 -56.5 62.5q-20.5 38 -20.5 92q0 65 36 110.5q36 45.5 98 82.5q-34 42 -55 83q-21 41 -21 96q0 43 13.5 79q13.5 36 40.5 62q27 26 67 40.5q40 14.5 94 14.5q56 0 96 -13q40 -13 66 -37q26 -24 38 -56.5q12 -32.5 12 -71.5q0 -61 -39.5 -110q-39.5 -49 -120.5 -99l9 -9q34 -38 68 -70q34 -32 69 -62q25 57 26 130l125 0q-2 -55 -15 -107q-13 -52 -39 -97l83 -57zM242 569q0 -31 16 -59.5q16 -28.5 42 -59.5q48 33 69.5 63q21.5 30 21.5 65q0 29 -19.5 49q-19.5 20 -54.5 20q-33 0 -54 -20q-21 -20 -21 -58zt0 0zM322 103q60 0 108 28q-52 43 -98.5 87q-46.5 44 -84.5 87q-58 -42 -58 -100q0 -43 32 -72.5t101 -29.5z" />
<glyph unicode="&#183;" horiz-adv-x="283" d="M141 198q-37 0 -61.5 25.5q-24.5 25.5 -24.5 61.5q0 36 24.5 61.5q24.5 25.5 61.5 25.5q17 0 33 -7q16 -7 28 -18.5q12 -11.5 19 -27.5q7 -16 7 -34q0 -18 -7 -34q-7 -16 -19 -27.5q-12 -11.5 -28 -18.5t-33 -7z" />
<glyph unicode="&#8226;" horiz-adv-x="348" d="M174 175q-25 0 -46.5 9.5q-21.5 9.5 -37.5 25.5q-16 16 -25.5 37.5q-9.5 21.5 -9.5 45.5q0 25 9.5 47q9.5 22 25.5 38.5q16 16.5 37.5 25.5q21.5 9 46.5 9q25 0 47 -9q22 -9 38 -25.5q16 -16.5 25 -38.5q9 -22 9 -47q0 -24 -9 -45.5q-9 -21.5 -25 -37.5q-16 -16 -38 -25.5t-47 -9.5z" />
<glyph unicode="&#43;" horiz-adv-x="555" d="M336 296v-179h-117v179h-159v117h159v166h117v-166h159l0 -117z" />
<glyph unicode="&#8722;" horiz-adv-x="534" d="M60 413h414v-117l-414 0z" />
<glyph unicode="&#61;" horiz-adv-x="535" d="M60 514h415v-116h-415zM60 311h415v-116l-415 0z" />
<glyph unicode="&#60;" horiz-adv-x="466" d="M30 318v81l375 209v-134l-205 -115l206 -114l0 -135z" />
<glyph unicode="&#62;" horiz-adv-x="466" d="M60 241l207 115l-206 114v138l375 -209v-81l-376 -208z" />
<glyph unicode="&#36;" horiz-adv-x="505" d="M192 -87v78q-37 3 -80 13q-43 10 -80 34l0 147q51 -34 101 -49.5q50 -15.5 94 -15.5q45 0 70 17.5q25 17.5 25 58.5q0 20 -7.5 35q-7.5 15 -22 27.5q-14.5 12.5 -35.5 24q-21 11.5 -49 25.5q-43 22 -74.5 45q-31.5 23 -52.5 51q-21 28 -31 63q-10 35 -10 80q0 45 12 79q12 34 33 58.5q21 24.5 48.5 40q27.5 15.5 58.5 23.5l0 80h136v-70q36 -2 68 -9q32 -7 51 -21l0 -136q-27 20 -68 29.5q-41 9.5 -86 9.5q-44 0 -73 -21q-29 -21 -29 -62q0 -24 10 -41q10 -17 26 -30.5q16 -13.5 37 -25.5q21 -12 44 -24q40 -22 71 -44.5q31 -22.5 52 -48.5q21 -26 31.5 -58.5q10.5 -32.5 10.5 -74.5q0 -71 -34 -125q-34 -54 -111 -75l0 -88z" />
<glyph unicode="&#162;" horiz-adv-x="442" d="M407 15q-10 -8 -31.5 -14q-21.5 -6 -48.5 -9l0 -79h-131v89q-80 23 -122 87q-42 64 -42 163q0 98 44.5 163.5q44.5 65.5 119.5 89.5l0 116h131v-105q22 -3 41 -8.5q19 -5.5 36 -14.5l0 -136q-23 16 -50.5 22.5q-27.5 6.5 -54.5 6.5q-54 0 -87 -32.5q-33 -32.5 -33 -101.5q0 -69 33.5 -100q33.5 -31 89.5 -31q28 0 56.5 7.5q28.5 7.5 48.5 24.5l0 -138z" />
<glyph unicode="&#163;" horiz-adv-x="528" d="M500 0h-475v116q25 20 40.5 41q15.5 21 24.5 44q9 23 13 49q4 26 4 56l-77 0v113h77v106q0 55 13.5 99q13.5 44 42.5 74q29 30 75.5 46q46.5 16 112.5 16q36 0 71 -6q35 -6 58 -17l0 -144q-21 15 -52 23q-31 8 -65 8q-52 0 -78 -30q-26 -30 -26 -96v-79h164v-113h-164q-2 -62 -13 -101.5q-11 -39.5 -32 -68.5l286 0z" />
<glyph unicode="&#165;" horiz-adv-x="591" d="M375 132v-132h-147v132h-153v106h153v66h-153v105h101l-174 341h169l140 -285h4l134 285h140l-164 -341h103v-105h-153v-66h153l0 -106z" />
<glyph unicode="&#8364;" horiz-adv-x="651" d="M618 27q-35 -20 -74.5 -28.5q-39.5 -8.5 -78.5 -8.5q-67 0 -119.5 18q-52.5 18 -91 51q-38.5 33 -64 79.5q-25.5 46.5 -38.5 104.5l-136 0l50 105h73v27q0 8 0 16q0 8 1 16l-124 0l50 105h89q14 56 40.5 101.5q26.5 45.5 65.5 78q39 32.5 90 50.5q51 18 114 18q38 0 77.5 -7q39.5 -7 65.5 -18l0 -128q-24 12 -54.5 18.5q-30.5 6.5 -72.5 6.5q-54 0 -99 -28.5q-45 -28.5 -69 -91.5l251 0l-46 -105h-226q-1 -8 -1 -16q0 -8 0 -16q0 -7 0 -13.5q0 -6.5 1 -13.5l203 0l-47 -105h-140q22 -69 67.5 -96q45.5 -27 105.5 -27q26 0 61.5 4.5q35.5 4.5 75.5 30.5l0 -128z" />
<glyph unicode="&#94;" horiz-adv-x="527" d="M264 568l-103 -206h-133l196 388h80l196 -388l-134 0z" />
<glyph unicode="&#126;" horiz-adv-x="565" d="M530 445q-1 -52 -11.5 -88q-10.5 -36 -28.5 -58.5q-18 -22.5 -42.5 -32.5q-24.5 -10 -53.5 -10q-43 0 -69.5 12.5q-26.5 12.5 -47 28q-20.5 15.5 -39 28q-18.5 12.5 -45.5 12.5q-23 0 -37.5 -17q-14.5 -17 -16.5 -49l-104 0q2 97 42.5 142.5q40.5 45.5 107.5 45.5q39 0 66 -12.5q27 -12.5 48 -28q21 -15.5 39.5 -28q18.5 -12.5 40.5 -12.5q21 0 33 14.5q12 14.5 13 52.5z" />
<glyph unicode="&#180;" horiz-adv-x="409" d="M157 728h197l-154 -159l-130 0z" />
<glyph unicode="&#96;" horiz-adv-x="393" d="M201 569l-141 159h214l54 -159z" />
<glyph unicode="&#710;" horiz-adv-x="571" d="M345 728l131 -161h-134l-57 64h-5l-57 -64h-135l131 161z" />
<glyph unicode="&#732;" horiz-adv-x="374" d="M50 699q7 12 24 23q17 11 47 11q20 0 38 -5.5q18 -5.5 34.5 -12q16.5 -6.5 33 -12q16.5 -5.5 34.5 -5.5q20 0 36.5 8.5q16.5 8.5 26.5 31.5l0 -124q-17 -35 -63 -35q-22 0 -40 5.5q-18 5.5 -35.5 12.5q-17.5 7 -34 12.5q-16.5 5.5 -35.5 5.5q-22 0 -38.5 -10.5q-16.5 -10.5 -27.5 -29.5z" />
<glyph unicode="&#168;" horiz-adv-x="510" d="M362 579q-17 0 -32.5 6.5q-15.5 6.5 -27 17.5q-11.5 11 -18 26q-6.5 15 -6.5 33q0 34 24.5 58.5q24.5 24.5 59.5 24.5q34 0 58.5 -24.5q24.5 -24.5 24.5 -58.5q0 -18 -6.5 -33q-6.5 -15 -18 -26q-11.5 -11 -26.5 -17.5q-15 -6.5 -32 -6.5zt0 0zM146 579q-37 0 -60 24q-23 24 -23 59q0 34 23 58.5q23 24.5 60 24.5q16 0 31 -6.5q15 -6.5 26.5 -18q11.5 -11.5 18.5 -26.5q7 -15 7 -32q0 -18 -7 -33q-7 -15 -18.5 -26q-11.5 -11 -26.5 -17.5t-31 -6.5z" />
<glyph unicode="&#730;" horiz-adv-x="408" d="M204 549q-54 0 -89 29.5q-35 29.5 -35 80.5q0 51 35 79q35 28 89 28q23 0 45.5 -7.5q22.5 -7.5 40 -21q17.5 -13.5 28 -33.5q10.5 -20 10.5 -45q0 -26 -10.5 -46q-10.5 -20 -28 -34.5q-17.5 -14.5 -40 -22q-22.5 -7.5 -45.5 -7.5zt0 0zM205 626q16 0 27.5 8q11.5 8 11.5 25q0 15 -11.5 23q-11.5 8 -27.5 8q-17 0 -28 -8q-11 -8 -11 -23q0 -17 11 -25t28 -8z" />
<glyph unicode="&#184;" horiz-adv-x="379" d="M211 -27q40 -5 64.5 -26.5q24.5 -21.5 24.5 -65.5q0 -42 -28 -66.5q-28 -24.5 -93 -24.5q-29 0 -55.5 5q-26.5 5 -46.5 17l0 84q16 -14 34 -20q18 -6 38 -6q33 0 33 25q0 16 -14 22q-14 6 -43 6l0 77h86l0 -27z" />
<glyph unicode="&#169;" horiz-adv-x="844" d="M422 -10q-78 0 -148 25q-70 25 -122.5 73.5q-52.5 48.5 -83.5 120.5q-31 72 -31 166q0 94 31 165.5q31 71.5 83.5 120.5q52.5 49 122.5 74q70 25 148 25q77 0 147 -25q70 -25 123 -74q53 -49 84 -120.5q31 -71.5 31 -165.5q0 -94 -31 -166q-31 -72 -84 -120.5q-53 -48.5 -123 -73.5q-70 -25 -147 -25zt0 0zM421 93q58 0 108 18q50 18 86 54q36 36 56.5 88.5q20.5 52.5 20.5 121.5q0 64 -20.5 116.5q-20.5 52.5 -56.5 89q-36 36.5 -86 56.5q-50 20 -108 20q-57 0 -106.5 -18q-49.5 -18 -86 -54q-36.5 -36 -58 -88.5q-21.5 -52.5 -21.5 -121.5q0 -69 22 -121.5q22 -52.5 59 -88.5q37 -36 86.5 -54q49.5 -18 104.5 -18zt0 0zM444 161q-100 0 -153.5 55.5q-53.5 55.5 -53.5 156.5q0 50 15 90q15 40 42 68q27 28 64.5 43q37.5 15 82.5 15q31 0 55 -4.5q24 -4.5 44 -15.5l0 -119q-19 13 -41 18.5q-22 5.5 -44 5.5q-41 0 -66 -24.5q-25 -24.5 -25 -76.5q0 -53 25 -75q25 -22 67 -22q23 0 46.5 6q23.5 6 40.5 20l0 -121q-11 -8 -38.5 -14t-60.5 -6z" />
<glyph unicode="&#174;" horiz-adv-x="661" d="M330 203q-56 0 -106.5 18q-50.5 18 -88.5 53q-38 35 -60.5 87q-22.5 52 -22.5 120q0 68 22.5 120q22.5 52 60.5 87.5q38 35.5 88.5 53.5q50.5 18 106.5 18q56 0 106.5 -18q50.5 -18 89 -53.5q38.5 -35.5 61 -87.5q22.5 -52 22.5 -120q0 -68 -22.5 -120q-22.5 -52 -61 -87q-38.5 -35 -89 -53q-50.5 -18 -106.5 -18zt0 0zM330 287q88 0 140 55l-90 0l-62 98h-13v-98h-81v285h121q30 0 51 -7q21 -7 33.5 -19q12.5 -12 18.5 -28q6 -16 6 -34q0 -24 -12 -49q-12 -25 -39 -37l70 -108q21 25 32.5 58.5q11.5 33.5 11.5 77.5q0 45 -14 81q-14 36 -38.5 60.5q-24.5 24.5 -59 39q-34.5 14.5 -75.5 14.5q-39 0 -72.5 -13q-33.5 -13 -59 -37.5q-25.5 -24.5 -40 -60.5q-14.5 -36 -14.5 -84q0 -48 15 -84q15 -36 40.5 -60.5q25.5 -24.5 59 -37q33.5 -12.5 71.5 -12.5zt0 0zM327 497q17 0 29 9q12 9 12 28q0 20 -12 27.5q-12 7.5 -29 7.5h-22l0 -72z" />
<glyph unicode="&#8482;" horiz-adv-x="733" d="M98 658h-88v92h277v-92h-88v-208h-101zM407 450h-90v300h140l52 -171l56 171h131v-300h-101v180h-1l-58 -180h-69l-58 180l-2 0z" />
<glyph unicode="&#176;" horiz-adv-x="355" d="M178 482q-65 0 -107 37.5q-42 37.5 -42 106.5q0 69 42 105.5q42 36.5 107 36.5q28 0 54.5 -9.5q26.5 -9.5 47.5 -27.5q21 -18 33.5 -44.5q12.5 -26.5 12.5 -60.5q0 -34 -12.5 -61q-12.5 -27 -33.5 -45.5q-21 -18.5 -47.5 -28q-26.5 -9.5 -54.5 -9.5zt0 0zM179 570q21 0 36 13.5q15 13.5 15 42.5q0 27 -15 40.5q-15 13.5 -36 13.5q-21 0 -36 -13q-15 -13 -15 -41q0 -29 15 -42.5t36 -13.5z" />
<glyph unicode="&#8381;" horiz-adv-x="607" d="M254 134v-134h-147v134h-85v107h85v57h-85v106h85v346h225q70 0 119 -19.5q49 -19.5 80 -51q31 -31.5 44.5 -71.5q13.5 -40 13.5 -82q0 -43 -14 -84q-14 -41 -45 -73.5q-31 -32.5 -80 -52q-49 -19.5 -118 -19.5h-78v-56h202v-107zM319 404q24 0 46 6.5q22 6.5 38 20q16 13.5 25.5 35q9.5 21.5 9.5 51.5q0 27 -9.5 46q-9.5 19 -25.5 31q-16 12 -38 17.5q-22 5.5 -46 5.5h-65l0 -213z" />
<glyph unicode="&#160;" horiz-adv-x="248" />
<glyph unicode="&#65279;" horiz-adv-x="0" />
<glyph unicode="&#173;" horiz-adv-x="389" d="M48 330h294v-101l-294 0z" />
</font>
</defs>
</svg>
