<svg width="26" height="26" viewBox="0 0 26 26" fill="none" xmlns="http://www.w3.org/2000/svg">
<path d="M19.0919 19.0919C15.5827 22.6011 9.87319 22.6011 6.36396 19.0919C2.85473 15.5826 2.85473 9.87317 6.36396 6.36394C9.87319 2.85472 15.5827 2.85472 19.0919 6.36394C22.6011 9.87317 22.6011 15.5826 19.0919 19.0919ZM7.15946 7.15944C4.08886 10.23 4.08886 15.2258 7.15946 18.2964C10.2301 21.367 15.2258 21.367 18.2964 18.2964C21.367 15.2258 21.367 10.23 18.2964 7.15944C15.2258 4.08884 10.2301 4.08884 7.15946 7.15944Z" fill="white"/>
<path d="M15.9101 10.3415L10.3417 15.91C10.1221 16.1295 9.76574 16.1295 9.54619 15.91C9.32663 15.6904 9.32663 15.334 9.54619 15.1145L15.1147 9.54599C15.3342 9.32644 15.6906 9.32644 15.9101 9.54599C16.1297 9.76555 16.1297 10.1219 15.9101 10.3415Z" fill="white"/>
<path d="M15.9101 15.9099C15.6906 16.1295 15.3342 16.1295 15.1147 15.9099L9.54619 10.3415C9.32663 10.1219 9.32663 9.76554 9.54619 9.54598C9.76574 9.32642 10.1221 9.32642 10.3417 9.54598L15.9101 15.1144C16.1297 15.334 16.1297 15.6904 15.9101 15.9099Z" fill="white"/>
</svg>
