<svg width="220" height="108" viewBox="0 0 220 108" fill="none" xmlns="http://www.w3.org/2000/svg">
<rect y="24.3275" width="211.681" height="84.1806" transform="rotate(-6.59932 0 24.3275)" fill="#1F2229"/>
<path d="M36.3871 87.4246L36.0009 84.0869L34.6181 84.2469L33.98 78.7317L35.2038 78.5901L35.0604 77.3504L31.1822 77.7991L31.3257 79.0388L32.4542 78.9082L33.0886 84.3917L30.3072 84.7135L29.5293 77.9903L26.7796 78.3085L26.9231 79.5482L28.1469 79.4066L28.785 84.9218L27.5612 85.0634L27.7046 86.3032L34.698 85.494L35.0997 87.5736L36.3871 87.4246ZM41.254 84.8965C42.3666 84.7678 43.3048 84.3854 43.7656 83.9133L43.6038 82.5146C42.9988 83.1323 42.1663 83.4541 41.308 83.5534C39.7822 83.7299 38.8227 82.9551 38.5972 81.145L43.5402 80.5731C43.5854 80.4068 43.5657 79.9581 43.5161 79.5289C43.2641 77.3515 41.818 76.4074 39.9584 76.6226C37.8763 76.8635 36.6102 78.5884 36.9136 81.2109C37.2373 84.0083 38.854 85.1742 41.254 84.8965ZM38.4507 80.0184C38.4852 78.6453 39.0847 77.98 40.0224 77.8715C40.9919 77.7593 41.7715 78.2329 41.9633 79.612L38.4507 80.0184ZM49.0406 82.5782L47.9122 82.7087L47.651 80.4518L50.5914 80.1116L50.996 83.6082L53.7456 83.2901L53.6022 82.0504L52.3784 82.192L51.7402 76.6768L52.9641 76.5352L52.8206 75.2954L48.9425 75.7442L49.0859 76.9839L50.2144 76.8533L50.4443 78.8401L47.5039 79.1803L47.1306 75.9538L44.3809 76.2719L44.5244 77.5117L45.7482 77.3701L46.3863 82.8853L45.1625 83.0269L45.306 84.2666L49.1841 83.8179L49.0406 82.5782ZM57.6751 81.708C56.8645 81.8018 56.4419 81.3514 56.3757 80.7792C56.2507 79.6984 56.9939 79.1614 59.2031 78.9058L59.2454 79.2713C59.4165 80.7495 58.6605 81.594 57.6751 81.708ZM59.4705 81.3553L59.5658 81.3443L59.7111 82.5999L62.3813 82.2909L62.2378 81.0512L61.014 81.1928L60.5671 77.3306C60.3465 75.4233 59.2445 74.3911 57.0511 74.6449C56.2564 74.7368 55.2894 75.0098 54.6397 75.5198L54.8071 76.9662C55.4952 76.3712 56.2025 76.0799 56.9654 75.9917C58.221 75.8464 58.9052 76.331 59.0376 77.4753L59.0799 77.8409C55.9488 78.2032 54.5681 79.2166 54.787 81.108C54.9304 82.3477 55.8514 83.2075 57.3295 83.0365C58.5851 82.8912 59.077 82.2706 59.4705 81.3553ZM70.4954 81.5132C72.7524 81.252 73.4538 80.0756 73.3048 78.7882C73.1816 77.7233 72.4246 77.1666 71.3694 77.0954L71.3602 77.016C72.3902 76.5908 72.7347 75.81 72.641 74.9994C72.5085 73.855 71.5998 72.9615 69.5336 73.2006C68.723 73.2944 67.8672 73.5545 67.2132 73.8879L67.4799 76.1925L68.7196 76.049L68.5615 74.6822C68.9019 74.5622 69.2479 74.49 69.6135 74.4477C70.4718 74.3484 71.0245 74.671 71.1109 75.418C71.1845 76.0538 70.86 76.5906 70.0177 76.6881L69.0322 76.8021L69.172 78.01L70.1256 77.8997C71.1746 77.7783 71.6534 78.1578 71.7435 78.9366C71.8245 79.636 71.401 80.1521 70.2884 80.2808C69.4778 80.3746 68.6555 80.2281 67.8215 79.8414L67.9834 81.2401C68.7287 81.5565 69.6848 81.6069 70.4954 81.5132ZM77.4339 79.4218C76.6233 79.5156 76.2007 79.0652 76.1345 78.493C76.0095 77.4122 76.7527 76.8752 78.9619 76.6196L79.0042 76.9852C79.1753 78.4633 78.4193 79.3078 77.4339 79.4218ZM79.2293 79.0691L79.3246 79.0581L79.4699 80.3137L82.1401 80.0048L81.9966 78.765L80.7728 78.9066L80.3259 75.0444C80.1053 73.1371 79.0033 72.1049 76.8099 72.3587C76.0153 72.4507 75.0482 72.7236 74.3985 73.2337L74.5659 74.68C75.2541 74.085 75.9613 73.7938 76.7242 73.7055C77.9798 73.5602 78.664 74.0448 78.7964 75.1891L78.8387 75.5547C75.7076 75.917 74.327 76.9304 74.5458 78.8218C74.6892 80.0615 75.6102 80.9214 77.0883 80.7503C78.3439 80.6051 78.8359 79.9844 79.2293 79.0691ZM91.4116 77.6757L90.3944 77.7934L90.1498 75.6795L90.8466 75.4378L93.8279 78.6524L95.751 78.4299L95.6076 77.1902L94.6698 77.2987L92.0029 74.4342L93.6979 71.8221L94.7311 71.7026L94.5876 70.4628L91.3135 70.8417L91.4569 72.0814L92.1403 72.0023L90.7246 74.2439L90.0119 74.4874L89.6128 71.0384L86.8631 71.3566L87.0066 72.5963L88.2304 72.4547L88.8686 77.9699L87.6447 78.1115L87.7882 79.3513L91.555 78.9154L91.4116 77.6757ZM100.417 78.0511C102.531 77.8065 103.93 76.1145 103.625 73.4761C103.321 70.8536 101.538 69.4976 99.4555 69.7385C97.3575 69.9813 95.9642 71.7209 96.2676 74.3435C96.5729 76.9819 98.3193 78.2938 100.417 78.0511ZM100.263 76.716C99.1184 76.8484 98.101 76.1286 97.8729 74.1577C97.6431 72.171 98.4656 71.206 99.61 71.0736C100.723 70.9449 101.791 71.691 102.019 73.6618C102.247 75.6327 101.407 76.5836 100.263 76.716ZM108.125 75.7419L107.711 75.7897L107.108 70.5765L107.188 70.5673L110.239 76.7536L111.511 76.6065L113.069 69.8869L113.148 69.8777L113.895 76.3306L116.644 76.0125L116.501 74.7728L115.277 74.9144L114.639 69.3992L115.863 69.2575L115.719 68.0178L112.223 68.4224L110.8 74.6431L110.721 74.6523L107.947 68.9171L104.387 69.329L104.53 70.5688L105.754 70.4271L106.392 75.9424L105.168 76.084L105.312 77.3237L108.268 76.9816L108.125 75.7419ZM121.665 74.1752L120.537 74.3058L119.903 68.8223L122.684 68.5005L123.462 75.2237L126.212 74.9055L126.068 73.6658L124.844 73.8074L124.206 68.2922L125.43 68.1506L125.287 66.9108L117.006 67.869L117.149 69.1087L118.373 68.9671L119.011 74.4823L117.787 74.6239L117.931 75.8636L121.809 75.4149L121.665 74.1752ZM129.597 67.749L131.504 67.5283L132.276 74.2038L135.026 73.8856L134.883 72.6459L133.659 72.7875L133.021 67.2723L134.245 67.1307L134.101 65.891L126.917 66.7222L127.06 67.9619L128.268 67.8222C128.574 71.2981 128.417 73.2813 127.288 73.4118C127.114 73.4321 126.917 73.4065 126.917 73.4065L127.085 74.8528C127.085 74.8528 127.315 74.8906 127.632 74.8539C130.001 74.5798 129.978 71.4578 129.597 67.749ZM140.126 73.4567C141.238 73.3279 142.176 72.9456 142.637 72.4735L142.475 71.0748C141.87 71.6924 141.038 72.0143 140.18 72.1136C138.654 72.2901 137.694 71.5152 137.469 69.7052L142.412 69.1332C142.457 68.9669 142.437 68.5182 142.388 68.0891C142.136 65.9116 140.69 64.9676 138.83 65.1827C136.748 65.4236 135.482 67.1486 135.785 69.7711C136.109 72.5684 137.726 73.7344 140.126 73.4567ZM137.322 68.5785C137.357 67.2055 137.956 66.5402 138.894 66.4317C139.864 66.3195 140.643 66.793 140.835 68.1721L137.322 68.5785ZM147.801 71.1512L146.784 71.2689L146.539 69.155L147.236 68.9133L150.217 72.128L152.14 71.9054L151.997 70.6657L151.059 70.7742L148.392 67.9097L150.087 65.2976L151.12 65.1781L150.977 63.9384L147.703 64.3172L147.846 65.5569L148.53 65.4778L147.114 67.7194L146.401 67.963L146.002 64.514L143.253 64.8321L143.396 66.0718L144.62 65.9302L145.258 71.4454L144.034 71.587L144.178 72.8268L147.944 72.3909L147.801 71.1512ZM158.6 71.158L158.457 69.9183L157.074 70.0783L156.44 64.5949L158.045 64.4091L158.234 66.0462L159.49 65.9009L159.153 62.9923L151.922 63.8291L152.258 66.7377L153.53 66.5905L153.34 64.9535L154.914 64.7714L155.548 70.2548L154.165 70.4148L154.309 71.6545L158.6 71.158Z" fill="white"/>
<path d="M31.6206 65.8327L28.8854 42.1903L25.1364 42.6241C24.807 44.5104 23.7217 46.9634 19.9727 47.3971L20.3518 50.6733L23.5266 50.306C24.6074 50.1809 24.949 50.1756 25.078 51.2902L26.8246 66.3875L31.6206 65.8327ZM42.8914 61.0718C40.7285 61.014 39.3432 59.3945 38.9555 57.5226L34.3895 58.2905C35.2977 63.1825 38.3084 65.5381 43.3564 65.091L42.8914 61.0718ZM40.4833 44.99L49.5349 43.9428L49.6025 39.7935L40.7197 40.8212L40.4833 44.99ZM39.6727 40.9423L35.586 41.4151L34.804 54.4776L38.8701 54.4179L39.6727 40.9423ZM40.0076 52.7118C40.5647 52.2024 41.4038 51.7631 42.5859 51.6263C45.0177 51.345 47.0941 53.0215 47.4145 55.791C47.6529 57.8513 46.6884 60.4614 43.9086 60.9884L44.3697 64.9738C49.3371 64.1253 52.9019 60.3244 52.2962 55.0893C51.6671 49.6516 47.634 47.0378 43.1757 47.5536C41.9598 47.6942 41.0077 48.044 40.2661 48.4378L40.0076 52.7118ZM71.4197 57.6344C69.2983 57.6403 67.4988 56.5821 67.2838 54.7244C67.0533 52.7317 68.5598 51.2568 70.6304 50.8119L70.1771 46.894C68.1272 46.9258 66.6952 45.7909 66.5194 44.271C66.3319 42.6498 67.5279 41.4504 69.4972 41.0172L69.0244 36.9305C64.1466 37.666 61.3793 40.9638 61.7896 44.5102C62.1061 47.2459 64.0915 48.7276 65.5583 49.2767C64.1984 49.9474 62.0231 52.15 62.4021 55.4261C62.7812 58.7023 65.8273 62.2517 71.9003 61.7887L71.4197 57.6344ZM72.9135 61.6715C78.9059 60.8071 81.2975 56.6285 80.9185 53.3524C80.5043 49.7723 77.7303 48.2792 76.2532 47.9367C77.4105 47.2894 79.1936 45.5429 78.8302 42.4018C78.4394 39.0244 75.1273 36.4298 70.0376 36.8133L70.5104 40.9C72.6955 40.8526 73.9689 41.8005 74.1525 43.3879C74.3479 45.0767 73.1297 46.3813 71.1903 46.7768L71.6436 50.6947C73.791 50.6174 75.6204 51.6379 75.8626 53.7319C76.0893 55.6909 74.5373 57.0684 72.4329 57.5172L72.9135 61.6715ZM91.9682 55.2571C89.8468 55.263 88.0472 54.2048 87.8323 52.3471C87.6018 50.3544 89.1083 48.8795 91.1789 48.4346L90.7256 44.5168C88.6757 44.5486 87.2437 43.4136 87.0679 41.8937C86.8803 40.2725 88.0764 39.0731 90.0457 38.64L89.5729 34.5532C84.6951 35.2887 81.9278 38.5866 82.338 42.1329C82.6546 44.8687 84.64 46.3503 86.1068 46.8994C84.7469 47.5701 82.5716 49.7727 82.9506 53.0488C83.3296 56.325 86.3758 59.8744 92.4488 59.4114L91.9682 55.2571ZM93.462 59.2942C99.4544 58.4298 101.846 54.2512 101.467 50.9751C101.053 47.395 98.2788 45.9019 96.8017 45.5594C97.9589 44.9121 99.742 43.1656 99.3787 40.0245C98.9879 36.6471 95.6758 34.0525 90.5861 34.436L91.0589 38.5227C93.244 38.4753 94.5173 39.4232 94.701 41.0106C94.8964 42.6994 93.6782 44.004 91.7388 44.3995L92.1921 48.3174C94.3394 48.2401 96.1688 49.2606 96.4111 51.3547C96.6377 53.3136 95.0858 54.6911 92.9814 55.1399L93.462 59.2942ZM114.784 42.8971C114.181 43.891 113.117 44.459 111.766 44.6153C109.165 44.9162 107.532 43.2227 107.258 40.8585C106.985 38.4943 108.34 36.8999 110.197 36.3771L109.716 32.2228C104.918 33.0518 101.909 36.9252 102.44 41.5186C103.038 46.6861 106.781 49.1623 111.24 48.6465C113.064 48.4355 114.473 47.896 115.288 47.254L114.784 42.8971ZM116.22 46.4275C116.767 51.156 115.029 52.11 112.779 52.781L113.267 57.0029C118.587 55.9425 121.836 51.1856 120.89 43.0121C120.007 35.379 115.954 31.7065 110.729 32.1056L111.21 36.2599C113.133 36.3113 115.227 37.8487 115.798 42.7798L116.22 46.4275ZM111.766 52.8982C109.134 52.9289 108.559 51.2156 108.417 50.5817L103.773 51.5639C104.786 56.1701 108.674 57.5343 112.254 57.1201L111.766 52.8982ZM135.204 36.1878L130.679 36.7114L133.254 58.969L137.779 58.4454L135.204 36.1878ZM136.745 40.6302C137.241 39.8883 138.039 39.3853 139.086 39.2641C141.214 39.018 142.992 40.4893 143.391 43.9343C143.793 47.4131 142.277 49.0946 140.183 49.3368C139.068 49.4658 138.24 49.1166 137.667 48.601L138.148 52.7553C139.19 53.1824 140.238 53.3691 141.556 53.2167C145.338 52.7791 148.693 49.824 147.954 43.4406C147.298 37.7664 144.014 34.8263 139.624 35.3343C137.969 35.5257 136.972 36.0859 136.284 36.6448L136.745 40.6302ZM155.513 51.1228C155.364 52.2011 154.708 52.4481 153.898 52.5419L151.871 52.7763L152.332 56.7617L155.068 56.4452C158.479 56.0506 159.028 54.5837 159.443 52.5506L163.301 32.9373L158.741 33.4648L155.513 51.1228ZM155.961 42.2747L152.256 34.215L147.629 34.7504L154.66 49.3732L155.961 42.2747ZM171.091 38.8471C171.669 37.9246 172.552 37.2748 173.836 37.1263C176.2 36.8528 177.894 38.7788 178.148 40.9742C178.402 43.1695 177.161 45.1614 175.402 45.6387L175.855 49.5566C180.422 48.7887 183.294 44.623 182.801 40.3674C182.243 35.5376 178.569 32.7795 174.314 33.2718C172.591 33.4711 171.388 34.021 170.603 34.6253L171.091 38.8471ZM165.283 39.8271C166.104 46.9198 169.925 50.0715 174.876 49.6699L174.423 45.752C172.643 45.7525 170.825 44.8334 170.31 40.3751L169.806 36.0182C169.106 29.9725 176.677 30.3287 179.712 28.1635L177.568 24.7152C175.674 26.0979 170.924 26.7502 167.871 29.9443C165.946 31.9467 164.728 35.0311 165.283 39.8271ZM186.762 47.884L191.491 47.337L190.924 42.4396L186.196 42.9867L186.762 47.884Z" fill="white"/>
</svg>
