<svg width="156" height="211" viewBox="0 0 156 211" fill="none" xmlns="http://www.w3.org/2000/svg">
<g clip-path="url(#clip0)" filter="url(#filter0_d)">
<path d="M136.062 26.9513C136.395 28.6572 130.246 46.049 117.446 50.0887C96.6046 56.6655 76.6677 50.6346 76.6677 50.6346L80.4539 45.3139C80.4539 45.3139 98.5323 43.8221 108.103 40.7175C126.565 34.7315 125.677 23.124 125.677 23.124C128.88 22.7441 135.725 25.2579 136.062 26.9513Z" fill="#E6488E"/>
<path d="M133.631 34.0848C135.38 30.5072 136.191 27.6026 136.062 26.9513C135.725 25.2563 128.88 22.7425 125.674 23.124C125.674 23.1255 130.975 23.9505 133.631 34.0848Z" fill="#E5488E"/>
<path d="M80.4507 45.3154C78.2076 44.2082 76.6646 50.6361 76.6646 50.6361C76.6646 50.6361 96.6015 56.667 117.443 50.0902C121.398 48.8403 124.723 46.3141 127.412 43.3723C126.605 42.7102 106.286 57.4858 80.4507 45.3154Z" fill="#E5488E"/>
<path d="M136.061 26.9513C136.086 27.0629 128.385 20.0488 110.271 28.0368C101.331 31.9789 76.6646 50.6361 76.6646 50.6361L77.0907 40.5065C77.0907 40.5065 104.512 1.159 121.991 6.51068C121.991 6.51068 133.828 16.9969 136.061 26.9513Z" fill="#FF79B5"/>
<path d="M136.062 26.9513C136.08 27.0304 130.043 14.5328 121.908 10.2527C118.446 8.4321 114.457 8.20414 110.605 9.82624C97.7015 15.2539 77.2277 41.927 77.2277 41.927L77.0923 40.5096C77.0923 40.5096 104.512 1.15902 121.991 6.51071C121.991 6.51071 133.828 16.997 136.062 26.9513Z" fill="#E5488E"/>
<g style="mix-blend-mode:multiply">
<path d="M87.2769 40.7376L76.6615 50.6361L77.0877 40.5065L87.4615 32.5418C87.4615 32.5418 81.1123 38.6844 80.5384 41.071C81.3307 40.9687 86.0769 37.5616 86.0769 37.5616C86.0769 37.5616 79.8477 42.4791 80.4661 44.1818C81.8938 43.8996 87.2769 40.7376 87.2769 40.7376Z" fill="#8DC374"/>
</g>
<path d="M66.8692 45.0069C66.8692 45.0069 48.8769 42.6947 39.4615 39.1605C21.28 32.3371 22.6923 20.7855 22.6923 20.7855C20.0969 20.3606 15.04 21.7284 13 23.1551V28.1439C14.9815 34.0848 20.3462 44.6766 29.7031 48.0991C50.2277 55.6125 70.4108 50.4935 70.4108 50.4935L66.8692 45.0069Z" fill="#E6488E"/>
<path d="M13 23.1551V28.1284C13.3262 29.1038 13.7323 30.194 14.2446 31.371C17.3492 21.3763 22.68 20.7855 22.68 20.7855C20.0969 20.3606 15.04 21.7284 13 23.1551Z" fill="#E5488E"/>
<path d="M66.8692 45.0068C69.16 44.0019 70.4077 50.4934 70.4077 50.4934C70.4077 50.4934 50.2246 55.611 29.7 48.0991C25.8 46.6739 22.5938 43.9957 20.0385 40.9361C20.8769 40.3096 40.5169 55.9909 66.8692 45.0068Z" fill="#E5488E"/>
<path d="M27.1031 4.35605C27.1031 4.35605 16.7877 12.7023 13 21.6781V23.6258C15.4985 22.2813 23.4815 19.2666 37.8508 26.3986C46.6077 30.7407 70.4108 50.4959 70.4108 50.4959L70.4415 40.3586C70.4415 40.3586 44.8 -0.198543 27.1031 4.35605Z" fill="#FF79B5"/>
<path d="M27.1031 4.35579C27.1031 4.35579 16.7877 12.702 13 21.6778V22.6765C15.0446 19.3269 20.4985 11.1667 27.0185 8.09934C30.5569 6.43537 34.5569 6.3935 38.3338 8.18463C50.9785 14.1938 70.24 41.7618 70.24 41.7618L70.4415 40.3521C70.4415 40.3521 44.8 -0.198797 27.1031 4.35579Z" fill="#E5488E"/>
<g style="mix-blend-mode:multiply">
<path d="M60.2523 40.1219L70.4062 50.4934L70.4369 40.3561L60.4369 31.9277C60.4369 31.9277 66.5077 38.3525 66.9662 40.767C66.1769 40.6275 61.5892 37.0095 61.5892 37.0095C61.5892 37.0095 67.5892 42.2015 66.9 43.8779C65.4908 43.5274 60.2523 40.1219 60.2523 40.1219Z" fill="#8DC374"/>
</g>
<path d="M78.1662 52.4753C77.1185 53.9315 68.9908 53.6105 68.1185 52.2489C67.2462 50.8874 66.9493 38.9124 68.4477 37.6051C68.937 37.1786 70.06 36.9336 71.3908 36.8421C72.0739 36.794 72.6923 38.3649 73.4308 38.3928C74.2093 38.4208 75.1062 36.9134 75.8093 37.0127C77.0724 37.1941 78.1031 37.4779 78.4954 37.833C79.7123 38.9387 79.22 51.0192 78.1662 52.4753Z" fill="#E5488E"/>
<path d="M77.5231 52.6087C76.6108 53.8648 69.5139 53.5856 68.7539 52.4086C67.9939 51.2316 67.7308 40.8942 69.037 39.7652C69.4693 39.3931 70.4477 39.1884 71.6062 39.1062C72.2047 39.0658 72.7477 40.4197 73.3893 40.4429C74.0708 40.4708 74.8524 39.1666 75.4677 39.2535C76.5724 39.4086 77.4677 39.6567 77.8124 39.9622C78.8708 40.919 78.4416 51.3525 77.5231 52.6087Z" fill="#FF79B5"/>
<path d="M69.4784 43.2451C69.423 45.7124 69.2584 48.2774 70.0092 50.3988C70.1046 50.6748 70.2184 51.5154 70.4954 51.6549C71.2646 52.0395 70.8831 51.1649 71.3 50.6268C72.3984 49.2187 71.82 51.0222 72.8154 51.5154C74.0984 52.1512 73.2692 44.7974 75.0646 49.8095C75.4431 50.8656 76.0431 52.1155 76.5569 50.4422C76.8923 49.3645 76.6046 47.5733 76.6708 46.4102C76.7723 44.6455 77.4092 42.5721 75.6646 42.3426C73.8584 42.11 74.7492 44.4547 73.5031 45.4534C72.9154 44.6238 73.0077 43.2234 72.1046 42.6031C71.0277 41.8525 70.9554 43.0838 70.9754 44.464C70.2369 44.3973 70.4261 42.2433 69.6215 41.761L69.4784 43.2451Z" fill="#F86BAA"/>
<path d="M140 48.6232H13V78.1032H140V48.6232Z" fill="#31C3F2"/>
<path d="M133.445 78.1032H17.9739V164H133.445V78.1032Z" fill="#31C3F2"/>
<path d="M89.5739 48.6232H61.8431V78.1032H89.5739V48.6232Z" fill="white"/>
<path d="M88.1585 78.1032H63.257V164H88.1585V78.1032Z" fill="white"/>
<g style="mix-blend-mode:multiply">
<path d="M77.9769 88.5166C34.1092 88.5166 17.9769 78.097 17.9769 78.097H133.443C133.443 78.097 121.846 88.5166 77.9769 88.5166Z" fill="#DADADA"/>
</g>
</g>
<g clip-path="url(#clip1)" filter="url(#filter1_d)">
<path d="M66.1393 116.902C66.297 117.712 63.3919 125.973 57.3446 127.892C47.4982 131.016 38.0792 128.151 38.0792 128.151L39.868 125.624C39.868 125.624 48.409 124.915 52.9306 123.441C61.6526 120.597 61.2332 115.084 61.2332 115.084C62.7465 114.903 65.9801 116.097 66.1393 116.902Z" fill="#E6488E"/>
<path d="M64.9909 120.29C65.8173 118.591 66.2003 117.211 66.1393 116.902C65.9801 116.097 62.7464 114.903 61.2317 115.084C61.2317 115.085 63.7364 115.476 64.9909 120.29Z" fill="#E5488E"/>
<path d="M39.8665 125.625C38.8068 125.099 38.0778 128.152 38.0778 128.152C38.0778 128.152 47.4968 131.017 57.3432 127.893C59.2118 127.299 60.7825 126.099 62.053 124.702C61.6714 124.387 52.0722 131.406 39.8665 125.625Z" fill="#E5488E"/>
<path d="M66.1393 116.902C66.1509 116.955 62.5124 113.623 53.9547 117.418C49.7311 119.29 38.0778 128.152 38.0778 128.152L38.2791 123.341C38.2791 123.341 51.2342 104.651 59.4917 107.193C59.4917 107.193 65.0839 112.174 66.1393 116.902Z" fill="#FF79B5"/>
<path d="M66.1394 116.902C66.1481 116.939 63.296 111.003 59.4525 108.97C57.8172 108.105 55.9325 107.997 54.1125 108.767C48.0166 111.346 38.3439 124.015 38.3439 124.015L38.2799 123.342C38.2799 123.342 51.2342 104.651 59.4918 107.193C59.4918 107.193 65.084 112.174 66.1394 116.902Z" fill="#E5488E"/>
<g style="mix-blend-mode:multiply">
<path d="M43.0914 123.45L38.0763 128.152L38.2776 123.341L43.1787 119.557C43.1787 119.557 40.179 122.475 39.9079 123.609C40.2822 123.56 42.5245 121.942 42.5245 121.942C42.5245 121.942 39.5816 124.278 39.8738 125.086C40.5483 124.952 43.0914 123.45 43.0914 123.45Z" fill="#8DC374"/>
</g>
<path d="M33.45 125.478C33.45 125.478 24.9497 124.38 20.5015 122.701C11.9118 119.46 12.579 113.973 12.579 113.973C11.3529 113.771 8.96378 114.421 8 115.099V117.468C8.93616 120.29 11.4706 125.321 15.8912 126.947C25.5879 130.516 35.1232 128.084 35.1232 128.084L33.45 125.478Z" fill="#E6488E"/>
<path d="M8 115.099V117.461C8.15409 117.924 8.34597 118.442 8.58801 119.001C10.0548 114.254 12.5732 113.973 12.5732 113.973C11.3529 113.771 8.96378 114.421 8 115.099Z" fill="#E5488E"/>
<path d="M33.4501 125.478C34.5324 125.001 35.1218 128.084 35.1218 128.084C35.1218 128.084 25.5865 130.515 15.8898 126.947C14.0473 126.27 12.5326 124.998 11.3253 123.545C11.7214 123.247 21.0002 130.696 33.4501 125.478Z" fill="#E5488E"/>
<path d="M14.6629 106.169C14.6629 106.169 9.78946 110.133 8 114.397V115.322C9.18038 114.683 12.9519 113.251 19.7405 116.639C23.8776 118.701 35.1232 128.085 35.1232 128.085L35.1377 123.27C35.1377 123.27 23.0236 104.005 14.6629 106.169Z" fill="#FF79B5"/>
<path d="M14.6629 106.168C14.6629 106.168 9.78946 110.133 8 114.396V114.871C8.96596 113.28 11.5426 109.404 14.6229 107.947C16.2946 107.156 18.1844 107.136 19.9687 107.987C25.9426 110.842 35.0425 123.936 35.0425 123.936L35.1377 123.267C35.1377 123.267 23.0236 104.005 14.6629 106.168Z" fill="#E5488E"/>
<g style="mix-blend-mode:multiply">
<path d="M30.324 123.158L35.1211 128.084L35.1356 123.269L30.4112 119.266C30.4112 119.266 33.2793 122.317 33.4959 123.464C33.123 123.398 30.9556 121.68 30.9556 121.68C30.9556 121.68 33.7902 124.146 33.4646 124.942C32.7988 124.775 30.324 123.158 30.324 123.158Z" fill="#8DC374"/>
</g>
<path d="M38.7872 129.026C38.2922 129.717 34.4524 129.565 34.0403 128.918C33.6282 128.272 33.4879 122.583 34.1958 121.962C34.4269 121.76 34.9575 121.643 35.5862 121.6C35.909 121.577 36.2011 122.323 36.55 122.337C36.9178 122.35 37.3415 121.634 37.6737 121.681C38.2704 121.767 38.7574 121.902 38.9427 122.071C39.5177 122.596 39.2851 128.334 38.7872 129.026Z" fill="#E5488E"/>
<path d="M38.4834 129.089C38.0524 129.686 34.6995 129.553 34.3405 128.994C33.9814 128.435 33.8571 123.525 34.4742 122.988C34.6784 122.812 35.1407 122.714 35.688 122.675C35.9707 122.656 36.2273 123.299 36.5304 123.31C36.8524 123.324 37.2216 122.704 37.5123 122.745C38.0342 122.819 38.4572 122.937 38.62 123.082C39.1201 123.537 38.9173 128.492 38.4834 129.089Z" fill="#FF79B5"/>
<path d="M34.6827 124.641C34.6566 125.813 34.5788 127.032 34.9335 128.039C34.9785 128.171 35.0323 128.57 35.1632 128.636C35.5266 128.819 35.3463 128.403 35.5433 128.148C36.0623 127.479 35.789 128.336 36.2592 128.57C36.8654 128.872 36.4736 125.379 37.3219 127.76C37.5007 128.261 37.7841 128.855 38.0269 128.06C38.1853 127.548 38.0494 126.697 38.0807 126.145C38.1286 125.307 38.4295 124.322 37.6053 124.213C36.752 124.102 37.1729 125.216 36.5841 125.69C36.3065 125.296 36.3501 124.631 35.9234 124.337C35.4146 123.98 35.3805 124.565 35.3899 125.22C35.0411 125.189 35.1305 124.166 34.7503 123.937L34.6827 124.641Z" fill="#F86BAA"/>
<path d="M68 127.196H8V141.199H68V127.196Z" fill="#31C3F2"/>
<path d="M64.903 141.199H10.3499V182H64.903V141.199Z" fill="#31C3F2"/>
<path d="M44.1766 127.196H31.0754V141.199H44.1766V127.196Z" fill="white"/>
<path d="M43.5079 141.199H31.7434V182H43.5079V141.199Z" fill="white"/>
<g style="mix-blend-mode:multiply">
<path d="M38.6978 146.145C17.9729 146.145 10.3513 141.196 10.3513 141.196H64.9023C64.9023 141.196 59.4234 146.145 38.6978 146.145Z" fill="#DADADA"/>
</g>
</g>
<g clip-path="url(#clip2)" filter="url(#filter2_d)">
<path d="M145.023 95.3569C145.275 96.647 140.627 109.8 130.951 112.855C115.197 117.828 100.127 113.267 100.127 113.267L102.989 109.244C102.989 109.244 116.654 108.115 123.889 105.768C137.844 101.241 137.173 92.4626 137.173 92.4626C139.594 92.1752 144.768 94.0763 145.023 95.3569Z" fill="#E6488E"/>
<path d="M143.185 100.752C144.508 98.0461 145.121 95.8495 145.023 95.3569C144.768 94.0751 139.594 92.174 137.171 92.4625C137.171 92.4637 141.178 93.0876 143.185 100.752Z" fill="#E5488E"/>
<path d="M102.986 109.245C101.291 108.407 100.124 113.269 100.124 113.269C100.124 113.269 115.195 117.829 130.949 112.856C133.939 111.91 136.452 110 138.485 107.775C137.874 107.275 122.515 118.449 102.986 109.245Z" fill="#E5488E"/>
<path d="M145.023 95.3569C145.041 95.4413 139.22 90.1369 125.527 96.1778C118.77 99.159 100.124 113.269 100.124 113.269L100.447 105.608C100.447 105.608 121.175 75.8515 134.387 79.8987C134.387 79.8987 143.334 87.8289 145.023 95.3569Z" fill="#FF79B5"/>
<path d="M145.023 95.3569C145.037 95.4167 140.474 85.9654 134.324 82.7286C131.707 81.3518 128.692 81.1794 125.78 82.4061C116.026 86.5108 100.55 106.682 100.55 106.682L100.448 105.61C100.448 105.61 121.175 75.8515 134.387 79.8987C134.387 79.8987 143.334 87.8289 145.023 95.3569Z" fill="#E5488E"/>
<g style="mix-blend-mode:multiply">
<path d="M108.146 105.783L100.122 113.269L100.444 105.608L108.286 99.5847C108.286 99.5847 103.486 104.23 103.053 106.035C103.652 105.958 107.239 103.381 107.239 103.381C107.239 103.381 102.531 107.1 102.998 108.387C104.077 108.174 108.146 105.783 108.146 105.783Z" fill="#8DC374"/>
</g>
<path d="M92.7201 109.011C92.7201 109.011 79.1196 107.263 72.0024 104.59C58.2589 99.4299 59.3265 90.694 59.3265 90.694C57.3646 90.3726 53.542 91.407 52 92.486V96.2587C53.4979 100.752 57.553 108.762 64.6259 111.35C80.1406 117.032 95.3971 113.161 95.3971 113.161L92.7201 109.011Z" fill="#E6488E"/>
<path d="M52 92.486V96.247C52.2465 96.9847 52.5536 97.8091 52.9408 98.6993C55.2876 91.1408 59.3172 90.694 59.3172 90.694C57.3646 90.3726 53.542 91.407 52 92.486Z" fill="#E5488E"/>
<path d="M92.7201 109.011C94.4517 108.252 95.3948 113.161 95.3948 113.161C95.3948 113.161 80.1383 117.031 64.6236 111.35C61.6756 110.272 59.2521 108.247 57.3204 105.933C57.9542 105.459 72.8002 117.318 92.7201 109.011Z" fill="#E5488E"/>
<path d="M62.6606 78.2691C62.6606 78.2691 54.8631 84.5809 52 91.3689V92.8419C53.8886 91.8251 59.9231 89.5452 70.7848 94.9388C77.4042 98.2225 95.3971 113.162 95.3971 113.162L95.4204 105.496C95.4204 105.496 76.0378 74.8247 62.6606 78.2691Z" fill="#FF79B5"/>
<path d="M62.6606 78.2688C62.6606 78.2688 54.8631 84.5806 52 91.3686V92.1239C53.5455 89.5907 57.6681 83.4196 62.5966 81.0999C65.2714 79.8415 68.295 79.8098 71.15 81.1644C80.7081 85.7088 95.268 106.557 95.268 106.557L95.4204 105.491C95.4204 105.491 76.0378 74.8244 62.6606 78.2688Z" fill="#E5488E"/>
<g style="mix-blend-mode:multiply">
<path d="M87.7183 105.317L95.3936 113.161L95.4169 105.494L87.8578 99.1203C87.8578 99.1203 92.4467 103.979 92.7933 105.805C92.1967 105.7 88.7288 102.963 88.7288 102.963C88.7288 102.963 93.2643 106.89 92.7433 108.158C91.678 107.893 87.7183 105.317 87.7183 105.317Z" fill="#8DC374"/>
</g>
<path d="M101.259 114.659C100.467 115.761 94.3237 115.518 93.6643 114.488C93.0049 113.459 92.7805 104.402 93.9132 103.414C94.283 103.091 95.1319 102.906 96.1379 102.837C96.6542 102.8 97.1217 103.988 97.6799 104.01C98.2684 104.031 98.9464 102.891 99.4778 102.966C100.433 103.103 101.212 103.318 101.508 103.586C102.428 104.422 102.056 113.558 101.259 114.659Z" fill="#E5488E"/>
<path d="M100.773 114.76C100.084 115.71 94.7191 115.499 94.1446 114.609C93.5701 113.719 93.3712 105.901 94.3586 105.047C94.6854 104.766 95.425 104.611 96.3007 104.549C96.7531 104.519 97.1636 105.542 97.6485 105.56C98.1637 105.581 98.7545 104.595 99.2196 104.66C100.055 104.778 100.731 104.965 100.992 105.196C101.792 105.92 101.468 113.81 100.773 114.76Z" fill="#FF79B5"/>
<path d="M94.6924 107.679C94.6506 109.545 94.5261 111.485 95.0936 113.089C95.1657 113.298 95.2518 113.934 95.4611 114.039C96.0426 114.33 95.7542 113.668 96.0693 113.262C96.8997 112.197 96.4624 113.561 97.2148 113.934C98.1847 114.414 97.5579 108.853 98.915 112.643C99.2011 113.442 99.6547 114.387 100.043 113.122C100.297 112.307 100.079 110.952 100.129 110.073C100.206 108.738 100.687 107.17 99.3686 106.997C98.0033 106.821 98.6766 108.594 97.7347 109.349C97.2904 108.722 97.3602 107.663 96.6776 107.194C95.8635 106.626 95.8088 107.557 95.824 108.601C95.2658 108.551 95.4088 106.922 94.8006 106.557L94.6924 107.679Z" fill="#F86BAA"/>
<path d="M148 111.746H52V134.041H148V111.746Z" fill="#31C3F2"/>
<path d="M143.045 134.041H55.7598V199H143.045V134.041Z" fill="#31C3F2"/>
<path d="M109.883 111.746H88.9208V134.041H109.883V111.746Z" fill="white"/>
<path d="M108.813 134.041H89.9895V199H108.813V134.041Z" fill="white"/>
<g style="mix-blend-mode:multiply">
<path d="M101.116 141.916C67.9566 141.916 55.7621 134.036 55.7621 134.036H143.044C143.044 134.036 134.277 141.916 101.116 141.916Z" fill="#DADADA"/>
</g>
</g>
<defs>
<filter id="filter0_d" x="5" y="0" width="143" height="176" filterUnits="userSpaceOnUse" color-interpolation-filters="sRGB">
<feFlood flood-opacity="0" result="BackgroundImageFix"/>
<feColorMatrix in="SourceAlpha" type="matrix" values="0 0 0 0 0 0 0 0 0 0 0 0 0 0 0 0 0 0 127 0"/>
<feOffset dy="4"/>
<feGaussianBlur stdDeviation="4"/>
<feColorMatrix type="matrix" values="0 0 0 0 0 0 0 0 0 0 0 0 0 0 0 0 0 0 0.15 0"/>
<feBlend mode="normal" in2="BackgroundImageFix" result="effect1_dropShadow"/>
<feBlend mode="normal" in="SourceGraphic" in2="effect1_dropShadow" result="shape"/>
</filter>
<filter id="filter1_d" x="0" y="102" width="76" height="92" filterUnits="userSpaceOnUse" color-interpolation-filters="sRGB">
<feFlood flood-opacity="0" result="BackgroundImageFix"/>
<feColorMatrix in="SourceAlpha" type="matrix" values="0 0 0 0 0 0 0 0 0 0 0 0 0 0 0 0 0 0 127 0"/>
<feOffset dy="4"/>
<feGaussianBlur stdDeviation="4"/>
<feColorMatrix type="matrix" values="0 0 0 0 0 0 0 0 0 0 0 0 0 0 0 0 0 0 0.15 0"/>
<feBlend mode="normal" in2="BackgroundImageFix" result="effect1_dropShadow"/>
<feBlend mode="normal" in="SourceGraphic" in2="effect1_dropShadow" result="shape"/>
</filter>
<filter id="filter2_d" x="44" y="74" width="112" height="137" filterUnits="userSpaceOnUse" color-interpolation-filters="sRGB">
<feFlood flood-opacity="0" result="BackgroundImageFix"/>
<feColorMatrix in="SourceAlpha" type="matrix" values="0 0 0 0 0 0 0 0 0 0 0 0 0 0 0 0 0 0 127 0"/>
<feOffset dy="4"/>
<feGaussianBlur stdDeviation="4"/>
<feColorMatrix type="matrix" values="0 0 0 0 0 0 0 0 0 0 0 0 0 0 0 0 0 0 0.15 0"/>
<feBlend mode="normal" in2="BackgroundImageFix" result="effect1_dropShadow"/>
<feBlend mode="normal" in="SourceGraphic" in2="effect1_dropShadow" result="shape"/>
</filter>
<clipPath id="clip0">
<rect width="127" height="160" fill="white" transform="translate(13 4)"/>
</clipPath>
<clipPath id="clip1">
<rect width="60" height="76" fill="white" transform="translate(8 106)"/>
</clipPath>
<clipPath id="clip2">
<rect width="96" height="121" fill="white" transform="translate(52 78)"/>
</clipPath>
</defs>
</svg>
