<svg width="87" height="47" viewBox="0 0 87 47" fill="none" xmlns="http://www.w3.org/2000/svg">
<path d="M4.97605 45.6798H4.07104V43.3178H4.61711C5.12637 42.6669 5.40247 41.6096 5.46997 39.4645H4.61711V38.5967H9.90909V39.4676H9.05624V43.3178H9.97658V45.6798H9.05624L8.94579 44.21H5.09263L4.97605 45.6798ZM7.97637 43.3147V39.4889H6.37804C6.37804 40.9404 6.21238 42.5233 5.66017 43.3147H7.97637Z" fill="#1F2229"/>
<path d="M10.7373 47V46.1414H11.5902V39.4799H10.7373V38.6121H12.6087V39.4066H12.6884C12.8684 39.1096 13.1264 38.8672 13.4346 38.7057C13.7428 38.5441 14.0894 38.4695 14.4371 38.4899C15.7348 38.4899 16.6551 39.593 16.6551 41.3592C16.6551 43.2293 15.7348 44.3263 14.4248 44.3293C14.0831 44.34 13.7443 44.2637 13.4404 44.1076C13.1366 43.9514 12.8777 43.7207 12.6884 43.4371H12.6087L12.6639 44.3293V46.1414H13.5628V47.0153L10.7373 47ZM15.52 41.3622C15.52 39.9994 14.8696 39.4219 14.1211 39.4249C13.2713 39.4249 12.6639 39.9261 12.6639 40.9528V41.7289C12.6639 42.8259 13.3357 43.3851 14.118 43.3821C14.9003 43.379 15.5323 42.7801 15.5292 41.3622H15.52Z" fill="#1F2229"/>
<path d="M17.8608 47V46.1414H18.6676L19.3518 44.2865L17.551 39.4799H16.9098V38.6121H18.3547L19.8549 42.8198H19.9408L21.0697 39.4829H20.4378V38.6151H22.7018V39.4829H22.0883L19.6862 46.1414H20.4163V47.0122L17.8608 47Z" fill="#1F2229"/>
<path d="M23.205 44.21V43.3361H24.067V39.4645H23.205V38.5967H27.641V40.641H26.7575V39.4889H25.1561V43.3392H26.2053V44.2131L23.205 44.21Z" fill="#1F2229"/>
<path d="M28.3159 43.3362H29.178V39.4646H28.3129V38.5999H31.0494V39.4677H30.2333V42.6945H30.2885L32.6876 38.5999H34.6019V39.4707H33.746V43.3454H34.608V44.2163H31.8715V43.3454H32.6998V40.1552H32.6477L30.2364 44.2102H28.3129L28.3159 43.3362Z" fill="#1F2229"/>
<path d="M35.2368 41.4203C35.2368 39.5869 36.2584 38.4868 37.7279 38.4868C39.0348 38.4868 39.9674 39.2538 39.9674 40.7817C39.976 41.027 39.9534 41.2724 39.8999 41.512H36.4149C36.4149 42.7862 37.0284 43.3974 38.1052 43.3943C38.7104 43.4152 39.3042 43.2274 39.7864 42.8626V43.8404C39.2392 44.1905 38.595 44.3595 37.9457 44.3232C36.2676 44.308 35.2368 43.3912 35.2368 41.4203ZM38.8814 40.7175C38.8538 39.7458 38.3537 39.3546 37.6542 39.3546C36.9548 39.3546 36.5253 39.7672 36.3934 40.7175H38.8814Z" fill="#1F2229"/>
<path d="M46.8117 44.204H44.0752V43.3332H44.9372V39.4646H44.0752V38.5938H49.904V39.4616H49.0389V43.3332H49.904V44.2071H47.9682V39.4921H46.0048V43.3423H46.8025L46.8117 44.204Z" fill="#1F2229"/>
<path d="M50.6619 46.9998V46.1412H51.5147V39.4797H50.6619V38.5935H52.5332V39.3819H52.613C52.7942 39.0861 53.0525 38.8446 53.3603 38.6832C53.6682 38.5218 54.0142 38.4465 54.3616 38.4652C55.6593 38.4652 56.5766 39.5714 56.5797 41.3376C56.5797 43.2107 55.6593 44.3047 54.3494 44.3047C54.0075 44.3166 53.6682 44.2407 53.3642 44.0845C53.0601 43.9282 52.8015 43.6968 52.613 43.4124H52.5332L52.5884 44.3047V46.1412H53.4842V47.0151L50.6619 46.9998ZM55.4476 41.362C55.4476 39.9992 54.7973 39.4216 54.0487 39.4216C53.1959 39.4216 52.5915 39.9228 52.5915 40.9495V41.7257C52.5915 42.8227 53.2634 43.3849 54.0487 43.3788C54.8341 43.3727 55.4476 42.7799 55.4476 41.362Z" fill="#1F2229"/>
<path d="M58.8313 44.3078C57.7883 44.3078 57.2177 43.6355 57.2177 42.7799C57.2177 41.4507 58.2607 40.864 60.4665 40.8609V40.6042C60.4665 39.7975 60.0308 39.4095 59.1473 39.4095C58.5807 39.4088 58.0281 39.5851 57.5674 39.9137V38.8961C58.1035 38.6101 58.705 38.468 59.313 38.4836C60.8469 38.4836 61.5433 39.2903 61.5433 40.6226V43.3361H62.4084V44.2069H60.5278V43.3299H60.4634C60.1075 43.9289 59.7179 44.3078 58.8313 44.3078ZM60.4695 41.8632V41.6096C58.9141 41.6096 58.3527 41.9151 58.3527 42.6791C58.3492 42.785 58.3688 42.8905 58.4102 42.9881C58.4517 43.0858 58.514 43.1732 58.5928 43.2445C58.6716 43.3157 58.7651 43.369 58.8667 43.4007C58.9682 43.4323 59.0755 43.4415 59.1811 43.4277C59.8744 43.4277 60.4665 42.9021 60.4695 41.8632Z" fill="#1F2229"/>
<path d="M62.9115 43.3393H63.7705V39.4646H62.9054V38.5938H65.4916C67.1512 38.5938 67.685 39.2049 67.6881 39.9994C67.7053 40.3005 67.6072 40.5969 67.4137 40.8288C67.2201 41.0608 66.9454 41.211 66.6451 41.2492V41.3194C67.4979 41.4447 67.9121 41.955 67.9121 42.5906C67.9121 43.4676 67.3629 44.2102 65.7646 44.2102H62.9085L62.9115 43.3393ZM65.4762 40.965C66.28 40.965 66.5622 40.635 66.5622 40.1247C66.5622 39.6999 66.2278 39.4096 65.4732 39.4127H64.8596V40.9619L65.4762 40.965ZM65.6879 43.4096C66.3935 43.4096 66.7862 43.104 66.7862 42.5753C66.7862 41.9886 66.372 41.735 65.6879 41.735H64.8473V43.4126L65.6879 43.4096Z" fill="#1F2229"/>
<path d="M68.6361 43.3393H69.4951V39.4677H68.6331V38.5938H71.3695V39.4646H70.5596V42.6915H70.6179L73.0139 38.5968H74.9313V39.4677H74.0661V43.3423H74.9282V44.2163H72.1856V43.3484H73.0139V40.1552H72.9617L70.5596 44.2102H68.6423L68.6361 43.3393Z" fill="#1F2229"/>
<path d="M75.9191 44.2803C75.7901 44.2834 75.6613 44.27 75.5356 44.2406V43.2261C75.6211 43.2464 75.7085 43.2577 75.7964 43.2597C76.5879 43.2597 76.8579 41.8999 76.9254 39.4676H76.0725V38.6028H81.1344V39.4737H80.2723V43.3453H81.1344V44.2161H79.1955V39.5195H77.8518C77.8212 42.123 77.588 44.2864 75.9191 44.2803Z" fill="#1F2229"/>
<path d="M83.423 44.3078C82.3799 44.3078 81.8093 43.6386 81.8093 42.7799C81.8093 41.4568 82.8524 40.864 85.0612 40.864V40.6104C85.0612 39.7975 84.6256 39.4125 83.7451 39.4125C83.1774 39.4108 82.6235 39.5872 82.1621 39.9167V38.8961C82.6992 38.6129 83.3002 38.4719 83.9077 38.4866C85.4416 38.4866 86.138 39.2903 86.1411 40.6256V43.3391H87.0062V44.2131H85.1195V43.333H85.0551C84.6992 43.9319 84.3065 44.3078 83.423 44.3078ZM85.0581 41.8632V41.6096C83.4997 41.6096 82.9413 41.9152 82.9413 42.6791C82.9378 42.785 82.9574 42.8905 82.9988 42.9881C83.0403 43.0858 83.1026 43.1733 83.1814 43.2445C83.2602 43.3157 83.3537 43.369 83.4553 43.4007C83.5568 43.4323 83.6641 43.4415 83.7697 43.4277C84.463 43.4277 85.0581 42.9052 85.0581 41.8632Z" fill="#1F2229"/>
<path d="M0 11.4985V16.2105L12.7652 14.8109V9.71094L0 11.4985Z" fill="#1F2229"/>
<path d="M4.0741 16.4977V32.6502H8.74637V16.021L4.0741 16.4977Z" fill="#1F2229"/>
<path d="M14.4893 9.46965V32.6503H19.4131V8.77905L14.4893 9.46965Z" fill="#1F2229"/>
<path d="M20.3335 8.65071V13.9829L27.4447 13.2037V7.65454L20.3335 8.65071Z" fill="#1F2229"/>
<path d="M20.3335 17.9523V23.3823L24.9996 23.1287V17.552L20.3335 17.9523Z" fill="#1F2229"/>
<path d="M20.3335 27.2967V32.6503H27.4447V27.0828L20.3335 27.2967Z" fill="#1F2229"/>
<path d="M45.833 5.07246V32.6503H52.2908V4.16797L45.833 5.07246Z" fill="#1F2229"/>
<path d="M53.4965 3.99988V10.3435L62.9054 9.31377V2.68286L53.4965 3.99988Z" fill="#1F2229"/>
<path d="M53.4965 15.1135V21.5763L59.6628 21.2402V14.5879L53.4965 15.1135Z" fill="#1F2229"/>
<path d="M53.4965 26.2974V32.6502H62.9054V26.0132L53.4965 26.2974Z" fill="#1F2229"/>
<path d="M29.3252 7.39176V32.6503H34.9362V6.60645L29.3252 7.39176Z" fill="#1F2229"/>
<path d="M35.9823 26.826V32.6502H44.1243V26.5815L35.9823 26.826Z" fill="#1F2229"/>
<path d="M83.9966 2.37119C81.9596 0.452201 78.9654 -0.336174 75.6951 0.131351V7.1595C77.0174 7.08311 78.0942 7.57508 78.5727 8.56208C79.3274 10.1144 78.5482 12.449 76.7075 14.6093C73.8698 17.9554 66.326 24.7818 66.326 24.7818L77.1585 24.4274C83.7757 17.9859 86.1533 14.0777 86.5797 9.19767C86.6962 7.93926 86.5242 6.67093 86.0767 5.48839C85.6293 4.30585 84.918 3.23998 83.9966 2.37119Z" fill="#1F2229"/>
<path d="M64.9884 25.9491L64.9915 32.6503H86.9601V25.2891L64.9884 25.9491Z" fill="#1F2229"/>
<path d="M74.4312 0.30542C68.0471 1.6591 64.921 6.33741 65.2738 13.9675L72.0813 13.3564C71.7745 9.04172 73.0936 8.02111 74.4343 7.45886L74.4312 0.30542Z" fill="#1F2229"/>
</svg>
