<svg width="70" height="38" viewBox="0 0 70 38" fill="none" xmlns="http://www.w3.org/2000/svg">
<g clip-path="url(#clip0)">
<path d="M4.00368 36.9326H3.27551V35.0229H3.71488C4.12463 34.4966 4.34678 33.6418 4.40108 31.9075H3.71488V31.2058H7.97279V31.9099H7.28659V35.0229H8.02709V36.9326H7.28659L7.19772 35.7443H4.09747L4.00368 36.9326ZM6.41773 35.0204V31.9272H5.13171C5.13171 33.1007 4.99842 34.3805 4.55412 35.0204H6.41773Z" fill="white"/>
<path d="M8.63928 38.0001V37.3058H9.32548V31.92H8.63928V31.2183H10.145V31.8607H10.2092C10.3539 31.6205 10.5615 31.4246 10.8095 31.294C11.0575 31.1633 11.3364 31.103 11.6161 31.1195C12.6602 31.1195 13.4007 32.0114 13.4007 33.4394C13.4007 34.9514 12.6602 35.8383 11.6062 35.8408C11.3313 35.8494 11.0587 35.7877 10.8142 35.6615C10.5697 35.5352 10.3615 35.3486 10.2092 35.1194H10.145L10.1894 35.8408V37.3058H10.9126V38.0124L8.63928 38.0001ZM12.4874 33.4418C12.4874 32.34 11.9642 31.873 11.3619 31.8755C10.6781 31.8755 10.1894 32.2807 10.1894 33.1108V33.7383C10.1894 34.6252 10.73 35.0774 11.3594 35.0749C11.9888 35.0724 12.4973 34.5882 12.4948 33.4418H12.4874Z" fill="white"/>
<path d="M14.3708 38V37.3058H15.02L15.5704 35.8061L14.1215 31.9199H13.6056V31.2183H14.7682L15.9752 34.6203H16.0443L16.9527 31.9224H16.4442V31.2207H18.2658V31.9224H17.7722L15.8395 37.3058H16.4269V38.0099L14.3708 38Z" fill="white"/>
<path d="M18.6707 35.7443V35.0377H19.3643V31.9075H18.6707V31.2058H22.2399V32.8586H21.529V31.9272H20.2405V35.0402H21.0847V35.7467L18.6707 35.7443Z" fill="white"/>
<path d="M22.7829 35.0378H23.4765V31.9075H22.7804V31.2084H24.9822V31.91H24.3256V34.519H24.37L26.3003 31.2084H27.8405V31.9125H27.1519V35.0452H27.8455V35.7493H25.6437V35.0452H26.3101V32.4659H26.2682L24.3281 35.7444H22.7804L22.7829 35.0378Z" fill="white"/>
<path d="M28.3514 33.4887C28.3514 32.0064 29.1734 31.1169 30.3557 31.1169C31.4073 31.1169 32.1576 31.7371 32.1576 32.9724C32.1646 33.1707 32.1464 33.3691 32.1033 33.5628H29.2993C29.2993 34.5931 29.793 35.0872 30.6594 35.0847C31.1462 35.1016 31.624 34.9497 32.012 34.6548V35.4454C31.5718 35.7284 31.0534 35.8651 30.531 35.8358C29.1808 35.8234 28.3514 35.0822 28.3514 33.4887ZM31.2838 32.9205C31.2616 32.1348 30.8593 31.8186 30.2965 31.8186C29.7337 31.8186 29.3881 32.1521 29.282 32.9205H31.2838Z" fill="white"/>
<path d="M37.6645 35.7394H35.4628V35.0352H36.1564V31.9075H35.4628V31.2034H40.1526V31.905H39.4566V35.0352H40.1526V35.7418H38.5951V31.9297H37.0154V35.0426H37.6571L37.6645 35.7394Z" fill="white"/>
<path d="M40.7625 38V37.3058H41.4487V31.9199H40.7625V31.2034H42.2681V31.8409H42.3323C42.4781 31.6017 42.6859 31.4065 42.9336 31.276C43.1814 31.1455 43.4598 31.0845 43.7393 31.0997C44.7834 31.0997 45.5214 31.994 45.5239 33.422C45.5239 34.9365 44.7834 35.821 43.7294 35.821C43.4543 35.8306 43.1813 35.7693 42.9367 35.6429C42.6921 35.5166 42.484 35.3295 42.3323 35.0995H42.2681L42.3126 35.821V37.3058H43.0333V38.0124L40.7625 38ZM44.6131 33.4418C44.6131 32.3399 44.0898 31.873 43.4875 31.873C42.8013 31.873 42.315 32.2781 42.315 33.1083V33.7358C42.315 34.6227 42.8556 35.0773 43.4875 35.0724C44.1194 35.0674 44.6131 34.5881 44.6131 33.4418Z" fill="white"/>
<path d="M47.3356 35.8234C46.4963 35.8234 46.0372 35.2799 46.0372 34.5881C46.0372 33.5134 46.8765 33.039 48.6512 33.0366V32.829C48.6512 32.1768 48.3007 31.863 47.5898 31.863C47.1339 31.8625 46.6893 32.0051 46.3186 32.2707V31.448C46.75 31.2168 47.234 31.1019 47.7231 31.1145C48.9573 31.1145 49.5176 31.7667 49.5176 32.8439V35.0377H50.2137V35.7419H48.7006V35.0328H48.6487C48.3624 35.517 48.0489 35.8234 47.3356 35.8234ZM48.6537 33.8469V33.6419C47.4022 33.6419 46.9505 33.8889 46.9505 34.5066C46.9476 34.5922 46.9634 34.6775 46.9968 34.7564C47.0301 34.8354 47.0803 34.9061 47.1437 34.9637C47.2071 35.0213 47.2823 35.0644 47.364 35.09C47.4458 35.1156 47.5321 35.123 47.617 35.1119C48.1748 35.1119 48.6512 34.6869 48.6537 33.8469Z" fill="white"/>
<path d="M50.6185 35.0402H51.3096V31.9075H50.6135V31.2034H52.6943C54.0297 31.2034 54.4592 31.6975 54.4617 32.3398C54.4755 32.5833 54.3966 32.8229 54.2409 33.0105C54.0851 33.198 53.8641 33.3194 53.6224 33.3503V33.4071C54.3087 33.5084 54.6419 33.921 54.6419 34.4349C54.6419 35.1439 54.2 35.7443 52.914 35.7443H50.616L50.6185 35.0402ZM52.682 33.1205C53.3287 33.1205 53.5558 32.8537 53.5558 32.4411C53.5558 32.0977 53.2868 31.863 52.6795 31.8655H52.1859V33.1181L52.682 33.1205ZM52.8523 35.097C53.42 35.097 53.736 34.8499 53.736 34.4225C53.736 33.9482 53.4028 33.7431 52.8523 33.7431H52.176V35.0995L52.8523 35.097Z" fill="white"/>
<path d="M55.2244 35.0402H55.9155V31.91H55.2219V31.2034H57.4237V31.9075H56.772V34.5164H56.8189L58.7467 31.2058H60.2895V31.91H59.5934V35.0426H60.287V35.7492H58.0803V35.0476H58.7467V32.4658H58.7048L56.772 35.7443H55.2293L55.2244 35.0402Z" fill="white"/>
<path d="M61.0843 35.8012C60.9805 35.8036 60.8768 35.7929 60.7758 35.769V34.9488C60.8445 34.9652 60.9149 34.9743 60.9856 34.976C61.6224 34.976 61.8396 33.8766 61.8939 31.91H61.2077V31.2108H65.2805V31.9149H64.5869V35.0452H65.2805V35.7493H63.7205V31.952H62.6394C62.6147 34.0569 62.4271 35.8061 61.0843 35.8012Z" fill="white"/>
<path d="M67.1218 35.8234C66.2826 35.8234 65.8235 35.2823 65.8235 34.5881C65.8235 33.5183 66.6627 33.039 68.4399 33.039V32.834C68.4399 32.1768 68.0894 31.8655 67.381 31.8655C66.9242 31.8641 66.4786 32.0068 66.1073 32.2732V31.448C66.5394 31.219 67.0231 31.105 67.5118 31.1169C68.746 31.1169 69.3063 31.7667 69.3088 32.8463V35.0402H70.0049V35.7468H68.4868V35.0353H68.435C68.1487 35.5195 67.8327 35.8234 67.1218 35.8234ZM68.4375 33.8469V33.6419C67.1835 33.6419 66.7343 33.8889 66.7343 34.5066C66.7314 34.5922 66.7472 34.6775 66.7806 34.7564C66.8139 34.8354 66.8641 34.9061 66.9275 34.9637C66.9909 35.0213 67.0661 35.0644 67.1478 35.09C67.2295 35.1156 67.3159 35.123 67.4008 35.1119C67.9586 35.1119 68.4375 34.6894 68.4375 33.8469Z" fill="white"/>
<path d="M0 9.29685V13.1065L10.2708 11.975V7.85156L0 9.29685Z" fill="white"/>
<path d="M3.27795 13.3387V26.3981H7.03726V12.9532L3.27795 13.3387Z" fill="white"/>
<path d="M11.658 7.65625V26.3981H15.6197V7.0979L11.658 7.65625Z" fill="white"/>
<path d="M16.3602 6.99413V11.3053L22.0819 10.6753V6.18872L16.3602 6.99413Z" fill="white"/>
<path d="M16.3602 14.5147V18.9049L20.1146 18.6999V14.191L16.3602 14.5147Z" fill="white"/>
<path d="M16.3602 22.0697V26.3981H22.0819V21.8967L16.3602 22.0697Z" fill="white"/>
<path d="M36.8772 4.10116V26.3981H42.0731V3.36987L36.8772 4.10116Z" fill="white"/>
<path d="M43.0431 3.23401V8.36294L50.6135 7.53035V2.16919L43.0431 3.23401Z" fill="white"/>
<path d="M43.0431 12.2195V17.4448L48.0045 17.173V11.7946L43.0431 12.2195Z" fill="white"/>
<path d="M43.0431 21.2617V26.3981H50.6135V21.032L43.0431 21.2617Z" fill="white"/>
<path d="M23.595 5.97637V26.3982H28.1096V5.34143L23.595 5.97637Z" fill="white"/>
<path d="M28.9513 21.6892V26.3982H35.5023V21.4916L28.9513 21.6892Z" fill="white"/>
<path d="M67.5835 1.91713C65.9446 0.36561 63.5355 -0.2718 60.9042 0.106199V5.78853C61.968 5.72677 62.8344 6.12453 63.2195 6.92253C63.8267 8.17759 63.1998 10.0651 61.7187 11.8118C59.4355 14.5171 53.3658 20.0364 53.3658 20.0364L62.0816 19.7498C67.4058 14.5418 69.3188 11.3819 69.6619 7.43641C69.7556 6.41897 69.6172 5.39352 69.2572 4.43742C68.8972 3.48132 68.3249 2.61955 67.5835 1.91713Z" fill="white"/>
<path d="M52.2896 20.9802L52.292 26.3982H69.9679V20.4465L52.2896 20.9802Z" fill="white"/>
<path d="M59.8872 0.24707C54.7506 1.34154 52.2353 5.124 52.5192 11.293L57.9964 10.7989C57.7496 7.31046 58.811 6.48529 59.8897 6.0307L59.8872 0.24707Z" fill="white"/>
</g>
<defs>
<clipPath id="clip0">
<rect width="70" height="38" fill="white"/>
</clipPath>
</defs>
</svg>
