<svg width="187" height="144" viewBox="0 0 187 144" fill="none" xmlns="http://www.w3.org/2000/svg">
<g clip-path="url(#clip0)" filter="url(#filter0_d)">
<path d="M175.93 21.9307C176.19 23.2634 171.397 36.8507 161.419 40.0068C145.172 45.1449 129.631 40.4332 129.631 40.4332L132.582 36.2765C132.582 36.2765 146.675 35.111 154.135 32.6855C168.527 28.009 167.835 18.9406 167.835 18.9406C170.332 18.6438 175.667 20.6077 175.93 21.9307Z" fill="#E6488E"/>
<path d="M174.035 27.5037C175.399 24.7087 176.031 22.4395 175.93 21.9307C175.667 20.6065 170.332 18.6426 167.832 18.9406C167.832 18.9418 171.965 19.5864 174.035 27.5037Z" fill="#E5488E"/>
<path d="M132.58 36.2777C130.831 35.4127 129.628 40.4345 129.628 40.4345C129.628 40.4345 145.17 45.1461 161.416 40.008C164.5 39.0315 167.091 37.0579 169.188 34.7597C168.558 34.2423 152.719 45.7858 132.58 36.2777Z" fill="#E5488E"/>
<path d="M175.93 21.9306C175.949 22.0179 169.946 16.5381 155.825 22.7787C148.856 25.8584 129.628 40.4344 129.628 40.4344L129.961 32.5207C129.961 32.5207 151.336 1.78042 164.961 5.96142C164.961 5.96142 174.189 14.1538 175.93 21.9306Z" fill="#FF79B5"/>
<path d="M175.93 21.9307C175.944 21.9925 171.238 12.2288 164.897 8.88494C162.198 7.4626 159.088 7.28451 156.086 8.55177C146.027 12.7921 130.067 33.6305 130.067 33.6305L129.962 32.5232C129.962 32.5232 151.336 1.78051 164.961 5.96151C164.961 5.96151 174.189 14.1539 175.93 21.9307Z" fill="#E5488E"/>
<g style="mix-blend-mode:multiply">
<path d="M137.901 32.7012L129.626 40.4344L129.958 32.5207L138.045 26.2982C138.045 26.2982 133.095 31.0971 132.648 32.9617C133.266 32.8817 136.966 30.22 136.966 30.22C136.966 30.22 132.11 34.0617 132.592 35.392C133.705 35.1715 137.901 32.7012 137.901 32.7012Z" fill="#8DC374"/>
</g>
<path d="M121.993 36.0367C121.993 36.0367 107.967 34.2303 100.628 31.4692C86.4545 26.1385 87.5554 17.1137 87.5554 17.1137C85.5322 16.7818 81.5902 17.8503 80 18.965V22.8625C81.5447 27.5039 85.7265 35.7786 93.0205 38.4525C109.02 44.3224 124.753 40.3231 124.753 40.3231L121.993 36.0367Z" fill="#E6488E"/>
<path d="M80 18.965V22.8503C80.2542 23.6124 80.5709 24.4641 80.9702 25.3837C83.3903 17.5753 87.5458 17.1137 87.5458 17.1137C85.5322 16.7818 81.5902 17.8503 80 18.965Z" fill="#E5488E"/>
<path d="M121.993 36.0367C123.778 35.2516 124.751 40.3231 124.751 40.3231C124.751 40.3231 109.018 44.3211 93.0181 38.4525C89.978 37.3391 87.4787 35.2467 85.4867 32.8564C86.1403 32.3669 101.45 44.618 121.993 36.0367Z" fill="#E5488E"/>
<path d="M90.9937 4.27812C90.9937 4.27812 82.9526 10.7986 80 17.811V19.3326C81.9476 18.2822 88.1706 15.927 99.3719 21.4989C106.198 24.8912 124.753 40.3249 124.753 40.3249L124.777 32.4051C124.777 32.4051 104.789 0.71985 90.9937 4.27812Z" fill="#FF79B5"/>
<path d="M90.9937 4.2778C90.9937 4.2778 82.9526 10.7983 80 17.8106V18.5909C81.5938 15.9739 85.8453 9.59885 90.9278 7.20244C93.6861 5.90247 96.8042 5.86975 99.7484 7.26907C109.605 11.9638 124.62 33.5012 124.62 33.5012L124.777 32.3999C124.777 32.3999 104.789 0.719524 90.9937 4.2778Z" fill="#E5488E"/>
<g style="mix-blend-mode:multiply">
<path d="M116.834 32.2202L124.75 40.323L124.774 32.4032L116.978 25.8185C116.978 25.8185 121.711 30.8379 122.068 32.7242C121.453 32.6152 117.877 29.7887 117.877 29.7887C117.877 29.7887 122.554 33.8449 122.017 35.1546C120.918 34.8808 116.834 32.2202 116.834 32.2202Z" fill="#8DC374"/>
</g>
<path d="M130.799 41.8713C129.982 43.0089 123.646 42.7582 122.966 41.6944C122.286 40.6307 122.055 31.2752 123.223 30.2539C123.604 29.9207 124.48 29.7293 125.517 29.6578C126.05 29.6203 126.532 30.8476 127.107 30.8694C127.714 30.8912 128.413 29.7136 128.962 29.7911C129.946 29.9328 130.75 30.1546 131.055 30.432C132.004 31.2958 131.62 40.7337 130.799 41.8713Z" fill="#E5488E"/>
<path d="M130.297 41.9757C129.586 42.957 124.054 42.7389 123.462 41.8194C122.869 40.8998 122.664 32.8237 123.682 31.9417C124.019 31.651 124.782 31.491 125.685 31.4268C126.152 31.3953 126.575 32.453 127.075 32.4712C127.606 32.493 128.216 31.4741 128.695 31.5419C129.556 31.6631 130.254 31.8569 130.523 32.0956C131.348 32.8431 131.013 40.9943 130.297 41.9757Z" fill="#FF79B5"/>
<path d="M124.027 34.6603C123.983 36.5878 123.855 38.5917 124.44 40.2491C124.515 40.4648 124.603 41.1214 124.819 41.2305C125.419 41.5309 125.122 40.8476 125.447 40.4272C126.303 39.3271 125.852 40.7361 126.628 41.1214C127.628 41.6181 126.982 35.873 128.381 39.7887C128.676 40.6138 129.144 41.5903 129.544 40.283C129.806 39.441 129.582 38.0417 129.633 37.133C129.712 35.7543 130.209 34.1345 128.849 33.9552C127.441 33.7735 128.135 35.6053 127.164 36.3855C126.706 35.7373 126.778 34.6433 126.074 34.1587C125.234 33.5723 125.178 34.5343 125.193 35.6126C124.618 35.5605 124.765 33.8776 124.138 33.5009L124.027 34.6603Z" fill="#F86BAA"/>
<path d="M179 38.8618H80V61.8931H179V38.8618Z" fill="#31C3F2"/>
<path d="M173.89 61.8932H83.8773V129H173.89V61.8932Z" fill="#31C3F2"/>
<path d="M139.691 38.8618H118.074V61.8931H139.691V38.8618Z" fill="white"/>
<path d="M138.588 61.8932H119.177V129H138.588V61.8932Z" fill="white"/>
<g style="mix-blend-mode:multiply">
<path d="M130.651 70.0286C96.4552 70.0286 83.8796 61.8883 83.8796 61.8883H173.889C173.889 61.8883 164.849 70.0286 130.651 70.0286Z" fill="#DADADA"/>
</g>
</g>
<g clip-path="url(#clip1)" filter="url(#filter1_d)">
<path d="M74.8602 57.4798C75.0416 58.4074 71.7007 67.8642 64.7464 70.0608C53.423 73.6369 42.5911 70.3576 42.5911 70.3576L44.6482 67.4645C44.6482 67.4645 54.4703 66.6533 59.6702 64.9652C69.7005 61.7103 69.2182 55.3988 69.2182 55.3988C70.9584 55.1922 74.6772 56.559 74.8602 57.4798Z" fill="#E6488E"/>
<path d="M73.5395 61.3586C74.4899 59.4133 74.9304 57.8339 74.8602 57.4798C74.6771 56.5581 70.9584 55.1912 69.2165 55.3987C69.2165 55.3995 72.0969 55.8481 73.5395 61.3586Z" fill="#E5488E"/>
<path d="M44.6465 67.4654C43.4278 66.8633 42.5895 70.3585 42.5895 70.3585C42.5895 70.3585 53.4213 73.6378 64.7447 70.0617C66.8937 69.382 68.7 68.0084 70.161 66.4088C69.7222 66.0487 58.6831 74.083 44.6465 67.4654Z" fill="#E5488E"/>
<path d="M74.8603 57.4799C74.8736 57.5406 70.6893 53.7267 60.8479 58.0701C55.9908 60.2136 42.5895 70.3585 42.5895 70.3585L42.821 64.8505C42.821 64.8505 57.7193 43.4553 67.2155 46.3653C67.2155 46.3653 73.6466 52.0672 74.8603 57.4799Z" fill="#FF79B5"/>
<path d="M74.8602 57.4797C74.8703 57.5227 71.5904 50.7272 67.1704 48.3999C65.2897 47.4099 63.1223 47.286 61.0293 48.168C54.019 51.1193 42.8954 65.6228 42.8954 65.6228L42.8218 64.8521C42.8218 64.8521 57.7193 43.4552 67.2155 46.3652C67.2155 46.3652 73.6466 52.0671 74.8602 57.4797Z" fill="#E5488E"/>
<g style="mix-blend-mode:multiply">
<path d="M48.3552 64.9761L42.5878 70.3584L42.8193 64.8505L48.4555 60.5197C48.4555 60.5197 45.0059 63.8597 44.6941 65.1574C45.1246 65.1018 47.7032 63.2492 47.7032 63.2492C47.7032 63.2492 44.3188 65.9231 44.6548 66.8489C45.4305 66.6955 48.3552 64.9761 48.3552 64.9761Z" fill="#8DC374"/>
</g>
<path d="M37.2675 67.2975C37.2675 67.2975 27.4922 66.0403 22.3767 64.1186C12.4986 60.4083 13.2659 54.1271 13.2659 54.1271C11.8558 53.8961 9.10835 54.6398 8 55.4156V58.1283C9.07658 61.3587 11.9912 67.1179 17.0749 68.9789C28.2261 73.0644 39.1917 70.2809 39.1917 70.2809L37.2675 67.2975Z" fill="#E6488E"/>
<path d="M8 55.4156V58.1198C8.1772 58.6502 8.39787 59.243 8.67621 59.883C10.363 54.4484 13.2592 54.1271 13.2592 54.1271C11.8558 53.8961 9.10835 54.6398 8 55.4156Z" fill="#E5488E"/>
<path d="M37.2676 67.2976C38.5122 66.7511 39.1901 70.2809 39.1901 70.2809C39.1901 70.2809 28.2245 73.0635 17.0733 68.9789C14.9544 68.204 13.2125 66.7478 11.8241 65.0841C12.2796 64.7434 22.9502 73.2701 37.2676 67.2976Z" fill="#E5488E"/>
<path d="M15.6623 45.1934C15.6623 45.1934 10.0579 49.7316 8 54.6122V55.6713C9.35743 54.9403 13.6947 53.301 21.5016 57.179C26.2593 59.5401 39.1917 70.2819 39.1917 70.2819L39.2084 64.7698C39.2084 64.7698 25.2772 42.7168 15.6623 45.1934Z" fill="#FF79B5"/>
<path d="M15.6623 45.1931C15.6623 45.1931 10.0579 49.7313 8 54.6119V55.1549C9.11085 53.3336 12.074 48.8965 15.6163 47.2286C17.5388 46.3238 19.712 46.3011 21.7641 47.275C28.634 50.5425 39.0989 65.5325 39.0989 65.5325L39.2084 64.766C39.2084 64.766 25.2772 42.7165 15.6623 45.1931Z" fill="#E5488E"/>
<g style="mix-blend-mode:multiply">
<path d="M33.6725 64.6413L39.1892 70.2808L39.2059 64.7686L33.7728 60.1857C33.7728 60.1857 37.0711 63.6792 37.3202 64.9921C36.8914 64.9162 34.3989 62.9489 34.3989 62.9489C34.3989 62.9489 37.6587 65.7721 37.2843 66.6836C36.5186 66.493 33.6725 64.6413 33.6725 64.6413Z" fill="#8DC374"/>
</g>
<path d="M43.4052 71.3585C42.836 72.1503 38.4201 71.9757 37.9462 71.2354C37.4723 70.495 37.311 63.9836 38.1251 63.2728C38.3909 63.0409 39.0011 62.9076 39.7241 62.8579C40.0952 62.8317 40.4312 63.6859 40.8324 63.7011C41.2554 63.7163 41.7427 62.8967 42.1247 62.9506C42.8109 63.0493 43.3709 63.2036 43.5841 63.3967C44.2452 63.9979 43.9778 70.5667 43.4052 71.3585Z" fill="#E5488E"/>
<path d="M43.0558 71.431C42.5602 72.114 38.7044 71.9622 38.2915 71.3222C37.8785 70.6822 37.7356 65.0612 38.4453 64.4474C38.6801 64.245 39.2117 64.1337 39.8411 64.089C40.1663 64.0671 40.4613 64.8032 40.8099 64.8158C41.1802 64.831 41.6048 64.1219 41.9391 64.1691C42.5393 64.2534 43.0258 64.3883 43.213 64.5544C43.7881 65.0747 43.5548 70.7479 43.0558 71.431Z" fill="#FF79B5"/>
<path d="M38.6852 66.3396C38.6551 67.6811 38.5657 69.0758 38.9736 70.2294C39.0254 70.3795 39.0872 70.8365 39.2377 70.9124C39.6556 71.1215 39.4483 70.6459 39.6748 70.3533C40.2716 69.5877 39.9574 70.5684 40.4982 70.8365C41.1953 71.1822 40.7447 67.1836 41.7202 69.9089C41.9258 70.4832 42.2518 71.1628 42.531 70.253C42.7132 69.6669 42.5569 68.693 42.5928 68.0606C42.648 67.101 42.994 65.9736 42.0462 65.8488C41.0649 65.7223 41.5488 66.9973 40.8718 67.5403C40.5525 67.0892 40.6026 66.3278 40.112 65.9905C39.5269 65.5823 39.4876 66.2519 39.4985 67.0023C39.0973 66.9661 39.2001 65.7948 38.7629 65.5326L38.6852 66.3396Z" fill="#F86BAA"/>
<path d="M77 69.2639H8V85.2937H77V69.2639Z" fill="#31C3F2"/>
<path d="M73.4384 85.2936H10.7023V132H73.4384V85.2936Z" fill="#31C3F2"/>
<path d="M49.6031 69.2639H34.5368V85.2937H49.6031V69.2639Z" fill="white"/>
<path d="M48.8341 85.2936H35.3049V132H48.8341V85.2936Z" fill="white"/>
<g style="mix-blend-mode:multiply">
<path d="M43.3024 90.9559C19.4688 90.9559 10.704 85.2903 10.704 85.2903H73.4376C73.4376 85.2903 67.1369 90.9559 43.3024 90.9559Z" fill="#DADADA"/>
</g>
</g>
<g clip-path="url(#clip2)" filter="url(#filter2_d)">
<path d="M99.6045 80.1764C99.7228 80.7841 97.5439 86.9799 93.0085 88.4191C85.6237 90.7621 78.5594 88.6136 78.5594 88.6136L79.901 86.7181C79.901 86.7181 86.3068 86.1866 89.698 85.0806C96.2395 82.9481 95.9249 78.8129 95.9249 78.8129C97.0599 78.6776 99.4851 79.5731 99.6045 80.1764Z" fill="#E6488E"/>
<path d="M98.7432 82.7177C99.363 81.4432 99.6503 80.4084 99.6045 80.1764C99.4851 79.5725 97.0599 78.677 95.9238 78.8129C95.9238 78.8135 97.8023 79.1074 98.7432 82.7177Z" fill="#E5488E"/>
<path d="M79.8999 86.7187C79.1051 86.3242 78.5583 88.6141 78.5583 88.6141C78.5583 88.6141 85.6226 90.7626 93.0074 88.4197C94.4089 87.9744 95.5869 87.0744 96.5398 86.0264C96.2536 85.7905 89.0542 91.0543 79.8999 86.7187Z" fill="#E5488E"/>
<path d="M99.6045 80.1764C99.6132 80.2162 96.8843 77.7174 90.466 80.5631C87.2983 81.9675 78.5583 88.6141 78.5583 88.6141L78.7093 85.0054C78.7093 85.0054 88.4256 70.9879 94.6188 72.8944C94.6188 72.8944 98.813 76.6302 99.6045 80.1764Z" fill="#FF79B5"/>
<path d="M99.6045 80.1764C99.6111 80.2045 97.472 75.7523 94.5894 74.2275C93.3628 73.5789 91.9493 73.4977 90.5843 74.0756C86.0124 76.0092 78.7579 85.5115 78.7579 85.5115L78.7099 85.0065C78.7099 85.0065 88.4256 70.9879 94.6188 72.8944C94.6188 72.8944 98.813 76.6301 99.6045 80.1764Z" fill="#E5488E"/>
<g style="mix-blend-mode:multiply">
<path d="M82.3186 85.0877L78.5573 88.6141L78.7083 85.0054L82.384 82.168C82.384 82.168 80.1343 84.3563 79.931 85.2065C80.2117 85.17 81.8934 83.9563 81.8934 83.9563C81.8934 83.9563 79.6862 85.7081 79.9053 86.3147C80.4112 86.2142 82.3186 85.0877 82.3186 85.0877Z" fill="#8DC374"/>
</g>
<path d="M75.0875 86.6087C75.0875 86.6087 68.7123 85.785 65.3761 84.5259C58.9339 82.0951 59.4343 77.9798 59.4343 77.9798C58.5147 77.8284 56.7228 78.3157 56 78.824V80.6012C56.7021 82.7177 58.603 86.491 61.9184 87.7103C69.1909 90.387 76.3424 88.5633 76.3424 88.5633L75.0875 86.6087Z" fill="#E6488E"/>
<path d="M56 78.824V80.5957C56.1156 80.9432 56.2595 81.3316 56.441 81.7509C57.5411 78.1903 59.4299 77.9798 59.4299 77.9798C58.5147 77.8284 56.7228 78.3157 56 78.824Z" fill="#E5488E"/>
<path d="M75.0875 86.6087C75.8992 86.2507 76.3413 88.5633 76.3413 88.5633C76.3413 88.5633 69.1898 90.3864 61.9173 87.7103C60.5354 87.2026 59.3994 86.2485 58.494 85.1585C58.7911 84.9353 65.7501 90.5218 75.0875 86.6087Z" fill="#E5488E"/>
<path d="M60.9972 72.1265C60.9972 72.1265 57.3421 75.0998 56 78.2975V78.9914C56.8853 78.5124 59.7139 77.4384 64.8054 79.9792C67.9082 81.526 76.3424 88.5638 76.3424 88.5638L76.3533 84.9524C76.3533 84.9524 67.2677 70.5039 60.9972 72.1265Z" fill="#FF79B5"/>
<path d="M60.9972 72.1261C60.9972 72.1261 57.3421 75.0995 56 78.2971V78.6529C56.7245 77.4596 58.6569 74.5525 60.9672 73.4598C62.221 72.867 63.6383 72.8521 64.9766 73.4902C69.4569 75.6309 76.2819 85.452 76.2819 85.452L76.3533 84.9498C76.3533 84.9498 67.2677 70.5036 60.9972 72.1261Z" fill="#E5488E"/>
<g style="mix-blend-mode:multiply">
<path d="M72.7429 84.8684L76.3407 88.5633L76.3516 84.9518L72.8083 81.9492C72.8083 81.9492 74.9594 84.2381 75.1218 85.0982C74.8422 85.0485 73.2166 83.7596 73.2166 83.7596C73.2166 83.7596 75.3426 85.6093 75.0984 86.2065C74.5991 86.0816 72.7429 84.8684 72.7429 84.8684Z" fill="#8DC374"/>
</g>
<path d="M79.0903 89.2693C78.7191 89.7881 75.8392 89.6737 75.5301 89.1887C75.2211 88.7036 75.1158 84.4375 75.6468 83.9718C75.8201 83.8199 76.2181 83.7326 76.6896 83.7C76.9317 83.6828 77.1508 84.2425 77.4124 84.2524C77.6883 84.2624 78.0061 83.7254 78.2552 83.7607C78.7028 83.8254 79.068 83.9265 79.207 84.053C79.6382 84.4469 79.4637 88.7506 79.0903 89.2693Z" fill="#E5488E"/>
<path d="M78.8625 89.3169C78.5392 89.7644 76.0246 89.665 75.7553 89.2457C75.486 88.8263 75.3928 85.1436 75.8556 84.7415C76.0088 84.6089 76.3555 84.5359 76.7659 84.5067C76.978 84.4923 77.1704 84.9746 77.3977 84.9829C77.6392 84.9928 77.9161 84.5282 78.1342 84.5591C78.5256 84.6144 78.8429 84.7028 78.965 84.8116C79.34 85.1525 79.1879 88.8694 78.8625 89.3169Z" fill="#FF79B5"/>
<path d="M76.0121 85.9811C75.9925 86.8601 75.9342 87.7738 76.2002 88.5296C76.234 88.6279 76.2743 88.9274 76.3724 88.9771C76.645 89.1141 76.5098 88.8025 76.6575 88.6108C77.0468 88.1092 76.8418 88.7517 77.1945 88.9274C77.6491 89.1539 77.3553 86.5341 77.9915 88.3197C78.1256 88.6959 78.3382 89.1412 78.5202 88.5451C78.6391 88.1611 78.5371 87.523 78.5606 87.1087C78.5965 86.48 78.8222 85.7413 78.2041 85.6596C77.5641 85.5767 77.8797 86.412 77.4381 86.7678C77.2299 86.4722 77.2626 85.9734 76.9426 85.7524C76.561 85.485 76.5354 85.9236 76.5425 86.4153C76.2809 86.3916 76.3479 85.6242 76.0628 85.4524L76.0121 85.9811Z" fill="#F86BAA"/>
<path d="M101 87.897H56V98.3992H101V87.897Z" fill="#31C3F2"/>
<path d="M98.6772 98.3993H57.7624V129H98.6772V98.3993Z" fill="#31C3F2"/>
<path d="M83.1324 87.897H73.3066V98.3992H83.1324V87.897Z" fill="white"/>
<path d="M82.6309 98.3993H73.8076V129H82.6309V98.3993Z" fill="white"/>
<g style="mix-blend-mode:multiply">
<path d="M79.0233 102.109C63.4797 102.109 57.7635 98.3971 57.7635 98.3971H98.6767C98.6767 98.3971 94.5675 102.109 79.0233 102.109Z" fill="#DADADA"/>
</g>
</g>
<defs>
<filter id="filter0_d" x="72" y="0" width="115" height="141" filterUnits="userSpaceOnUse" color-interpolation-filters="sRGB">
<feFlood flood-opacity="0" result="BackgroundImageFix"/>
<feColorMatrix in="SourceAlpha" type="matrix" values="0 0 0 0 0 0 0 0 0 0 0 0 0 0 0 0 0 0 127 0"/>
<feOffset dy="4"/>
<feGaussianBlur stdDeviation="4"/>
<feColorMatrix type="matrix" values="0 0 0 0 0 0 0 0 0 0 0 0 0 0 0 0 0 0 0.15 0"/>
<feBlend mode="normal" in2="BackgroundImageFix" result="effect1_dropShadow"/>
<feBlend mode="normal" in="SourceGraphic" in2="effect1_dropShadow" result="shape"/>
</filter>
<filter id="filter1_d" x="0" y="41" width="85" height="103" filterUnits="userSpaceOnUse" color-interpolation-filters="sRGB">
<feFlood flood-opacity="0" result="BackgroundImageFix"/>
<feColorMatrix in="SourceAlpha" type="matrix" values="0 0 0 0 0 0 0 0 0 0 0 0 0 0 0 0 0 0 127 0"/>
<feOffset dy="4"/>
<feGaussianBlur stdDeviation="4"/>
<feColorMatrix type="matrix" values="0 0 0 0 0 0 0 0 0 0 0 0 0 0 0 0 0 0 0.15 0"/>
<feBlend mode="normal" in2="BackgroundImageFix" result="effect1_dropShadow"/>
<feBlend mode="normal" in="SourceGraphic" in2="effect1_dropShadow" result="shape"/>
</filter>
<filter id="filter2_d" x="48" y="68" width="61" height="73" filterUnits="userSpaceOnUse" color-interpolation-filters="sRGB">
<feFlood flood-opacity="0" result="BackgroundImageFix"/>
<feColorMatrix in="SourceAlpha" type="matrix" values="0 0 0 0 0 0 0 0 0 0 0 0 0 0 0 0 0 0 127 0"/>
<feOffset dy="4"/>
<feGaussianBlur stdDeviation="4"/>
<feColorMatrix type="matrix" values="0 0 0 0 0 0 0 0 0 0 0 0 0 0 0 0 0 0 0.15 0"/>
<feBlend mode="normal" in2="BackgroundImageFix" result="effect1_dropShadow"/>
<feBlend mode="normal" in="SourceGraphic" in2="effect1_dropShadow" result="shape"/>
</filter>
<clipPath id="clip0">
<rect width="99" height="125" fill="white" transform="translate(80 4)"/>
</clipPath>
<clipPath id="clip1">
<rect width="69" height="87" fill="white" transform="translate(8 45)"/>
</clipPath>
<clipPath id="clip2">
<rect width="45" height="57" fill="white" transform="translate(56 72)"/>
</clipPath>
</defs>
</svg>
