<svg width="99" height="116" viewBox="0 0 99 116" fill="none" xmlns="http://www.w3.org/2000/svg">
<g clip-path="url(#clip0)">
<path d="M98.9 65.92C98.9 66.12 98.9 66.33 98.9 66.53V66.74C98.7691 75.8799 96.0884 84.8016 91.16 92.5C90.9 92.91 90.64 93.31 90.37 93.7C86.6498 99.1785 81.868 103.855 76.3078 107.452C70.7476 111.048 64.5221 113.493 58 114.64C57.02 114.813 56.02 114.953 55 115.06C53.1541 115.27 51.2977 115.373 49.44 115.37C39.3394 115.361 29.484 112.258 21.1992 106.481C12.9144 100.703 6.59758 92.5265 3.09835 83.0515C-0.400882 73.5764 -0.914697 63.2571 1.62601 53.4813C4.16672 43.7055 9.64008 34.9422 17.31 28.37C17.95 27.82 18.61 27.28 19.31 26.77C24.8115 22.5164 31.1554 19.4825 37.92 17.87C38.59 17.7 39.27 17.56 39.92 17.43C47.0864 16.0231 54.4756 16.2204 61.5568 18.0077C68.638 19.795 75.2356 23.1281 80.8759 27.7675C86.5163 32.4069 91.0594 38.2377 94.1792 44.8411C97.299 51.4445 98.918 58.6567 98.92 65.96L98.9 65.92Z" fill="#31C3F2"/>
<g style="mix-blend-mode:multiply" opacity="0.3">
<path d="M81.9999 65C72.9999 65.37 75.7899 75 75.5099 80.62C75.1699 86.85 71.0999 99.2 61.9999 95.27C61.1512 94.9694 60.4055 94.4338 59.8495 93.7256C59.2936 93.0174 58.9504 92.1658 58.8599 91.27C58.6999 89.27 60.3799 87.04 59.8599 85.27C59.0299 82.19 54.2199 82.54 52.0699 83.61C51.1194 84.0073 50.2936 84.6536 49.6794 85.4807C49.0652 86.3078 48.6854 87.2852 48.5799 88.31C48.5099 90.91 49.6599 93.08 49.0399 95.72C46.8499 105.08 34.0399 105.14 26.0399 102.72L25.5299 102.56C28.7611 104.623 32.2382 106.272 35.8799 107.47C58.1799 114.78 81.7699 103.94 88.5499 83.25C89.567 80.16 90.1689 76.9486 90.3399 73.7C90.4102 72.6189 90.2651 71.5347 89.913 70.5102C89.5608 69.4857 89.0087 68.5413 88.2886 67.732C87.5686 66.9226 86.6949 66.2643 85.7183 65.7953C84.7418 65.3263 83.6818 65.056 82.5999 65C82.3932 65 82.1932 65 81.9999 65Z" fill="#9064E3"/>
</g>
<g style="mix-blend-mode:screen" opacity="0.2">
<path d="M30.73 44.25C26 49 19.8 50.56 17 47.71C14.2 44.86 15.7 38.71 20.46 33.94C25.22 29.17 31.39 27.63 34.24 30.48C37.09 33.33 35.49 39.5 30.73 44.25Z" fill="white"/>
</g>
<g style="mix-blend-mode:screen" opacity="0.2">
<path d="M12.5099 63.25C15.8126 63.25 18.4899 60.5727 18.4899 57.27C18.4899 53.9673 15.8126 51.29 12.5099 51.29C9.20724 51.29 6.52991 53.9673 6.52991 57.27C6.52991 60.5727 9.20724 63.25 12.5099 63.25Z" fill="white"/>
</g>
<g style="mix-blend-mode:multiply" opacity="0.3">
<path d="M58.9999 21.33C58.9999 23.68 54.7299 26.38 49.4599 26.38C44.1899 26.38 39.9199 23.68 39.9199 21.33C39.9199 18.98 44.1899 17.85 49.4599 17.85C54.7299 17.85 58.9999 19 58.9999 21.33Z" fill="#9064E3"/>
</g>
<path d="M49.4499 2.09C50.4613 2.09 51.4314 2.49109 52.1475 3.20531C52.8636 3.91954 53.2673 4.88861 53.2699 5.9V8.77C53.2964 9.28742 53.2174 9.80483 53.0376 10.2907C52.8579 10.7767 52.5811 11.2209 52.2243 11.5965C51.8674 11.9722 51.4379 12.2712 50.9618 12.4756C50.4857 12.68 49.973 12.7854 49.4549 12.7854C48.9368 12.7854 48.4241 12.68 47.948 12.4756C47.472 12.2712 47.0424 11.9722 46.6856 11.5965C46.3287 11.2209 46.052 10.7767 45.8722 10.2907C45.6925 9.80483 45.6134 9.28742 45.6399 8.77V5.9C45.6426 4.89034 46.0448 3.92278 46.7588 3.20884C47.4727 2.4949 48.4403 2.09264 49.4499 2.09ZM49.4499 0C47.8851 0 46.3845 0.621605 45.278 1.72807C44.1715 2.83453 43.5499 4.33522 43.5499 5.9V8.77C43.5172 9.5659 43.6456 10.3602 43.9276 11.1052C44.2096 11.8502 44.6393 12.5305 45.1909 13.1052C45.7424 13.6799 46.4045 14.1372 47.1372 14.4496C47.87 14.762 48.6584 14.9231 49.4549 14.9231C50.2515 14.9231 51.0399 14.762 51.7726 14.4496C52.5054 14.1372 53.1674 13.6799 53.719 13.1052C54.2705 12.5305 54.7002 11.8502 54.9822 11.1052C55.2642 10.3602 55.3927 9.5659 55.3599 8.77V5.9C55.3573 4.3343 54.7334 2.83364 53.6254 1.72746C52.5173 0.621284 51.0156 -2.24131e-06 49.4499 0V0Z" fill="#999999"/>
<g style="mix-blend-mode:multiply" opacity="0.1">
<path d="M54.2899 2.53C53.9304 3.1799 53.4481 3.75384 52.8699 4.22C53.1301 4.742 53.2669 5.31676 53.2699 5.9V8.77C53.2964 9.28742 53.2174 9.80483 53.0376 10.2907C52.8579 10.7767 52.5811 11.2209 52.2243 11.5965C51.8674 11.9722 51.4379 12.2712 50.9618 12.4756C50.4857 12.68 49.973 12.7854 49.4549 12.7854C48.9368 12.7854 48.4241 12.68 47.948 12.4756C47.472 12.2712 47.0424 11.9722 46.6856 11.5965C46.3287 11.2209 46.052 10.7767 45.8722 10.2907C45.6925 9.80483 45.6134 9.28742 45.6399 8.77V5.9C45.6391 5.5966 45.6761 5.29428 45.7499 5C45.0797 4.72215 44.461 4.33338 43.9199 3.85C43.6779 4.48915 43.5526 5.16656 43.5499 5.85V8.77C43.5172 9.5659 43.6456 10.3602 43.9276 11.1052C44.2096 11.8502 44.6393 12.5305 45.1909 13.1052C45.7424 13.6799 46.4045 14.1372 47.1372 14.4496C47.87 14.762 48.6584 14.9231 49.4549 14.9231C50.2515 14.9231 51.0399 14.762 51.7726 14.4496C52.5054 14.1372 53.1674 13.6799 53.719 13.1052C54.2705 12.5305 54.7002 11.8502 54.9822 11.1052C55.2642 10.3602 55.3927 9.5659 55.3599 8.77V5.9C55.3594 4.69319 54.9857 3.51608 54.2899 2.53Z" fill="#1A1A1A"/>
</g>
<g style="mix-blend-mode:multiply" opacity="0.1">
<path d="M53.2699 5.99999V8.76999C53.2964 9.28742 53.2174 9.80482 53.0376 10.2907C52.8579 10.7767 52.5812 11.2209 52.2243 11.5965C51.8674 11.9721 51.4379 12.2712 50.9618 12.4756C50.4857 12.68 49.973 12.7854 49.4549 12.7854C48.9368 12.7854 48.4241 12.68 47.9481 12.4756C47.472 12.2712 47.0424 11.9721 46.6856 11.5965C46.3287 11.2209 46.052 10.7767 45.8722 10.2907C45.6925 9.80482 45.6134 9.28742 45.6399 8.76999V6.15999C44.9279 6.11519 44.2268 5.96349 43.5599 5.70999C43.555 5.77323 43.555 5.83676 43.5599 5.89999V8.76999C43.5272 9.56589 43.6556 10.3602 43.9376 11.1052C44.2196 11.8502 44.6493 12.5305 45.2009 13.1052C45.7524 13.6799 46.4145 14.1372 47.1472 14.4496C47.88 14.762 48.6684 14.923 49.4649 14.923C50.2615 14.923 51.0499 14.762 51.7826 14.4496C52.5154 14.1372 53.1774 13.6799 53.729 13.1052C54.2806 12.5305 54.7102 11.8502 54.9922 11.1052C55.2742 10.3602 55.4027 9.56589 55.3699 8.76999V5.89999C55.3699 5.73999 55.3699 5.58999 55.3699 5.42999C54.7073 5.73773 53.9972 5.93048 53.2699 5.99999Z" fill="#1A1A1A"/>
</g>
<path d="M55.53 7.34H43.37C42.9075 7.34519 42.4654 7.53124 42.1383 7.85831C41.8112 8.18537 41.6252 8.62748 41.62 9.09V18.87C41.663 19.4476 41.8214 20.0108 42.0859 20.5261C42.3505 21.0414 42.7157 21.4984 43.16 21.87C45.0096 23.1454 47.2033 23.8285 49.45 23.8285C51.6967 23.8285 53.8904 23.1454 55.74 21.87C56.1856 21.4995 56.5517 21.0428 56.8163 20.5273C57.081 20.0117 57.2387 19.448 57.28 18.87V9.09C57.2748 8.62748 57.0888 8.18537 56.7617 7.85831C56.4346 7.53124 55.9925 7.34519 55.53 7.34Z" fill="#B3B3B3"/>
<g style="mix-blend-mode:multiply" opacity="0.1">
<path d="M54.53 16.56C53.1336 17.4085 51.5485 17.8974 49.9167 17.9829C48.285 18.0684 46.6575 17.7479 45.18 17.05C43.828 16.4858 42.6137 15.6365 41.62 14.56V18.87C41.6631 19.4486 41.8226 20.0126 42.089 20.5281C42.3553 21.0436 42.723 21.5 43.17 21.87C45.0181 23.1446 47.21 23.8272 49.455 23.8272C51.7 23.8272 53.8919 23.1446 55.74 21.87C56.1856 21.4995 56.5517 21.0428 56.8163 20.5273C57.081 20.0117 57.2387 19.448 57.28 18.87V13.76C56.5789 14.8831 55.6402 15.8388 54.53 16.56Z" fill="#1A1A1A"/>
</g>
<g style="mix-blend-mode:multiply" opacity="0.1">
<path d="M53.88 20.76C52.5755 21.6357 51.0606 22.1466 49.4922 22.2398C47.9238 22.333 46.359 22.0051 44.96 21.29C43.5743 20.5772 42.4169 19.4891 41.62 18.15V18.87C41.6631 19.4486 41.8226 20.0126 42.089 20.5281C42.3553 21.0436 42.723 21.5 43.17 21.87C45.0181 23.1446 47.21 23.8272 49.455 23.8272C51.7 23.8272 53.8919 23.1446 55.74 21.87C56.1856 21.4995 56.5517 21.0428 56.8163 20.5273C57.081 20.0117 57.2387 19.448 57.28 18.87V16.27C56.6189 18.0717 55.435 19.6351 53.88 20.76Z" fill="#1A1A1A"/>
</g>
<g style="mix-blend-mode:screen" opacity="0.2">
<path d="M48.64 10C48.64 11 47.35 11.88 45.75 11.88C44.15 11.88 42.86 11.04 42.86 10C42.86 8.96 44.15 8.12 45.75 8.12C47.35 8.12 48.64 9 48.64 10Z" fill="white"/>
</g>
<g style="mix-blend-mode:screen" opacity="0.2">
<path d="M47.76 1C47.97 1.31 47.65 1.88 47.05 2.29C46.45 2.7 45.81 2.78 45.6 2.48C45.39 2.18 45.71 1.6 46.31 1.19C46.91 0.780001 47.55 0.740001 47.76 1Z" fill="white"/>
</g>
</g>
<path d="M83.8049 66.1736C83.4427 64.4598 81.5896 63.0804 78.2317 62.0633C75.4172 61.2134 71.8782 60.7118 67.9769 60.6282L67.6007 44.7723C67.0852 43.2118 65.2321 41.9439 62.0971 40.9964C58.9622 40.049 54.8798 39.5334 50.5744 39.5334C46.283 39.5334 42.2285 40.049 39.1632 40.9964C36.6413 41.7767 33.6178 43.2257 33.6178 45.7198C33.6178 45.873 33.6318 46.0263 33.6596 46.1795L33.8129 52.533C32.7818 52.338 31.7369 52.2405 30.6779 52.2405C21.4821 52.2405 14 59.7225 14 68.9184C14 78.1282 21.4542 85.5964 30.664 85.5964C34.4956 85.5964 38.2158 84.2727 41.1835 81.8623C43.8029 82.4753 46.8822 82.8097 50.1425 82.8376C50.8531 86.6971 59.2269 88.4666 67.0295 88.4666C71.3209 88.4666 75.3615 87.9371 78.4546 86.9897C81.0044 86.2094 84 84.7464 84 82.2524L83.8049 66.1736ZM39.9435 43.6716C42.758 42.8077 46.5338 42.3201 50.5466 42.3201C54.5175 42.3201 58.4327 42.8077 61.2751 43.6716C64.3125 44.5912 64.9674 45.5386 64.9674 45.7337C64.9674 45.9288 64.3125 46.8762 61.2751 47.7958C58.4467 48.6457 54.5314 49.1473 50.5605 49.1473C46.715 49.1473 43.0645 48.7014 40.2918 47.8933C37.2962 47.0295 36.4463 46.0681 36.3766 45.7616C36.3766 45.7476 36.3627 45.7337 36.3487 45.7198C36.3487 45.4272 37.2822 44.4936 39.9435 43.6716ZM65.1903 49.1752V52.6584C65.037 52.8953 64.9674 53.16 64.9674 53.4387C64.9674 53.6198 64.3125 54.5812 61.289 55.5008C58.4606 56.3647 54.5454 56.8523 50.5744 56.8523C47.133 56.8523 43.7611 56.4901 41.086 55.8073C41.0442 55.7934 41.0024 55.7934 40.9745 55.7795C39.6648 54.7345 38.1879 53.8985 36.6274 53.3133L36.5299 49.3842C37.4912 49.8718 38.4944 50.262 39.5394 50.5406C42.5629 51.4184 46.4781 51.8921 50.5884 51.8921C54.8937 51.8921 58.9761 51.3766 62.0971 50.4291C63.1561 50.1505 64.201 49.7186 65.1903 49.1752ZM40.0131 79.1871C34.3424 84.3563 25.5506 83.9383 20.3953 78.2675C15.24 72.5967 15.6441 63.8049 21.3149 58.6497C23.8786 56.3229 27.2086 55.0271 30.664 55.0271C32.0573 55.0271 33.4367 55.2361 34.7743 55.6401C36.5856 56.1975 38.2715 57.131 39.7066 58.385C42.0474 60.3774 43.6497 63.1083 44.2767 66.1178C44.4578 67.0374 44.5553 67.9849 44.5553 68.9184C44.5693 72.8336 42.9112 76.5677 40.0131 79.1871ZM43.5522 79.4936C44.6807 78.1143 45.5864 76.5677 46.2273 74.9096C47.4256 75.0072 48.6795 75.0768 49.9753 75.0908C49.9475 75.258 49.9475 75.4112 49.9753 75.5784L50.0311 80.0649C47.8714 80.037 45.7118 79.8559 43.5522 79.4936ZM47.2723 67.2604C48.0943 67.3161 48.9443 67.344 49.8221 67.3579C49.836 67.4554 49.8639 67.553 49.8917 67.6505L49.9475 72.2902C48.9443 72.2763 47.955 72.2345 47.0215 72.1648C47.2305 71.092 47.342 69.9913 47.342 68.9045C47.342 68.3611 47.3141 67.8177 47.2723 67.2604ZM50.672 64.5852C50.6302 64.5852 50.6023 64.5852 50.5605 64.5852C49.209 64.5852 47.9271 64.5295 46.7289 64.4319C46.2134 62.5788 45.3635 60.8233 44.2488 59.2488C46.3388 59.5135 48.4566 59.6529 50.5605 59.6529C54.8658 59.6529 58.9482 59.1374 62.0693 58.1899C63.1561 57.8834 64.1871 57.4514 65.1763 56.9081V60.6282C61.6931 60.7257 58.4188 61.1716 55.8133 61.91C53.3611 62.6067 51.6473 63.4984 50.672 64.5852ZM52.5947 66.6612C52.8316 66.2293 53.8766 65.3794 56.5936 64.627C59.3244 63.8607 62.8774 63.4427 66.6115 63.4427H66.7229C70.7078 63.4427 74.6091 63.9025 77.4375 64.7663C80.3634 65.6581 81.074 66.5498 81.1158 66.7866V66.8006C81.1019 67.0096 80.4192 67.9709 77.326 68.8905C74.4697 69.7405 70.6939 70.2003 66.7229 70.2003C63.0307 70.2003 59.4777 69.7823 56.7468 69.0438C54.1274 68.3332 52.9988 67.5112 52.6644 67.0374C52.6644 66.912 52.6365 66.7866 52.5947 66.6612ZM81.2134 82.2385C81.2134 82.4335 80.6003 83.3949 77.6326 84.3145C74.7902 85.1923 71.0283 85.6799 67.0155 85.6799C62.9889 85.6799 59.2408 85.2062 56.4403 84.3563C53.7791 83.5342 52.8873 82.6147 52.8873 82.3081C52.8873 82.2942 52.8873 82.2942 52.8873 82.2803L52.8734 81.4303L52.8316 78.2815C53.9463 78.8249 55.1027 79.2428 56.301 79.5354C59.2269 80.3018 62.9192 80.7198 66.7229 80.7198C71.0283 80.7198 75.0689 80.2042 78.1899 79.2568C79.207 78.9503 80.3774 78.5323 81.2134 77.9889V82.2385ZM81.0322 74.5195C81.0322 74.7146 80.3913 75.662 77.3957 76.5816C74.5394 77.4455 70.7496 77.9192 66.709 77.9192C59.1294 77.9192 53.9741 76.2333 52.7759 74.8957L52.7201 70.4928C56.0084 72.2066 61.5398 72.9869 66.7229 72.9869C70.9586 72.9869 74.9853 72.4853 78.0924 71.5657C79.1791 71.2592 80.2241 70.8412 81.2273 70.2978V73.7811C81.2134 73.9901 81.0322 74.2409 81.0322 74.5195Z" fill="white"/>
<path d="M30.678 59.7086C25.5924 59.7086 21.4822 63.8328 21.4822 68.9044C21.4822 73.9761 25.6064 78.1003 30.678 78.1003C35.7497 78.1003 39.8739 73.9761 39.8739 68.9044C39.86 63.8328 35.7497 59.7225 30.678 59.7086ZM30.678 75.3276C27.139 75.3276 24.2688 72.4574 24.2688 68.9184C24.2688 65.3794 27.139 62.5091 30.678 62.5091C34.2171 62.5091 37.0873 65.3794 37.0873 68.9184C37.0873 72.4574 34.2171 75.3276 30.678 75.3276Z" fill="white"/>
<defs>
<clipPath id="clip0">
<rect width="98.9" height="115.37" fill="white"/>
</clipPath>
</defs>
</svg>
