<svg width="70" height="70" viewBox="0 0 70 70" fill="none" xmlns="http://www.w3.org/2000/svg">
<path d="M69.8049 37.1736C69.4427 35.4598 67.5896 34.0804 64.2317 33.0633C61.4172 32.2134 57.8782 31.7118 53.9769 31.6282L53.6007 15.7723C53.0852 14.2118 51.2321 12.9439 48.0971 11.9964C44.9622 11.049 40.8798 10.5334 36.5744 10.5334C32.283 10.5334 28.2285 11.049 25.1632 11.9964C22.6413 12.7767 19.6178 14.2257 19.6178 16.7198C19.6178 16.873 19.6318 17.0263 19.6596 17.1795L19.8129 23.533C18.7818 23.338 17.7369 23.2405 16.6779 23.2405C7.48209 23.2405 0 30.7225 0 39.9184C0 49.1282 7.45422 56.5964 16.664 56.5964C20.4956 56.5964 24.2158 55.2727 27.1835 52.8623C29.8029 53.4753 32.8822 53.8097 36.1425 53.8376C36.8531 57.6971 45.2269 59.4666 53.0295 59.4666C57.3209 59.4666 61.3615 58.9371 64.4546 57.9897C67.0044 57.2094 70 55.7464 70 53.2524L69.8049 37.1736ZM25.9435 14.6716C28.758 13.8077 32.5338 13.3201 36.5466 13.3201C40.5175 13.3201 44.4327 13.8077 47.2751 14.6716C50.3125 15.5912 50.9674 16.5386 50.9674 16.7337C50.9674 16.9288 50.3125 17.8762 47.2751 18.7958C44.4467 19.6457 40.5314 20.1473 36.5605 20.1473C32.715 20.1473 29.0645 19.7014 26.2918 18.8933C23.2962 18.0295 22.4463 17.0681 22.3766 16.7616C22.3766 16.7476 22.3627 16.7337 22.3487 16.7198C22.3487 16.4272 23.2822 15.4936 25.9435 14.6716ZM51.1903 20.1752V23.6584C51.037 23.8953 50.9674 24.16 50.9674 24.4387C50.9674 24.6198 50.3125 25.5812 47.289 26.5008C44.4606 27.3647 40.5454 27.8523 36.5744 27.8523C33.133 27.8523 29.7611 27.4901 27.086 26.8073C27.0442 26.7934 27.0024 26.7934 26.9745 26.7795C25.6648 25.7345 24.1879 24.8985 22.6274 24.3133L22.5299 20.3842C23.4912 20.8718 24.4944 21.262 25.5394 21.5406C28.5629 22.4184 32.4781 22.8921 36.5884 22.8921C40.8937 22.8921 44.9761 22.3766 48.0971 21.4291C49.1561 21.1505 50.201 20.7186 51.1903 20.1752ZM26.0131 50.1871C20.3424 55.3563 11.5506 54.9383 6.3953 49.2675C1.24005 43.5967 1.64411 34.8049 7.31489 29.6497C9.87858 27.3229 13.2086 26.0271 16.664 26.0271C18.0573 26.0271 19.4367 26.2361 20.7743 26.6401C22.5856 27.1975 24.2715 28.131 25.7066 29.385C28.0474 31.3774 29.6497 34.1083 30.2767 37.1178C30.4578 38.0374 30.5553 38.9849 30.5553 39.9184C30.5693 43.8336 28.9112 47.5677 26.0131 50.1871ZM29.5522 50.4936C30.6807 49.1143 31.5864 47.5677 32.2273 45.9096C33.4256 46.0072 34.6795 46.0768 35.9753 46.0908C35.9475 46.258 35.9475 46.4112 35.9753 46.5784L36.0311 51.0649C33.8714 51.037 31.7118 50.8559 29.5522 50.4936ZM33.2723 38.2604C34.0943 38.3161 34.9443 38.344 35.8221 38.3579C35.836 38.4554 35.8639 38.553 35.8917 38.6505L35.9475 43.2902C34.9443 43.2763 33.955 43.2345 33.0215 43.1648C33.2305 42.092 33.342 40.9913 33.342 39.9045C33.342 39.3611 33.3141 38.8177 33.2723 38.2604ZM36.672 35.5852C36.6302 35.5852 36.6023 35.5852 36.5605 35.5852C35.209 35.5852 33.9271 35.5295 32.7289 35.4319C32.2134 33.5788 31.3635 31.8233 30.2488 30.2488C32.3388 30.5135 34.4566 30.6529 36.5605 30.6529C40.8658 30.6529 44.9482 30.1374 48.0693 29.1899C49.1561 28.8834 50.1871 28.4514 51.1763 27.9081V31.6282C47.6931 31.7257 44.4188 32.1716 41.8133 32.91C39.3611 33.6067 37.6473 34.4984 36.672 35.5852ZM38.5947 37.6612C38.8316 37.2293 39.8766 36.3794 42.5936 35.627C45.3244 34.8607 48.8774 34.4427 52.6115 34.4427H52.7229C56.7078 34.4427 60.6091 34.9025 63.4375 35.7663C66.3634 36.6581 67.074 37.5498 67.1158 37.7866V37.8006C67.1019 38.0096 66.4192 38.9709 63.326 39.8905C60.4697 40.7405 56.6939 41.2003 52.7229 41.2003C49.0307 41.2003 45.4777 40.7823 42.7468 40.0438C40.1274 39.3332 38.9988 38.5112 38.6644 38.0374C38.6644 37.912 38.6365 37.7866 38.5947 37.6612ZM67.2134 53.2385C67.2134 53.4335 66.6003 54.3949 63.6326 55.3145C60.7902 56.1923 57.0283 56.6799 53.0155 56.6799C48.9889 56.6799 45.2408 56.2062 42.4403 55.3563C39.7791 54.5342 38.8873 53.6147 38.8873 53.3081C38.8873 53.2942 38.8873 53.2942 38.8873 53.2803L38.8734 52.4303L38.8316 49.2815C39.9463 49.8249 41.1027 50.2428 42.301 50.5354C45.2269 51.3018 48.9192 51.7198 52.7229 51.7198C57.0283 51.7198 61.0689 51.2042 64.1899 50.2568C65.207 49.9503 66.3774 49.5323 67.2134 48.9889V53.2385ZM67.0322 45.5195C67.0322 45.7146 66.3913 46.662 63.3957 47.5816C60.5394 48.4455 56.7496 48.9192 52.709 48.9192C45.1294 48.9192 39.9741 47.2333 38.7759 45.8957L38.7201 41.4928C42.0084 43.2066 47.5398 43.9869 52.7229 43.9869C56.9586 43.9869 60.9853 43.4853 64.0924 42.5657C65.1791 42.2592 66.2241 41.8412 67.2273 41.2978V44.7811C67.2134 44.9901 67.0322 45.2409 67.0322 45.5195Z" fill="white"/>
<path d="M16.678 30.7086C11.5924 30.7086 7.48218 34.8328 7.48218 39.9044C7.48218 44.9761 11.6064 49.1003 16.678 49.1003C21.7497 49.1003 25.8739 44.9761 25.8739 39.9044C25.86 34.8328 21.7497 30.7225 16.678 30.7086ZM16.678 46.3276C13.139 46.3276 10.2688 43.4574 10.2688 39.9184C10.2688 36.3794 13.139 33.5091 16.678 33.5091C20.2171 33.5091 23.0873 36.3794 23.0873 39.9184C23.0873 43.4574 20.2171 46.3276 16.678 46.3276Z" fill="white"/>
</svg>
