<svg width="58" height="70" viewBox="0 0 58 70" fill="none" xmlns="http://www.w3.org/2000/svg">
<g clip-path="url(#clip0)">
<path d="M55.3959 53.0469C55.9622 53.0469 56.4213 52.5878 56.4213 52.0215V27.4121C56.4213 26.1882 55.9443 24.9363 55.0782 23.8869L47.4735 14.6729C47.0751 14.1902 46.6171 13.7833 46.1197 13.4593C46.1502 13.1459 46.1676 12.8294 46.1676 12.5099V1.02551C46.1676 0.459224 45.7085 0.00012207 45.1422 0.00012207C44.5759 0.00012207 44.1168 0.459224 44.1168 1.02551C44.1168 1.02551 44.1147 12.6076 44.1139 12.6566C43.8222 12.6049 43.526 12.5783 43.2281 12.5783H29.9664C29.0327 12.5783 28.1175 12.8402 27.2982 13.3216C27.2628 13.3343 27.2276 13.3485 27.1932 13.3653L17.1975 18.2342C16.0901 18.7897 15.2046 19.7214 14.7038 20.8577C14.6983 20.8701 14.6931 20.8825 14.6882 20.8951L10.5555 31.3776C10.3478 31.9045 10.6065 32.5 11.1334 32.7078C11.2568 32.7564 11.384 32.7794 11.5092 32.7794C11.918 32.7794 12.3044 32.5332 12.4634 32.1299L16.588 21.6676C16.8983 20.9746 17.4406 20.4068 18.1063 20.0726L23.3875 17.5003L18.1162 23.8871C17.3269 24.8433 16.9097 26.0624 16.9097 27.4124V62.8225C16.9097 63.2349 16.946 63.6386 17.0117 64.0321L6.44584 59.3503C4.05901 58.2928 2.97729 55.4836 4.03494 53.0883C4.03946 53.0779 4.04383 53.0674 4.04821 53.057L10.7314 36.4478C10.9428 35.9224 10.6884 35.3252 10.163 35.1137C9.63727 34.9024 9.04035 35.1569 8.82885 35.6822L2.15151 52.2759C0.650061 55.7007 2.201 59.7123 5.615 61.225L18.005 66.7151C18.0202 66.7218 18.0356 66.7267 18.0509 66.7326C19.3085 68.6975 21.4826 70 23.9508 70H49.2437C53.1345 70 56.4215 66.713 56.4215 62.8223V56.8066C56.4215 56.2404 55.9624 55.7813 55.3961 55.7813C54.8298 55.7813 54.3707 56.2404 54.3707 56.8066V62.8223C54.3707 65.6014 52.0228 67.9492 49.2437 67.9492H23.9508C21.1992 67.9492 18.9605 65.6493 18.9605 62.8223V27.4121C18.9605 26.5319 19.2085 25.785 19.6979 25.1923L27.3026 15.9783C28.0104 15.1208 28.9813 14.6289 29.9664 14.6289H43.2281C43.4213 14.6289 43.6138 14.6484 43.804 14.6854C43.1621 16.8744 41.572 18.7009 39.4249 19.6163C38.8634 18.6771 37.8369 18.0469 36.6655 18.0469C34.8939 18.0469 33.4526 19.4882 33.4526 21.2598C33.4526 23.0314 34.8939 24.4726 36.6655 24.4726C38.3038 24.4726 39.6587 23.2397 39.8535 21.6531C42.6151 20.6086 44.7033 18.3954 45.6337 15.6939C45.723 15.7838 45.8094 15.8782 45.8919 15.9783L53.4966 25.1925C54.0602 25.8752 54.3707 26.6636 54.3707 27.4122V52.0216C54.3706 52.5878 54.8297 53.0469 55.3959 53.0469ZM36.6655 22.4219C36.0247 22.4219 35.5034 21.9006 35.5034 21.2598C35.5034 20.619 36.0247 20.0976 36.6655 20.0976C37.3063 20.0976 37.8276 20.619 37.8276 21.2598C37.8276 21.9006 37.3063 22.4219 36.6655 22.4219Z" fill="white"/>
<path d="M27.7788 54.5508C28.0412 54.5508 28.3037 54.4507 28.5038 54.2504L46.0038 36.7504C46.4043 36.3499 46.4043 35.7007 46.0038 35.3004C45.6034 34.8999 44.9541 34.8999 44.5538 35.3004L27.0538 52.8004C26.4 53.4097 26.9016 54.5818 27.7788 54.5508Z" fill="white"/>
<path d="M29.9662 43.75C32.4162 43.75 34.4095 41.7566 34.4095 39.3066C34.4095 36.8566 32.4162 34.8633 29.9662 34.8633H29.8295C27.3795 34.8633 25.3861 36.8566 25.3861 39.3066C25.3861 41.7566 27.3795 43.75 29.8295 43.75H29.9662ZM27.4369 39.3066C27.4369 37.9874 28.5103 36.914 29.8295 36.914H29.9662C31.2854 36.914 32.3588 37.9874 32.3588 39.3066C32.3588 40.6258 31.2854 41.6992 29.9662 41.6992H29.8295C28.5103 41.6992 27.4369 40.6258 27.4369 39.3066Z" fill="white"/>
<path d="M43.2279 54.5508H43.3646C45.8146 54.5508 47.808 52.5574 47.808 50.1074C47.808 47.6574 45.8146 45.664 43.3646 45.664H43.2279C40.7779 45.664 38.7845 47.6574 38.7845 50.1074C38.7845 52.5574 40.7779 54.5508 43.2279 54.5508ZM43.2279 47.7148H43.3646C44.6838 47.7148 45.7572 48.7882 45.7572 50.1074C45.7572 51.4266 44.6838 52.5 43.3646 52.5H43.2279C41.9087 52.5 40.8353 51.4266 40.8353 50.1074C40.8353 48.7882 41.9087 47.7148 43.2279 47.7148Z" fill="white"/>
</g>
<defs>
<clipPath id="clip0">
<rect width="58" height="70" fill="white"/>
</clipPath>
</defs>
</svg>
