<svg width="80" height="80" viewBox="0 0 80 80" fill="none" xmlns="http://www.w3.org/2000/svg">
<path d="M21.9069 36.4964C21.9069 47.0058 30.4261 55.525 40.9355 55.525C51.4449 55.525 59.9641 47.0058 59.9641 36.4964C59.9641 25.987 51.4449 17.4678 40.9355 17.4678C30.4312 17.4793 21.919 25.9922 21.9069 36.4964ZM40.9355 20.0922C49.9955 20.0922 57.3397 27.4364 57.3397 36.4964C57.3397 45.5564 49.9955 52.9006 40.9355 52.9006C31.8755 52.9006 24.5313 45.5564 24.5313 36.4964C24.5416 27.4409 31.8799 20.1025 40.9355 20.0922Z" fill="white"/>
<path d="M66.433 58.7601L56.1536 63.6169C54.7344 60.9771 52.0119 59.2971 49.0158 59.2125L39.5265 58.9517C38.0239 58.9088 36.5496 58.5282 35.2137 57.8381L34.2481 57.3377C29.3041 54.7607 23.4113 54.7671 18.4725 57.3544L18.5327 55.1669C18.5526 54.4422 17.9817 53.8386 17.257 53.8188L6.85142 53.5324C6.12674 53.5125 5.52381 54.0834 5.50394 54.8081L4.87538 77.6427C4.85552 78.3674 5.42642 78.9709 6.15109 78.9908L16.5567 79.2772H16.5926C17.3038 79.2772 17.8856 78.7114 17.9048 78.0009L17.9349 76.9084L20.6382 75.461C21.6992 74.8901 22.9397 74.7542 24.0988 75.0823L40.2415 79.613C40.2697 79.6213 40.2979 79.6277 40.3268 79.6341C41.4935 79.8782 42.6828 80.0006 43.8745 80C46.399 80.0012 48.8941 79.4573 51.1885 78.4039C51.2449 78.3783 51.2994 78.3481 51.3513 78.3142L74.7568 63.1748C75.3399 62.7974 75.5282 62.0318 75.1867 61.4269C73.4491 58.3437 69.595 57.1692 66.433 58.7601ZM7.53508 76.4035L8.09124 56.1921L15.873 56.4061L15.3168 76.6181L7.53508 76.4035ZM50.0064 76.0601C47.1557 77.3467 43.9719 77.7016 40.9079 77.0756L24.8087 72.5565C22.9967 72.0446 21.0572 72.2566 19.3996 73.1479L18.0182 73.888L18.3879 60.4498C22.7654 57.5383 28.3796 57.239 33.0416 59.6681L34.0072 60.1685C35.6949 61.0399 37.5562 61.5204 39.4547 61.5755L48.9447 61.8363C51.6101 61.9132 53.8739 63.8111 54.4147 66.4227L40.2793 66.0325C39.5547 66.0127 38.9517 66.5842 38.9312 67.3082C38.9114 68.0329 39.4829 68.6365 40.2069 68.6563L55.8063 69.0856H55.8429C56.5534 69.085 57.1346 68.5192 57.1538 67.8093C57.1698 67.239 57.1275 66.6681 57.0269 66.1068L67.5703 61.1251C67.5805 61.1206 67.5908 61.1155 67.601 61.1104C69.0965 60.3537 70.9047 60.6068 72.1349 61.7453L50.0064 76.0601Z" fill="white"/>
<path d="M42.2478 13.7784V1.31223C42.2478 0.587556 41.6602 0 40.9355 0C40.2108 0 39.6233 0.587556 39.6233 1.31223V13.7784C39.6233 14.5031 40.2108 15.0907 40.9355 15.0907C41.6602 15.0907 42.2478 14.5031 42.2478 13.7784Z" fill="white"/>
<path d="M52.0894 13.7784V7.8734C52.0894 7.14873 51.5019 6.56117 50.7772 6.56117C50.0525 6.56117 49.465 7.14873 49.465 7.8734V13.7784C49.465 14.5031 50.0525 15.0907 50.7772 15.0907C51.5019 15.0907 52.0894 14.5031 52.0894 13.7784Z" fill="white"/>
<path d="M32.406 13.7784V7.8734C32.406 7.14873 31.8184 6.56117 31.0937 6.56117C30.369 6.56117 29.7815 7.14873 29.7815 7.8734V13.7784C29.7815 14.5031 30.369 15.0907 31.0937 15.0907C31.8184 15.0907 32.406 14.5031 32.406 13.7784Z" fill="white"/>
<g clip-path="url(#clip0)">
<path d="M33.5066 41.8179H36.1329V44.0693C36.1329 44.1789 36.168 44.2685 36.2385 44.3386C36.3088 44.4092 36.3987 44.4444 36.5082 44.4444H38.4661C38.5677 44.4444 38.6556 44.4092 38.7299 44.3386C38.8042 44.2685 38.8412 44.1788 38.8412 44.0693V41.8179H44.762C44.8713 41.8179 44.9612 41.7831 45.0317 41.7126C45.1022 41.6421 45.1372 41.5524 45.1372 41.4428V39.942C45.1372 39.8331 45.1022 39.7428 45.0317 39.6727C44.9614 39.6022 44.8713 39.5669 44.762 39.5669H38.841V38.1834H42.8273C44.3905 38.1834 45.6663 37.7071 46.6553 36.7531C47.6439 35.8001 48.1385 34.5691 48.1385 33.0599C48.1385 31.5518 47.6439 30.3208 46.6553 29.3668C45.6665 28.4138 44.3904 27.9365 42.8273 27.9365H36.508C36.3985 27.9365 36.3088 27.9717 36.2383 28.0419C36.168 28.1124 36.1327 28.2027 36.1327 28.3116V35.6864H33.5066C33.3971 35.6864 33.3074 35.7235 33.2369 35.7977C33.1666 35.872 33.1313 35.9599 33.1313 36.0615V37.8082C33.1313 37.9178 33.1664 38.0075 33.2369 38.078C33.3074 38.1485 33.3969 38.1833 33.5066 38.1833H36.1329V39.5669H33.5066C33.3971 39.5669 33.3074 39.6022 33.2369 39.6727C33.1666 39.7428 33.1313 39.8329 33.1313 39.942V41.4428C33.1313 41.5523 33.1664 41.6421 33.2369 41.7125C33.3074 41.7831 33.3971 41.8179 33.5066 41.8179ZM38.841 30.4341H42.5928C43.4212 30.4341 44.0894 30.6763 44.5976 31.1609C45.1056 31.6455 45.3597 32.2788 45.3597 33.0601C45.3597 33.8418 45.1056 34.4754 44.5976 34.9594C44.0894 35.4444 43.4212 35.6866 42.5928 35.6866H38.841V30.4341Z" fill="white"/>
</g>
<defs>
<clipPath id="clip0">
<rect width="16.5079" height="16.5079" fill="white" transform="translate(32.381 27.9365)"/>
</clipPath>
</defs>
</svg>
