<svg width="99" height="116" viewBox="0 0 99 116" fill="none" xmlns="http://www.w3.org/2000/svg">
<g clip-path="url(#clip0)">
<path d="M98.9 65.92C98.9 66.12 98.9 66.33 98.9 66.53V66.74C98.7691 75.8799 96.0884 84.8016 91.16 92.5C90.9 92.91 90.64 93.31 90.37 93.7C86.6498 99.1785 81.868 103.855 76.3078 107.452C70.7476 111.048 64.5221 113.493 58 114.64C57.02 114.813 56.02 114.953 55 115.06C53.1541 115.27 51.2977 115.373 49.44 115.37C39.3394 115.361 29.484 112.258 21.1992 106.481C12.9144 100.703 6.59758 92.5265 3.09835 83.0515C-0.400882 73.5764 -0.914697 63.2571 1.62601 53.4813C4.16672 43.7055 9.64008 34.9422 17.31 28.37C17.95 27.82 18.61 27.28 19.31 26.77C24.8115 22.5164 31.1554 19.4825 37.92 17.87C38.59 17.7 39.27 17.56 39.92 17.43C47.0864 16.0231 54.4756 16.2204 61.5568 18.0077C68.638 19.795 75.2356 23.1281 80.8759 27.7675C86.5163 32.4069 91.0594 38.2377 94.1792 44.8411C97.299 51.4445 98.918 58.6567 98.92 65.96L98.9 65.92Z" fill="#31C3F2"/>
<g style="mix-blend-mode:multiply" opacity="0.3">
<path d="M81.9999 65C72.9999 65.37 75.7899 75 75.5099 80.62C75.1699 86.85 71.0999 99.2 61.9999 95.27C61.1512 94.9694 60.4055 94.4338 59.8495 93.7256C59.2936 93.0174 58.9504 92.1658 58.8599 91.27C58.6999 89.27 60.3799 87.04 59.8599 85.27C59.0299 82.19 54.2199 82.54 52.0699 83.61C51.1194 84.0073 50.2936 84.6536 49.6794 85.4807C49.0652 86.3078 48.6854 87.2852 48.5799 88.31C48.5099 90.91 49.6599 93.08 49.0399 95.72C46.8499 105.08 34.0399 105.14 26.0399 102.72L25.5299 102.56C28.7611 104.623 32.2382 106.272 35.8799 107.47C58.1799 114.78 81.7699 103.94 88.5499 83.25C89.567 80.16 90.1689 76.9486 90.3399 73.7C90.4102 72.6189 90.2651 71.5347 89.913 70.5102C89.5608 69.4857 89.0087 68.5413 88.2886 67.732C87.5686 66.9226 86.6949 66.2643 85.7183 65.7953C84.7418 65.3263 83.6818 65.056 82.5999 65C82.3932 65 82.1932 65 81.9999 65Z" fill="#9064E3"/>
</g>
<g style="mix-blend-mode:screen" opacity="0.2">
<path d="M30.73 44.25C26 49 19.8 50.56 17 47.71C14.2 44.86 15.7 38.71 20.46 33.94C25.22 29.17 31.39 27.63 34.24 30.48C37.09 33.33 35.49 39.5 30.73 44.25Z" fill="white"/>
</g>
<g style="mix-blend-mode:screen" opacity="0.2">
<path d="M12.5099 63.25C15.8126 63.25 18.4899 60.5727 18.4899 57.27C18.4899 53.9673 15.8126 51.29 12.5099 51.29C9.20724 51.29 6.52991 53.9673 6.52991 57.27C6.52991 60.5727 9.20724 63.25 12.5099 63.25Z" fill="white"/>
</g>
<g style="mix-blend-mode:multiply" opacity="0.3">
<path d="M58.9999 21.33C58.9999 23.68 54.7299 26.38 49.4599 26.38C44.1899 26.38 39.9199 23.68 39.9199 21.33C39.9199 18.98 44.1899 17.85 49.4599 17.85C54.7299 17.85 58.9999 19 58.9999 21.33Z" fill="#9064E3"/>
</g>
<path d="M49.4499 2.09C50.4613 2.09 51.4314 2.49109 52.1475 3.20531C52.8636 3.91954 53.2673 4.88861 53.2699 5.9V8.77C53.2964 9.28742 53.2174 9.80483 53.0376 10.2907C52.8579 10.7767 52.5811 11.2209 52.2243 11.5965C51.8674 11.9722 51.4379 12.2712 50.9618 12.4756C50.4857 12.68 49.973 12.7854 49.4549 12.7854C48.9368 12.7854 48.4241 12.68 47.948 12.4756C47.472 12.2712 47.0424 11.9722 46.6856 11.5965C46.3287 11.2209 46.052 10.7767 45.8722 10.2907C45.6925 9.80483 45.6134 9.28742 45.6399 8.77V5.9C45.6426 4.89034 46.0448 3.92278 46.7588 3.20884C47.4727 2.4949 48.4403 2.09264 49.4499 2.09ZM49.4499 0C47.8851 0 46.3845 0.621605 45.278 1.72807C44.1715 2.83453 43.5499 4.33522 43.5499 5.9V8.77C43.5172 9.5659 43.6456 10.3602 43.9276 11.1052C44.2096 11.8502 44.6393 12.5305 45.1909 13.1052C45.7424 13.6799 46.4045 14.1372 47.1372 14.4496C47.87 14.762 48.6584 14.9231 49.4549 14.9231C50.2515 14.9231 51.0399 14.762 51.7726 14.4496C52.5054 14.1372 53.1674 13.6799 53.719 13.1052C54.2705 12.5305 54.7002 11.8502 54.9822 11.1052C55.2642 10.3602 55.3927 9.5659 55.3599 8.77V5.9C55.3573 4.3343 54.7334 2.83364 53.6254 1.72746C52.5173 0.621284 51.0156 -2.24131e-06 49.4499 0V0Z" fill="#999999"/>
<g style="mix-blend-mode:multiply" opacity="0.1">
<path d="M54.2899 2.53C53.9304 3.1799 53.4481 3.75384 52.8699 4.22C53.1301 4.742 53.2669 5.31676 53.2699 5.9V8.77C53.2964 9.28742 53.2174 9.80483 53.0376 10.2907C52.8579 10.7767 52.5811 11.2209 52.2243 11.5965C51.8674 11.9722 51.4379 12.2712 50.9618 12.4756C50.4857 12.68 49.973 12.7854 49.4549 12.7854C48.9368 12.7854 48.4241 12.68 47.948 12.4756C47.472 12.2712 47.0424 11.9722 46.6856 11.5965C46.3287 11.2209 46.052 10.7767 45.8722 10.2907C45.6925 9.80483 45.6134 9.28742 45.6399 8.77V5.9C45.6391 5.5966 45.6761 5.29428 45.7499 5C45.0797 4.72215 44.461 4.33338 43.9199 3.85C43.6779 4.48915 43.5526 5.16656 43.5499 5.85V8.77C43.5172 9.5659 43.6456 10.3602 43.9276 11.1052C44.2096 11.8502 44.6393 12.5305 45.1909 13.1052C45.7424 13.6799 46.4045 14.1372 47.1372 14.4496C47.87 14.762 48.6584 14.9231 49.4549 14.9231C50.2515 14.9231 51.0399 14.762 51.7726 14.4496C52.5054 14.1372 53.1674 13.6799 53.719 13.1052C54.2705 12.5305 54.7002 11.8502 54.9822 11.1052C55.2642 10.3602 55.3927 9.5659 55.3599 8.77V5.9C55.3594 4.69319 54.9857 3.51608 54.2899 2.53Z" fill="#1A1A1A"/>
</g>
<g style="mix-blend-mode:multiply" opacity="0.1">
<path d="M53.2699 5.99999V8.76999C53.2964 9.28742 53.2174 9.80482 53.0376 10.2907C52.8579 10.7767 52.5812 11.2209 52.2243 11.5965C51.8674 11.9721 51.4379 12.2712 50.9618 12.4756C50.4857 12.68 49.973 12.7854 49.4549 12.7854C48.9368 12.7854 48.4241 12.68 47.9481 12.4756C47.472 12.2712 47.0424 11.9721 46.6856 11.5965C46.3287 11.2209 46.052 10.7767 45.8722 10.2907C45.6925 9.80482 45.6134 9.28742 45.6399 8.76999V6.15999C44.9279 6.11519 44.2268 5.96349 43.5599 5.70999C43.555 5.77323 43.555 5.83676 43.5599 5.89999V8.76999C43.5272 9.56589 43.6556 10.3602 43.9376 11.1052C44.2196 11.8502 44.6493 12.5305 45.2009 13.1052C45.7524 13.6799 46.4145 14.1372 47.1472 14.4496C47.88 14.762 48.6684 14.923 49.4649 14.923C50.2615 14.923 51.0499 14.762 51.7826 14.4496C52.5154 14.1372 53.1774 13.6799 53.729 13.1052C54.2806 12.5305 54.7102 11.8502 54.9922 11.1052C55.2742 10.3602 55.4027 9.56589 55.3699 8.76999V5.89999C55.3699 5.73999 55.3699 5.58999 55.3699 5.42999C54.7073 5.73773 53.9972 5.93048 53.2699 5.99999Z" fill="#1A1A1A"/>
</g>
<path d="M55.53 7.34H43.37C42.9075 7.34519 42.4654 7.53124 42.1383 7.85831C41.8112 8.18537 41.6252 8.62748 41.62 9.09V18.87C41.663 19.4476 41.8214 20.0108 42.0859 20.5261C42.3505 21.0414 42.7157 21.4984 43.16 21.87C45.0096 23.1454 47.2033 23.8285 49.45 23.8285C51.6967 23.8285 53.8904 23.1454 55.74 21.87C56.1856 21.4995 56.5517 21.0428 56.8163 20.5273C57.081 20.0117 57.2387 19.448 57.28 18.87V9.09C57.2748 8.62748 57.0888 8.18537 56.7617 7.85831C56.4346 7.53124 55.9925 7.34519 55.53 7.34Z" fill="#B3B3B3"/>
<g style="mix-blend-mode:multiply" opacity="0.1">
<path d="M54.53 16.56C53.1336 17.4085 51.5485 17.8974 49.9167 17.9829C48.285 18.0684 46.6575 17.7479 45.18 17.05C43.828 16.4858 42.6137 15.6365 41.62 14.56V18.87C41.6631 19.4486 41.8226 20.0126 42.089 20.5281C42.3553 21.0436 42.723 21.5 43.17 21.87C45.0181 23.1446 47.21 23.8272 49.455 23.8272C51.7 23.8272 53.8919 23.1446 55.74 21.87C56.1856 21.4995 56.5517 21.0428 56.8163 20.5273C57.081 20.0117 57.2387 19.448 57.28 18.87V13.76C56.5789 14.883 55.6402 15.8388 54.53 16.56Z" fill="#1A1A1A"/>
</g>
<g style="mix-blend-mode:multiply" opacity="0.1">
<path d="M53.88 20.76C52.5755 21.6357 51.0606 22.1466 49.4922 22.2398C47.9238 22.333 46.359 22.0051 44.96 21.29C43.5743 20.5772 42.4169 19.4891 41.62 18.15V18.87C41.6631 19.4486 41.8226 20.0126 42.089 20.5281C42.3553 21.0436 42.723 21.5 43.17 21.87C45.0181 23.1446 47.21 23.8272 49.455 23.8272C51.7 23.8272 53.8919 23.1446 55.74 21.87C56.1856 21.4995 56.5517 21.0428 56.8163 20.5273C57.081 20.0117 57.2387 19.448 57.28 18.87V16.27C56.6189 18.0718 55.435 19.6352 53.88 20.76Z" fill="#1A1A1A"/>
</g>
<g style="mix-blend-mode:screen" opacity="0.2">
<path d="M48.64 10C48.64 11 47.35 11.88 45.75 11.88C44.15 11.88 42.86 11.04 42.86 10C42.86 8.96 44.15 8.12 45.75 8.12C47.35 8.12 48.64 9 48.64 10Z" fill="white"/>
</g>
<g style="mix-blend-mode:screen" opacity="0.2">
<path d="M47.76 1C47.97 1.31 47.65 1.88 47.05 2.29C46.45 2.7 45.81 2.78 45.6 2.48C45.39 2.18 45.71 1.6 46.31 1.19C46.91 0.780001 47.55 0.740001 47.76 1Z" fill="white"/>
</g>
</g>
<path d="M34.5255 60.1971C34.5255 68.6046 41.3409 75.42 49.7484 75.42C58.1559 75.42 64.9713 68.6046 64.9713 60.1971C64.9713 51.7896 58.1559 44.9742 49.7484 44.9742C41.345 44.9835 34.5353 51.7937 34.5255 60.1971ZM49.7484 47.0738C56.9964 47.0738 62.8717 52.9491 62.8717 60.1971C62.8717 67.4452 56.9964 73.3205 49.7484 73.3205C42.5004 73.3205 36.6251 67.4452 36.6251 60.1971C36.6333 52.9527 42.504 47.082 49.7484 47.0738Z" fill="white"/>
<path d="M70.1464 78.0081L61.9229 81.8935C60.7875 79.7817 58.6095 78.4377 56.2126 78.37L48.6212 78.1614C47.4192 78.127 46.2397 77.8226 45.1709 77.2705L44.3985 76.8702C40.4433 74.8085 35.729 74.8136 31.778 76.8835L31.8262 75.1335C31.8421 74.5538 31.3853 74.0709 30.8056 74.055L22.4811 73.8259C21.9014 73.81 21.419 74.2667 21.4032 74.8465L20.9003 93.1141C20.8844 93.6939 21.3411 94.1767 21.9209 94.1926L30.2453 94.4218H30.274C30.843 94.4218 31.3084 93.9691 31.3238 93.4007L31.3479 92.5267L33.5105 91.3688C34.3594 90.9121 35.3518 90.8034 36.279 91.0658L49.1932 94.6904C49.2158 94.697 49.2383 94.7022 49.2614 94.7073C50.1948 94.9026 51.1462 95.0005 52.0996 95C54.1192 95.001 56.1152 94.5658 57.9508 93.7231C57.9959 93.7026 58.0395 93.6785 58.081 93.6513L76.8054 81.5399C77.2719 81.2379 77.4226 80.6254 77.1494 80.1415C75.7592 77.6749 72.676 76.7353 70.1464 78.0081ZM23.0281 92.1228L23.473 75.9536L29.6984 76.1249L29.2535 92.2945L23.0281 92.1228ZM57.0051 91.848C54.7246 92.8773 52.1775 93.1613 49.7263 92.6605L36.847 89.0452C35.3974 88.6356 33.8458 88.8053 32.5197 89.5183L31.4146 90.1104L31.7103 79.3598C35.2123 77.0306 39.7037 76.7912 43.4333 78.7345L44.2057 79.1348C45.5559 79.8319 47.045 80.2164 48.5638 80.2604L56.1557 80.4691C58.2881 80.5306 60.0991 82.0489 60.5317 84.1382L49.2235 83.826C48.6437 83.8101 48.1614 84.2674 48.145 84.8466C48.1291 85.4263 48.5863 85.9092 49.1656 85.9251L61.6451 86.2685H61.6743C62.2428 86.268 62.7077 85.8154 62.7231 85.2474C62.7359 84.7912 62.702 84.3345 62.6216 83.8855L71.0562 79.9001C71.0644 79.8965 71.0726 79.8924 71.0808 79.8883C72.2772 79.2829 73.7238 79.4854 74.7079 80.3963L57.0051 91.848Z" fill="white"/>
<path d="M50.7982 42.0227V32.0498C50.7982 31.47 50.3281 31 49.7484 31C49.1687 31 48.6986 31.47 48.6986 32.0498V42.0227C48.6986 42.6025 49.1687 43.0725 49.7484 43.0725C50.3281 43.0725 50.7982 42.6025 50.7982 42.0227Z" fill="white"/>
<path d="M58.6716 42.0227V37.2987C58.6716 36.719 58.2016 36.2489 57.6218 36.2489C57.0421 36.2489 56.572 36.719 56.572 37.2987V42.0227C56.572 42.6025 57.0421 43.0725 57.6218 43.0725C58.2016 43.0725 58.6716 42.6025 58.6716 42.0227Z" fill="white"/>
<path d="M42.9248 42.0227V37.2987C42.9248 36.719 42.4547 36.2489 41.875 36.2489C41.2952 36.2489 40.8252 36.719 40.8252 37.2987V42.0227C40.8252 42.6025 41.2952 43.0725 41.875 43.0725C42.4547 43.0725 42.9248 42.6025 42.9248 42.0227Z" fill="white"/>
<g clip-path="url(#clip1)">
<path d="M43.8054 64.4544H45.9064V66.2555C45.9064 66.3431 45.9344 66.4148 45.9908 66.4709C46.0471 66.5273 46.119 66.5556 46.2066 66.5556H47.7729C47.8542 66.5556 47.9246 66.5273 47.984 66.4709C48.0434 66.4148 48.073 66.3431 48.073 66.2555V64.4544H52.8096C52.8971 64.4544 52.969 64.4265 53.0254 64.3701C53.0818 64.3137 53.1098 64.2419 53.1098 64.1543V62.9536C53.1098 62.8665 53.0818 62.7943 53.0254 62.7382C52.9692 62.6818 52.8971 62.6535 52.8096 62.6535H48.0728V61.5467H51.2619C52.5124 61.5467 53.5331 61.1657 54.3243 60.4025C55.1152 59.6401 55.5108 58.6553 55.5108 57.448C55.5108 56.2415 55.1152 55.2566 54.3243 54.4935C53.5332 53.731 52.5124 53.3492 51.2619 53.3492H46.2065C46.1188 53.3492 46.0471 53.3774 45.9907 53.4335C45.9344 53.4899 45.9062 53.5621 45.9062 53.6493V59.5491H43.8054C43.7177 59.5491 43.646 59.5788 43.5896 59.6382C43.5333 59.6976 43.5051 59.7679 43.5051 59.8492V61.2466C43.5051 61.3342 43.5332 61.406 43.5896 61.4624C43.646 61.5188 43.7176 61.5467 43.8054 61.5467H45.9064V62.6535H43.8054C43.7177 62.6535 43.646 62.6817 43.5896 62.7382C43.5333 62.7942 43.5051 62.8663 43.5051 62.9536V64.1542C43.5051 64.2419 43.5332 64.3137 43.5896 64.37C43.646 64.4265 43.7177 64.4544 43.8054 64.4544ZM48.0728 55.3473H51.0743C51.737 55.3473 52.2716 55.541 52.6781 55.9287C53.0845 56.3164 53.2878 56.8231 53.2878 57.4481C53.2878 58.0735 53.0845 58.5803 52.6781 58.9675C52.2716 59.3555 51.737 59.5493 51.0743 59.5493H48.0728V55.3473Z" fill="white"/>
</g>
<defs>
<clipPath id="clip0">
<rect width="98.9" height="115.37" fill="white"/>
</clipPath>
<clipPath id="clip1">
<rect width="13.2063" height="13.2064" fill="white" transform="translate(42.9048 53.3492)"/>
</clipPath>
</defs>
</svg>
