<svg width="99" height="116" viewBox="0 0 99 116" fill="none" xmlns="http://www.w3.org/2000/svg">
<g clip-path="url(#clip0)">
<path d="M98.9 65.92C98.9 66.12 98.9 66.33 98.9 66.53V66.74C98.7692 75.8799 96.0885 84.8016 91.16 92.5C90.9 92.91 90.64 93.31 90.37 93.7C86.6499 99.1785 81.8681 103.855 76.3079 107.452C70.7477 111.048 64.5221 113.493 58 114.64C57.02 114.813 56.02 114.953 55 115.06C53.1541 115.27 51.2978 115.373 49.44 115.37C39.3395 115.361 29.4841 112.258 21.1993 106.481C12.9144 100.703 6.59764 92.5265 3.09841 83.0515C-0.400821 73.5764 -0.914636 63.2571 1.62607 53.4813C4.16678 43.7055 9.64015 34.9422 17.31 28.37C17.95 27.82 18.61 27.28 19.31 26.77C24.8115 22.5164 31.1554 19.4825 37.92 17.87C38.59 17.7 39.27 17.56 39.92 17.43C47.0865 16.0231 54.4756 16.2204 61.5568 18.0077C68.638 19.795 75.2356 23.1281 80.876 27.7675C86.5163 32.4069 91.0595 38.2377 94.1793 44.8411C97.299 51.4445 98.918 58.6567 98.92 65.96L98.9 65.92Z" fill="#31C3F2"/>
<g style="mix-blend-mode:multiply" opacity="0.3">
<path d="M82 65C73 65.37 75.79 75 75.51 80.62C75.17 86.85 71.1 99.2 62 95.27C61.1514 94.9694 60.4056 94.4338 59.8497 93.7256C59.2937 93.0174 58.9505 92.1658 58.86 91.27C58.7 89.27 60.38 87.04 59.86 85.27C59.03 82.19 54.22 82.54 52.07 83.61C51.1195 84.0073 50.2937 84.6536 49.6795 85.4807C49.0653 86.3078 48.6855 87.2852 48.58 88.31C48.51 90.91 49.66 93.08 49.04 95.72C46.85 105.08 34.04 105.14 26.04 102.72L25.53 102.56C28.7612 104.623 32.2383 106.272 35.88 107.47C58.18 114.78 81.77 103.94 88.55 83.25C89.5671 80.16 90.169 76.9486 90.34 73.7C90.4103 72.6189 90.2652 71.5347 89.9131 70.5102C89.561 69.4857 89.0088 68.5413 88.2888 67.732C87.5687 66.9226 86.695 66.2643 85.7185 65.7953C84.7419 65.3263 83.6819 65.056 82.6 65C82.3934 65 82.1934 65 82 65Z" fill="#9064E3"/>
</g>
<g style="mix-blend-mode:screen" opacity="0.2">
<path d="M30.73 44.25C26 49 19.8 50.56 17 47.71C14.2 44.86 15.7 38.71 20.46 33.94C25.22 29.17 31.39 27.63 34.24 30.48C37.09 33.33 35.49 39.5 30.73 44.25Z" fill="white"/>
</g>
<g style="mix-blend-mode:screen" opacity="0.2">
<path d="M12.51 63.25C15.8127 63.25 18.49 60.5727 18.49 57.27C18.49 53.9673 15.8127 51.29 12.51 51.29C9.20737 51.29 6.53003 53.9673 6.53003 57.27C6.53003 60.5727 9.20737 63.25 12.51 63.25Z" fill="white"/>
</g>
<g style="mix-blend-mode:multiply" opacity="0.3">
<path d="M59 21.33C59 23.68 54.73 26.38 49.46 26.38C44.19 26.38 39.92 23.68 39.92 21.33C39.92 18.98 44.19 17.85 49.46 17.85C54.73 17.85 59 19 59 21.33Z" fill="#9064E3"/>
</g>
<path d="M49.45 2.09C50.4614 2.09 51.4316 2.49109 52.1477 3.20531C52.8638 3.91954 53.2674 4.88861 53.27 5.9V8.77C53.2965 9.28742 53.2175 9.80483 53.0378 10.2907C52.858 10.7767 52.5813 11.2209 52.2244 11.5965C51.8675 11.9722 51.438 12.2712 50.9619 12.4756C50.4858 12.68 49.9731 12.7854 49.455 12.7854C48.9369 12.7854 48.4243 12.68 47.9482 12.4756C47.4721 12.2712 47.0425 11.9722 46.6857 11.5965C46.3288 11.2209 46.0521 10.7767 45.8723 10.2907C45.6926 9.80483 45.6135 9.28742 45.64 8.77V5.9C45.6427 4.89034 46.0449 3.92278 46.7589 3.20884C47.4728 2.4949 48.4404 2.09264 49.45 2.09ZM49.45 0C47.8853 0 46.3846 0.621605 45.2781 1.72807C44.1716 2.83453 43.55 4.33522 43.55 5.9V8.77C43.5173 9.5659 43.6458 10.3602 43.9277 11.1052C44.2097 11.8502 44.6394 12.5305 45.191 13.1052C45.7425 13.6799 46.4046 14.1372 47.1374 14.4496C47.8701 14.762 48.6585 14.9231 49.455 14.9231C50.2516 14.9231 51.04 14.762 51.7727 14.4496C52.5055 14.1372 53.1676 13.6799 53.7191 13.1052C54.2707 12.5305 54.7004 11.8502 54.9823 11.1052C55.2643 10.3602 55.3928 9.5659 55.36 8.77V5.9C55.3574 4.3343 54.7336 2.83364 53.6255 1.72746C52.5175 0.621284 51.0157 -2.24131e-06 49.45 0V0Z" fill="#999999"/>
<g style="mix-blend-mode:multiply" opacity="0.1">
<path d="M54.29 2.53C53.9305 3.1799 53.4483 3.75384 52.87 4.22C53.1302 4.742 53.2671 5.31676 53.27 5.9V8.77C53.2965 9.28742 53.2175 9.80483 53.0378 10.2907C52.858 10.7767 52.5813 11.2209 52.2244 11.5965C51.8675 11.9722 51.438 12.2712 50.9619 12.4756C50.4858 12.68 49.9731 12.7854 49.455 12.7854C48.9369 12.7854 48.4243 12.68 47.9482 12.4756C47.4721 12.2712 47.0425 11.9722 46.6857 11.5965C46.3288 11.2209 46.0521 10.7767 45.8723 10.2907C45.6926 9.80483 45.6135 9.28742 45.64 8.77V5.9C45.6393 5.5966 45.6762 5.29428 45.75 5C45.0798 4.72215 44.4611 4.33338 43.92 3.85C43.678 4.48915 43.5527 5.16656 43.55 5.85V8.77C43.5173 9.5659 43.6458 10.3602 43.9277 11.1052C44.2097 11.8502 44.6394 12.5305 45.191 13.1052C45.7425 13.6799 46.4046 14.1372 47.1374 14.4496C47.8701 14.762 48.6585 14.9231 49.455 14.9231C50.2516 14.9231 51.04 14.762 51.7727 14.4496C52.5055 14.1372 53.1676 13.6799 53.7191 13.1052C54.2707 12.5305 54.7004 11.8502 54.9823 11.1052C55.2643 10.3602 55.3928 9.5659 55.36 8.77V5.9C55.3595 4.69319 54.9858 3.51608 54.29 2.53Z" fill="#1A1A1A"/>
</g>
<g style="mix-blend-mode:multiply" opacity="0.1">
<path d="M53.2701 5.99999V8.76999C53.2966 9.28742 53.2175 9.80482 53.0378 10.2907C52.858 10.7767 52.5813 11.2209 52.2244 11.5965C51.8676 11.9721 51.438 12.2712 50.9619 12.4756C50.4858 12.68 49.9732 12.7854 49.4551 12.7854C48.937 12.7854 48.4243 12.68 47.9482 12.4756C47.4721 12.2712 47.0425 11.9721 46.6857 11.5965C46.3288 11.2209 46.0521 10.7767 45.8723 10.2907C45.6926 9.80482 45.6136 9.28742 45.6401 8.76999V6.15999C44.9281 6.11519 44.2269 5.96349 43.5601 5.70999C43.5551 5.77323 43.5551 5.83676 43.5601 5.89999V8.76999C43.5273 9.56589 43.6558 10.3602 43.9378 11.1052C44.2197 11.8502 44.6494 12.5305 45.201 13.1052C45.7525 13.6799 46.4146 14.1372 47.1474 14.4496C47.8801 14.762 48.6685 14.923 49.4651 14.923C50.2616 14.923 51.05 14.762 51.7827 14.4496C52.5155 14.1372 53.1776 13.6799 53.7291 13.1052C54.2807 12.5305 54.7104 11.8502 54.9924 11.1052C55.2743 10.3602 55.4028 9.56589 55.3701 8.76999V5.89999C55.3701 5.73999 55.3701 5.58999 55.3701 5.42999C54.7074 5.73773 53.9973 5.93048 53.2701 5.99999Z" fill="#1A1A1A"/>
</g>
<path d="M55.53 7.34H43.37C42.9075 7.34519 42.4654 7.53124 42.1383 7.85831C41.8112 8.18537 41.6252 8.62748 41.62 9.09V18.87C41.663 19.4476 41.8214 20.0108 42.0859 20.5261C42.3505 21.0414 42.7157 21.4984 43.16 21.87C45.0096 23.1454 47.2033 23.8285 49.45 23.8285C51.6967 23.8285 53.8904 23.1454 55.74 21.87C56.1856 21.4995 56.5517 21.0428 56.8163 20.5273C57.081 20.0117 57.2387 19.448 57.28 18.87V9.09C57.2748 8.62748 57.0888 8.18537 56.7617 7.85831C56.4346 7.53124 55.9925 7.34519 55.53 7.34Z" fill="#B3B3B3"/>
<g style="mix-blend-mode:multiply" opacity="0.1">
<path d="M54.53 16.56C53.1336 17.4085 51.5485 17.8974 49.9167 17.9829C48.285 18.0684 46.6575 17.7479 45.18 17.05C43.828 16.4858 42.6137 15.6365 41.62 14.56V18.87C41.6631 19.4486 41.8226 20.0126 42.089 20.5281C42.3553 21.0436 42.723 21.5 43.17 21.87C45.0181 23.1446 47.21 23.8272 49.455 23.8272C51.7 23.8272 53.8919 23.1446 55.74 21.87C56.1856 21.4995 56.5517 21.0428 56.8163 20.5273C57.081 20.0117 57.2387 19.448 57.28 18.87V13.76C56.5789 14.8831 55.6402 15.8388 54.53 16.56Z" fill="#1A1A1A"/>
</g>
<g style="mix-blend-mode:multiply" opacity="0.1">
<path d="M53.88 20.76C52.5755 21.6357 51.0606 22.1466 49.4922 22.2398C47.9238 22.333 46.359 22.0051 44.96 21.29C43.5743 20.5772 42.4169 19.4891 41.62 18.15V18.87C41.6631 19.4486 41.8226 20.0126 42.089 20.5281C42.3553 21.0436 42.723 21.5 43.17 21.87C45.0181 23.1446 47.21 23.8272 49.455 23.8272C51.7 23.8272 53.8919 23.1446 55.74 21.87C56.1856 21.4995 56.5517 21.0428 56.8163 20.5273C57.081 20.0117 57.2387 19.448 57.28 18.87V16.27C56.6189 18.0717 55.435 19.6351 53.88 20.76Z" fill="#1A1A1A"/>
</g>
<g style="mix-blend-mode:screen" opacity="0.2">
<path d="M48.64 10C48.64 11 47.35 11.88 45.75 11.88C44.15 11.88 42.86 11.04 42.86 10C42.86 8.96 44.15 8.12 45.75 8.12C47.35 8.12 48.64 9 48.64 10Z" fill="white"/>
</g>
<g style="mix-blend-mode:screen" opacity="0.2">
<path d="M47.76 1C47.97 1.31 47.65 1.88 47.05 2.29C46.45 2.7 45.81 2.78 45.6 2.48C45.39 2.18 45.71 1.6 46.31 1.19C46.91 0.780001 47.55 0.740001 47.76 1Z" fill="white"/>
</g>
</g>
<g clip-path="url(#clip1)">
<path d="M71.3959 82.0469C71.9622 82.0469 72.4213 81.5878 72.4213 81.0215V56.4121C72.4213 55.1882 71.9443 53.9363 71.0782 52.8869L63.4735 43.6729C63.0751 43.1902 62.6171 42.7833 62.1197 42.4593C62.1502 42.1459 62.1676 41.8294 62.1676 41.5099V30.0255C62.1676 29.4592 61.7085 29.0001 61.1422 29.0001C60.5759 29.0001 60.1168 29.4592 60.1168 30.0255C60.1168 30.0255 60.1147 41.6076 60.1139 41.6566C59.8222 41.6049 59.526 41.5783 59.2281 41.5783H45.9664C45.0327 41.5783 44.1175 41.8402 43.2982 42.3216C43.2628 42.3343 43.2276 42.3485 43.1932 42.3653L33.1975 47.2342C32.0901 47.7897 31.2046 48.7214 30.7038 49.8577C30.6983 49.8701 30.6931 49.8825 30.6882 49.8951L26.5555 60.3776C26.3478 60.9045 26.6065 61.5 27.1334 61.7078C27.2568 61.7564 27.384 61.7794 27.5092 61.7794C27.918 61.7794 28.3044 61.5332 28.4634 61.1299L32.588 50.6676C32.8983 49.9746 33.4406 49.4068 34.1063 49.0726L39.3875 46.5003L34.1162 52.8871C33.3269 53.8433 32.9097 55.0624 32.9097 56.4124V91.8225C32.9097 92.2349 32.946 92.6386 33.0117 93.0321L22.4458 88.3503C20.059 87.2928 18.9773 84.4836 20.0349 82.0883C20.0395 82.0779 20.0438 82.0674 20.0482 82.057L26.7314 65.4478C26.9428 64.9224 26.6884 64.3252 26.163 64.1137C25.6373 63.9024 25.0404 64.1569 24.8289 64.6822L18.1515 81.2759C16.6501 84.7007 18.201 88.7123 21.615 90.225L34.005 95.7151C34.0202 95.7218 34.0356 95.7267 34.0509 95.7326C35.3085 97.6975 37.4826 99 39.9508 99H65.2437C69.1345 99 72.4215 95.713 72.4215 91.8223V85.8066C72.4215 85.2404 71.9624 84.7813 71.3961 84.7813C70.8298 84.7813 70.3707 85.2404 70.3707 85.8066V91.8223C70.3707 94.6014 68.0228 96.9492 65.2437 96.9492H39.9508C37.1992 96.9492 34.9605 94.6493 34.9605 91.8223V56.4121C34.9605 55.5319 35.2085 54.785 35.6979 54.1923L43.3026 44.9783C44.0104 44.1208 44.9813 43.6289 45.9664 43.6289H59.2281C59.4213 43.6289 59.6138 43.6484 59.804 43.6854C59.1621 45.8744 57.572 47.7009 55.4249 48.6163C54.8634 47.6771 53.8369 47.0469 52.6655 47.0469C50.8939 47.0469 49.4526 48.4882 49.4526 50.2598C49.4526 52.0314 50.8939 53.4726 52.6655 53.4726C54.3038 53.4726 55.6587 52.2397 55.8535 50.6531C58.6151 49.6086 60.7033 47.3954 61.6337 44.6939C61.723 44.7838 61.8094 44.8782 61.8919 44.9783L69.4966 54.1925C70.0602 54.8752 70.3707 55.6636 70.3707 56.4122V81.0216C70.3706 81.5878 70.8297 82.0469 71.3959 82.0469ZM52.6655 51.4219C52.0247 51.4219 51.5034 50.9006 51.5034 50.2598C51.5034 49.619 52.0247 49.0976 52.6655 49.0976C53.3063 49.0976 53.8276 49.619 53.8276 50.2598C53.8276 50.9006 53.3063 51.4219 52.6655 51.4219Z" fill="white"/>
<path d="M43.7787 83.5508C44.0411 83.5508 44.3036 83.4507 44.5037 83.2504L62.0037 65.7504C62.4042 65.35 62.4042 64.7007 62.0037 64.3004C61.6033 63.8999 60.954 63.8999 60.5537 64.3004L43.0537 81.8004C42.3999 82.4097 42.9015 83.5818 43.7787 83.5508Z" fill="white"/>
<path d="M45.9662 72.75C48.4162 72.75 50.4096 70.7566 50.4096 68.3066C50.4096 65.8566 48.4162 63.8633 45.9662 63.8633H45.8295C43.3795 63.8633 41.3862 65.8566 41.3862 68.3066C41.3862 70.7566 43.3795 72.75 45.8295 72.75H45.9662ZM43.437 68.3066C43.437 66.9874 44.5103 65.9141 45.8295 65.9141H45.9662C47.2854 65.9141 48.3588 66.9874 48.3588 68.3066C48.3588 69.6258 47.2854 70.6992 45.9662 70.6992H45.8295C44.5103 70.6992 43.437 69.6258 43.437 68.3066Z" fill="white"/>
<path d="M59.228 83.5508H59.3647C61.8147 83.5508 63.808 81.5574 63.808 79.1074C63.808 76.6574 61.8147 74.6641 59.3647 74.6641H59.228C56.778 74.6641 54.7846 76.6574 54.7846 79.1074C54.7846 81.5574 56.778 83.5508 59.228 83.5508ZM59.228 76.7148H59.3647C60.6839 76.7148 61.7573 77.7882 61.7573 79.1074C61.7573 80.4266 60.6839 81.5 59.3647 81.5H59.228C57.9088 81.5 56.8354 80.4266 56.8354 79.1074C56.8354 77.7882 57.9088 76.7148 59.228 76.7148Z" fill="white"/>
</g>
<defs>
<clipPath id="clip0">
<rect width="98.9" height="115.37" fill="white"/>
</clipPath>
<clipPath id="clip1">
<rect width="58" height="70" fill="white" transform="translate(16 29)"/>
</clipPath>
</defs>
</svg>
