<svg width="102" height="50" viewBox="0 0 102 50" fill="none" xmlns="http://www.w3.org/2000/svg">
<path d="M16.9106 14.8868L19.7288 15.2376C22.6265 15.5982 24.588 14.2501 24.8967 11.7693C25.0944 10.1815 24.265 8.58687 23.0095 8.14845L23.0169 8.08891C24.143 7.78567 25.0132 6.94673 25.2034 5.41852C25.4924 3.09643 23.7998 1.63621 21.3785 1.33485L18.6396 0.993981L18.3383 3.4153L20.6802 3.70677C21.4741 3.80558 22.3773 4.15983 22.234 5.31095C22.1006 6.38268 21.4088 6.92136 19.8806 6.73117L17.9554 6.49157L17.6738 8.75411L20.0158 9.04558C21.147 9.18638 22.1867 9.73902 22.004 11.2077C21.878 12.2199 20.8885 12.8828 19.7374 12.7395L17.2169 12.4258L16.9106 14.8868ZM18.0442 0.919878L15.1466 0.559244L13.4175 14.4521L16.3152 14.8127L18.0442 0.919878ZM29.0683 16.3999L30.7974 2.50711L27.8998 2.14647L26.1707 16.0393L29.0683 16.3999ZM30.5456 9.38869L32.4112 9.62088C33.602 9.76909 34.6815 10.4879 34.4567 12.294C34.2863 13.6634 33.2993 14.3064 31.8505 14.1261L29.9849 13.8939L29.6637 16.474L31.7278 16.7309C35.3796 17.1854 36.8569 14.8701 37.136 12.6274C37.467 9.96796 36.3991 7.69869 33.0053 7.27631L30.842 7.00706L30.5456 9.38869ZM40.8375 17.8647L42.5666 3.97187L39.669 3.61124L37.9399 17.5041L40.8375 17.8647ZM47.8533 4.62985L44.9557 4.26921L43.2266 18.162L46.1242 18.5227L47.8533 4.62985ZM48.1276 7.28404L53.7443 7.98308L54.0654 5.40299L48.4487 4.70395L48.1276 7.28404ZM61.386 8.67214C62.7976 8.98892 64.5249 10.3325 64.105 13.7065C63.7172 16.8225 61.8796 17.9844 60.2349 17.9208L59.9014 20.6001C62.9727 20.8614 66.4943 19.1231 67.1217 14.082C67.806 8.58437 64.3442 6.44042 61.7194 5.99281L61.386 8.67214ZM61.124 5.91871C58.3505 5.69445 54.5706 7.07821 53.9037 12.4369C53.2936 17.3391 56.1875 19.9968 59.306 20.526L59.6395 17.8467C57.9921 17.4804 56.5425 15.8489 56.9204 12.8123C57.3329 9.4979 59.2847 8.55171 60.7906 8.59804L61.124 5.91871ZM73.9426 19.3648L71.6007 19.0733C72.2623 17.8053 72.6781 15.9223 72.9992 13.3422L73.3623 10.4247L75.0294 10.6322L75.3506 8.05209L70.7858 7.48397L70.1411 12.664C69.6125 16.9112 69.333 18.509 67.1748 18.5225L66.4338 24.4766L69.3314 24.8372L69.7513 21.4632L73.6215 21.9449L73.9426 19.3648ZM74.2169 22.019L77.8687 22.4735L77.4488 25.8475L80.3464 26.2081L81.0875 20.254L79.1822 20.0169L80.5901 8.70419L75.946 8.12619L75.6248 10.7063L77.3912 10.9261L76.3044 19.6588L74.538 19.4389L74.2169 22.019ZM87.6956 10.5156L81.7536 22.957L84.6115 23.3127L85.5482 21.2929L90.1725 21.8684L89.6453 19.4649L86.5889 19.0845L88.5909 14.6579L87.6956 10.5156ZM88.107 9.63972L91.2801 24.1427L94.2968 24.5181L91.1237 10.0152L88.107 9.63972ZM5.03304 37.5937L6.7621 23.7009L4.5591 23.4267C4.10817 24.4589 3.14632 25.7097 0.943321 25.4355L0.703722 27.3607L2.56933 27.5929C3.20443 27.6719 3.40043 27.7165 3.31891 28.3714L2.21478 37.243L5.03304 37.5937ZM13.1884 38.9715C16.0711 39.1287 18.8335 37.1749 19.4486 32.2331C20.0389 27.4897 18.0232 24.9009 15.0064 24.3642L14.7026 26.8054C16.1292 27.1643 16.9363 28.7763 16.546 31.9121C16.0866 35.6036 14.8269 36.4949 13.4972 36.4906L13.1884 38.9715ZM12.9018 36.4165C11.5497 36.1072 10.7426 34.4951 11.1378 31.3196C11.5182 28.2632 12.6361 26.7296 14.1072 26.7312L14.411 24.2901C11.5755 24.0783 8.79573 26.171 8.20044 30.9541C7.59774 35.7967 9.74743 38.4425 12.593 38.8974L12.9018 36.4165ZM30.1281 41.0798C33.0107 41.237 35.7732 39.2832 36.3882 34.3413C36.9786 29.5979 34.9629 27.0091 31.9461 26.4724L31.6422 28.9136C33.0688 29.2726 33.8759 30.8846 33.4856 34.0204C33.0262 37.7119 31.7665 38.6031 30.4368 38.5989L30.1281 41.0798ZM29.8414 38.5248C28.4893 38.2154 27.6822 36.6034 28.0774 33.4279C28.4578 30.3715 29.5758 28.8378 31.0468 28.8395L31.3506 26.3983C28.5151 26.1865 25.7354 28.2792 25.1401 33.0623C24.5374 37.905 26.6871 40.5507 29.5327 41.0057L29.8414 38.5248ZM42.5517 42.626C45.4344 42.7832 48.1968 40.8294 48.8119 35.8875C49.4023 31.1441 47.3865 28.5554 44.3697 28.0187L44.0659 30.4598C45.4925 30.8188 46.2996 32.4308 45.9093 35.5666C45.4499 39.2581 44.1902 40.1494 42.8605 40.1451L42.5517 42.626ZM42.2651 40.071C40.913 39.7616 40.1059 38.1496 40.5011 34.9741C40.8815 31.9177 41.9995 30.384 43.4705 30.3857L43.7743 27.9446C40.9388 27.7327 38.159 29.8255 37.5637 34.6086C36.961 39.4512 39.1107 42.0969 41.9563 42.5519L42.2651 40.071ZM54.9754 44.1722C57.8581 44.3294 60.6205 42.3756 61.2356 37.4338C61.8259 32.6904 59.8102 30.1016 56.7934 29.5649L56.4896 32.0061C57.9162 32.365 58.7233 33.977 58.333 37.1128C57.8736 40.8043 56.6138 41.6956 55.2842 41.6913L54.9754 44.1722ZM54.6888 41.6172C53.3366 41.3079 52.5295 39.6958 52.9248 36.5203C53.3052 33.4639 54.4231 31.9303 55.8942 31.932L56.198 29.4908C53.3625 29.279 50.5827 31.3717 49.9874 36.1548C49.3847 40.9974 51.5344 43.6432 54.38 44.0981L54.6888 41.6172ZM70.396 35.329L67.7365 34.998L66.1087 48.0771L68.7682 48.4081L70.396 35.329ZM70.6579 38.0824C71.0447 37.7275 71.5705 37.5511 72.1858 37.6277C73.4361 37.7833 74.2479 38.8719 73.996 40.8962C73.7415 42.9405 72.6405 43.6902 71.41 43.5371C70.7551 43.4556 70.3307 43.1408 70.075 42.7663L69.7712 45.2075C70.3072 45.5967 70.8804 45.8494 71.6544 45.9457C73.8772 46.2224 76.206 45.0006 76.6728 41.2496C77.0878 37.9153 75.6206 35.7777 73.0405 35.4566C72.068 35.3356 71.4206 35.517 70.9494 35.7405L70.6579 38.0824ZM79.923 46.6926C79.6876 47.2881 79.2783 47.338 78.802 47.2787L77.6112 47.1305L77.3197 49.4724L78.9273 49.6725C80.9318 49.922 81.4499 49.1601 81.9703 48.0559L86.9061 37.3838L84.2268 37.0504L79.923 46.6926ZM81.4112 41.6982L80.4162 36.5761L77.6971 36.2377L79.6792 45.574L81.4112 41.6982ZM90.5354 41.8462C90.9941 41.3994 91.5893 41.1511 92.3435 41.2449C93.7328 41.4178 94.4331 42.7546 94.2725 44.0446C94.112 45.3346 93.1252 46.3002 92.0535 46.328L91.767 48.6303C94.4834 48.8273 96.7051 46.8465 97.0163 44.3458C97.3695 41.5077 95.6543 39.4198 93.1536 39.1086C92.1414 38.9826 91.3774 39.1294 90.8442 39.3654L90.5354 41.8462ZM87.0797 41.5975C86.561 45.7654 88.3061 48.0988 91.1914 48.5586L91.478 46.2564C90.4607 46.0089 89.5499 45.2304 89.876 42.6106L90.1946 40.0504C90.6367 36.4978 94.9141 37.7557 96.9504 36.9409L96.2049 34.6715C94.9301 35.1981 92.1243 34.9093 89.9346 36.3096C88.5558 37.1861 87.4304 38.7793 87.0797 41.5975ZM98.2332 49.1932L101.012 49.539L101.37 46.6612L98.5914 46.3154L98.2332 49.1932Z" fill="white"/>
</svg>
