<svg width="269" height="99" viewBox="0 0 269 99" fill="none" xmlns="http://www.w3.org/2000/svg">
<path d="M15.8509 13.7848L10.5351 13.4896L11.1889 1.71573L4.77483 1.35954L3.06709 32.1122L9.48121 32.4683L10.2204 19.1569L15.5362 19.4521L15.8509 13.7848ZM16.8542 19.5252L22.2139 19.8229L21.4747 33.1344L27.8888 33.4906L29.5966 2.73793L23.1825 2.38175L22.5287 14.1556L17.1689 13.858L16.8542 19.5252ZM48.5346 8.94552C51.6807 9.4287 55.6737 12.1182 55.259 19.5867C54.8759 26.4841 51.0173 29.3105 47.3978 29.418L47.0684 35.3488C53.8486 35.461 61.317 31.1164 61.9367 19.9576C62.6124 7.7883 54.6923 3.60272 48.864 3.01466L48.5346 8.94552ZM47.546 2.94147C41.4248 2.86596 33.3364 6.47104 32.6777 18.3328C32.0752 29.184 38.8262 34.5827 45.7504 35.2757L46.0798 29.3448C42.409 28.7884 38.9822 25.4252 39.3555 18.7036C39.7629 11.3669 43.9047 8.99689 47.2167 8.87233L47.546 2.94147ZM72.7506 35.9818L78.989 36.3282C85.4031 36.6844 89.5058 33.4309 89.8108 27.9393C90.0059 24.4248 87.9459 21.0493 85.1245 20.2757L85.1318 20.1439C87.5578 19.3091 89.3419 17.337 89.5298 13.9542C89.8152 8.81416 85.8807 5.86347 80.521 5.56584L74.4583 5.22917L74.1607 10.5889L79.3447 10.8768C81.102 10.9744 83.1376 11.6162 82.9961 14.1643C82.8643 16.5366 81.4268 17.8229 78.044 17.6351L73.7826 17.3984L73.5045 22.4067L78.6885 22.6946C81.1926 22.8336 83.5577 23.8904 83.3771 27.1414C83.2527 29.3819 81.1806 30.9855 78.6325 30.844L73.0531 30.5342L72.7506 35.9818ZM73.1404 5.15598L66.7263 4.7998L65.0185 35.5524L71.4326 35.9086L73.1404 5.15598ZM99.6626 37.4763L101.37 6.72363L94.9562 6.36745L93.2485 37.1201L99.6626 37.4763ZM101.851 21.8656L105.981 22.0949C108.617 22.2413 111.094 23.6568 110.872 27.6547C110.704 30.686 108.634 32.2457 105.427 32.0676L101.298 31.8382L100.981 37.5494L105.55 37.8032C113.633 38.2521 116.528 32.9484 116.803 27.984C117.13 22.0971 114.445 17.2768 106.933 16.8596L102.144 16.5937L101.851 21.8656ZM125.714 38.923L127.422 8.17033L121.008 7.81415L119.3 38.5668L125.714 38.923ZM139.125 8.82019L132.711 8.464L131.003 39.2166L137.417 39.5728L139.125 8.82019ZM151.118 9.48621L149.41 40.2388L155.825 40.595L157.532 9.84239L151.118 9.48621ZM149.09 22.1973L149.676 11.6536L139.44 26.9496L138.857 37.4494L149.09 22.1973ZM138.429 0.717145C138.373 5.69369 140.687 6.87981 144.86 7.11157C149.166 7.35066 151.948 6.44754 152.443 1.49539L148.841 1.29534C148.499 3.47975 147.655 3.60913 145.107 3.46763C143.349 3.37005 142.127 3.16994 142.031 0.917194L138.429 0.717145ZM179.196 11.0454L172.782 10.6892L171.074 41.4418L177.488 41.798L179.196 11.0454ZM180.197 16.8298L192.629 17.5202L192.947 11.809L180.514 11.1186L180.197 16.8298ZM209.505 17.8845C212.651 18.3676 216.644 21.0572 216.23 28.5257C215.847 35.423 211.988 38.2494 208.369 38.3569L208.039 44.2878C214.819 44.3999 222.288 40.0553 222.907 28.8965C223.583 16.7272 215.663 12.5417 209.835 11.9536L209.505 17.8845ZM208.517 11.8804C202.396 11.8049 194.307 15.41 193.648 27.2717C193.046 38.123 199.797 43.5216 206.721 44.2146L207.051 38.2837C203.38 37.7273 199.953 34.3642 200.326 27.6425C200.734 20.3058 204.875 17.9358 208.187 17.8113L208.517 11.8804ZM238.672 39.4668L233.488 39.179C234.75 36.2965 235.379 32.1009 235.696 26.3897L236.055 19.9317L239.745 20.1366L240.063 14.4254L229.958 13.8643L229.321 25.3306C228.799 34.7322 228.426 38.2809 223.691 38.6349L222.959 51.8146L229.373 52.1708L229.788 44.7023L238.355 45.178L238.672 39.4668ZM239.673 45.2512L247.756 45.7001L247.342 53.1686L253.756 53.5248L254.488 40.3451L250.27 40.1109L251.661 15.0695L241.381 14.4986L241.063 20.2098L244.973 20.4269L243.9 39.7572L239.99 39.54L239.673 45.2512ZM258.209 36.9823L268.445 37.5507L268.743 32.191L258.507 31.6225L258.209 36.9823ZM7.19522 80.4154L12.8665 80.7303C18.6975 81.0541 22.4272 78.0963 22.7045 73.104C22.8819 69.909 21.0091 66.8404 18.4442 66.1371L18.4509 66.0173C20.6563 65.2584 22.2782 63.4656 22.449 60.3903C22.7085 55.7175 19.1317 53.0351 14.2592 52.7645L8.74771 52.4584L8.47713 57.3309L13.1899 57.5926C14.7874 57.6813 16.6379 58.2648 16.5093 60.5813C16.3895 62.7379 15.0827 63.9073 12.0074 63.7365L8.13337 63.5214L7.88053 68.0744L12.5933 68.3361C14.8698 68.4625 17.0198 69.4232 16.8557 72.3786C16.7426 74.4155 14.8589 75.8733 12.5424 75.7447L7.47023 75.463L7.19522 80.4154ZM7.54956 52.3919L1.71854 52.0681L0.16605 80.025L5.99707 80.3488L7.54956 52.3919ZM33.2131 53.817L27.3821 53.4932L25.8296 81.4502L31.6607 81.774L33.2131 53.817ZM33.3733 72.5748L37.3273 72.7943C44.1567 73.1736 47.4626 69.1908 47.7643 63.7591C48.0215 59.1263 45.5142 54.5001 38.1655 54.092L34.4113 53.8836L34.1429 58.7161L37.4578 58.9002C40.3733 59.0621 42.0863 60.6796 41.9333 63.4353C41.7314 67.0697 39.3529 68.0594 36.9566 67.9263L33.6417 67.7422L33.3733 72.5748ZM58.6165 60.4357L70.5581 61.0989L70.8464 55.9069L58.9048 55.2437L58.6165 60.4357ZM58.0021 71.4987L69.3047 72.1263L69.5864 67.0541L58.2838 66.4265L58.0021 71.4987ZM57.3523 83.2007L69.8131 83.8926L70.1014 78.7006L57.6406 78.0087L57.3523 83.2007ZM57.7067 55.1772L51.8756 54.8534L50.3231 82.8103L56.1542 83.1341L57.7067 55.1772ZM75.171 59.4721L73.8026 84.1142L79.3141 84.4202L79.8641 74.5155L75.171 59.4721ZM90.4724 83.3172L101.675 57.6188L96.163 57.3127L88.1603 75.8976L90.4724 83.3172ZM80.8666 56.4633L75.3551 56.1572L84.2665 84.6952L89.738 84.9991L80.8666 56.4633ZM95.1539 75.4847L94.6105 85.2697L100.122 85.5757L101.49 60.9337L95.1539 75.4847ZM115.375 71.5598C113.258 71.4423 111.647 70.151 111.815 67.1157C111.966 64.3999 113.755 63.2172 115.831 63.3325L120.424 63.5876L120.697 58.6751L115.944 58.4112C110.153 58.0896 106.304 61.0407 105.991 66.6721C105.736 71.265 107.722 73.7389 110.409 75.13L103.728 85.776L110.158 86.1331L116.269 76.3768L119.704 76.5676L119.967 71.8149L115.375 71.5598ZM120.343 86.6986L126.174 87.0224L127.726 59.0655L121.895 58.7417L120.343 86.6986ZM155.018 73.2405C153.598 73.5622 152.018 73.8751 150.46 73.7886C148.064 73.6556 146.322 73.2784 146.548 69.2047L147.052 60.1387L141.221 59.8149L140.715 68.9208C140.418 74.2726 141.9 78.6014 148.73 78.9807C150.607 79.0849 152.741 78.883 154.727 78.4724L155.018 73.2405ZM155.364 88.6434L161.195 88.9672L162.748 61.0103L156.917 60.6865L155.364 88.6434ZM177.353 73.8799L172.19 61.5346L165.56 61.1664L173.896 80.5785L177.353 73.8799ZM174.538 82.0163C173.455 84.1996 172.403 84.3816 168.29 84.1532L167.091 84.0866L166.803 89.2786L170.038 89.4583C175.669 89.771 177.6 88.9167 179.672 84.7852L190.761 62.5659L184.451 62.2155L174.538 82.0163ZM201.091 85.9747L196.379 85.713C197.526 83.0926 198.098 79.2784 198.386 74.0864L198.713 68.2155L202.067 68.4018L202.356 63.2098L193.17 62.6997L192.591 73.1236C192.116 81.6704 191.777 84.8966 187.472 85.2184L186.807 97.1999L192.638 97.5238L193.015 90.7342L200.803 91.1667L201.091 85.9747ZM202.001 91.2332L209.35 91.6413L208.973 98.4309L214.804 98.7547L215.469 86.7731L211.635 86.5602L212.899 63.7953L203.554 63.2763L203.266 68.4683L206.82 68.6657L205.844 86.2386L202.29 86.0412L202.001 91.2332ZM226.678 69.7684L238.619 70.4316L238.908 65.2396L226.966 64.5764L226.678 69.7684ZM226.064 80.8314L237.366 81.459L237.648 76.3868L226.345 75.7592L226.064 80.8314ZM225.414 92.5334L237.875 93.2253L238.163 88.0333L225.702 87.3414L225.414 92.5334ZM225.768 64.5099L219.937 64.1861L218.385 92.143L224.216 92.4668L225.768 64.5099ZM255.857 70.868C259.037 71.325 260.939 73.8744 261.496 76.1087L266.903 73.9652C265.292 69.7894 262.294 66.0575 256.157 65.4763L255.857 70.868ZM254.524 94.871C261.088 94.9951 264.795 90.9945 266.641 87.3313L261.274 84.4292C260.102 87.4889 257.793 89.4038 254.824 89.4793L254.524 94.871ZM253.626 89.4128C249.292 88.8116 247.242 84.6115 247.515 79.699C247.832 73.9878 250.847 70.9103 254.659 70.8015L254.959 65.4098C249.394 65.3411 242.041 68.6185 241.442 79.4019C240.992 87.5094 245.314 94.0791 253.326 94.8045L253.626 89.4128Z" fill="white"/>
</svg>
