<svg width="117" height="77" viewBox="0 0 117 77" fill="none" xmlns="http://www.w3.org/2000/svg">
<path d="M27.0656 9.7814C28.6361 10.1179 29.4976 11.4546 29.6991 12.5881L32.4696 11.7035C31.8086 9.56553 30.4407 7.60155 27.3991 7.10207L27.0656 9.7814ZM25.5811 21.7094C28.8508 21.9954 30.8368 20.1264 31.8827 18.362L29.3044 16.7311C28.6156 18.2174 27.398 19.0938 25.9145 19.03L25.5811 21.7094ZM25.3191 18.9559C23.1781 18.5081 22.2987 16.3429 22.6026 13.9017C22.9558 11.0636 24.565 9.63141 26.4702 9.7073L26.8037 7.02797C24.0301 6.80371 20.2503 8.18747 19.5834 13.5461C19.0819 17.575 21.0137 20.9999 24.9857 21.6353L25.3191 18.9559ZM45.6001 9.7301L42.4246 9.33489L37.6939 13.9862L37.3654 16.6259L40.9337 23.2573L44.2283 23.6674L39.838 15.3817L45.6001 9.7301ZM37.7407 8.75195L34.8431 8.39131L33.114 22.2841L36.0117 22.6448L37.7407 8.75195ZM50.3388 10.3199L47.4412 9.95924L45.7121 23.8521L48.6098 24.2127L50.3388 10.3199ZM55.757 10.9942L54.028 24.887L56.9256 25.2477L58.6547 11.3548L55.757 10.9942ZM54.4428 16.6956L55.0357 11.9323L49.919 18.551L49.3287 23.2945L54.4428 16.6956ZM65.5937 23.7064L63.2518 23.4149C63.9135 22.147 64.3292 20.2639 64.6503 17.6838L65.0134 14.7663L66.6806 14.9738L67.0017 12.3937L62.4369 11.8256L61.7922 17.0056C61.2636 21.2528 60.9841 22.8506 58.8259 22.8641L58.0849 28.8182L60.9826 29.1788L61.4025 25.8048L65.2726 26.2865L65.5937 23.7064ZM65.868 26.3606L69.5199 26.8151L69.0999 30.1891L71.9976 30.5497L72.7386 24.5957L70.8333 24.3585L72.2413 13.0458L67.5971 12.4678L67.276 15.0479L69.0424 15.2677L67.9555 24.0004L66.1891 23.7805L65.868 26.3606ZM86.4955 14.8199L83.32 14.4246L78.5893 19.076L78.2608 21.7156L81.8291 28.3471L85.1237 28.7571L80.7334 20.4715L86.4955 14.8199ZM78.6362 13.8417L75.7385 13.4811L74.0094 27.3739L76.9071 27.7345L78.6362 13.8417ZM91.7511 16.401L85.809 28.8424L88.667 29.1981L89.6036 27.1783L94.2279 27.7539L93.7007 25.3504L90.6443 24.97L92.6464 20.5433L91.7511 16.401ZM92.1624 15.5251L95.3355 30.0281L98.3523 30.4035L95.1791 15.9006L92.1624 15.5251ZM25.617 46.4845C24.8676 47.2347 23.8026 47.5082 22.5721 47.3551C20.2034 47.0603 19.1219 45.2075 19.3899 43.0542C19.6579 40.9008 21.2031 39.781 22.9602 39.7186L23.4312 35.9348C19.0015 35.6334 15.5001 38.4152 14.9794 42.5989C14.3936 47.3056 17.1752 50.3072 21.2359 50.8125C22.8971 51.0193 24.262 50.8455 25.1231 50.4529L25.617 46.4845ZM26.1263 49.9217C25.5903 54.2285 23.8449 54.6985 21.7071 54.8073L21.2285 58.6527C26.1696 58.8615 30.0743 55.3489 31.0008 47.9043C31.8661 40.9519 29.0685 36.8238 24.354 36.0496L23.8831 39.8334C25.5752 40.2939 27.0988 42.108 26.5398 46.5993L26.1263 49.9217ZM20.7842 54.6925C18.4461 54.1516 18.3068 52.5098 18.3181 51.9176L13.9923 51.7854C13.8946 56.0842 17.0448 58.132 20.3057 58.5378L20.7842 54.6925ZM47.5087 61.9234C51.9768 62.1671 56.2586 59.1388 57.212 51.4789C58.127 44.1266 55.0027 40.114 50.3266 39.2821L49.8557 43.0659C52.0669 43.6223 53.3179 46.1209 52.713 50.9814C52.0008 56.7033 50.0483 58.0847 47.9873 58.0781L47.5087 61.9234ZM47.0644 57.9632C44.9686 57.4837 43.7176 54.9851 44.3302 50.0631C44.9198 45.3256 46.6527 42.9484 48.9328 42.9511L49.4037 39.1672C45.0086 38.8389 40.7 42.0826 39.7773 49.4964C38.8432 57.0025 42.1752 61.1034 46.5859 61.8086L47.0644 57.9632ZM66.7654 64.3201C71.2336 64.5638 75.5154 61.5354 76.4687 53.8755C77.3837 46.5232 74.2594 42.5106 69.5833 41.6787L69.1124 45.4626C71.3236 46.0189 72.5746 48.5175 71.9697 53.378C71.2576 59.0999 69.305 60.4813 67.244 60.4747L66.7654 64.3201ZM66.3211 60.3599C64.2253 59.8804 62.9743 57.3817 63.5869 52.4597C64.1765 47.7223 65.9094 45.3451 68.1895 45.3477L68.6604 41.5639C64.2654 41.2356 59.9568 44.4793 59.034 51.8931C58.0999 59.3992 61.4319 63.5001 65.8426 64.2052L66.3211 60.3599ZM86.0222 66.7167C90.4903 66.9604 94.7721 63.9321 95.7254 56.2721C96.6404 48.9199 93.5161 44.9073 88.84 44.0754L88.3691 47.8592C90.5803 48.4156 91.8313 50.9142 91.2264 55.7747C90.5143 61.4965 88.5617 62.878 86.5007 62.8714L86.0222 66.7167ZM85.5779 62.7565C83.482 62.277 82.231 59.7784 82.8436 54.8563C83.4332 50.1189 85.1661 47.7417 87.4462 47.7443L87.9172 43.9605C83.5221 43.6322 79.2135 46.8759 78.2908 54.2897C77.3566 61.7958 80.6886 65.8967 85.0993 66.6019L85.5779 62.7565Z" fill="white"/>
<path d="M103.561 54.2128L103.464 54.9908L106.465 55.3643L106.321 56.5174L103.321 56.1439L103.165 57.3942L100.9 57.1124L101.056 55.8621L99.7084 55.6943L99.852 54.5412L101.2 54.7089L102.111 47.3874L106.32 47.9113C107.645 48.0762 108.643 48.4826 109.315 49.1305C109.996 49.7796 110.269 50.6413 110.136 51.7157C110.003 52.7808 109.527 53.5445 108.708 54.0069C107.898 54.4704 106.83 54.6197 105.506 54.4549L103.561 54.2128ZM107.856 51.446C107.914 50.9737 107.788 50.5911 107.476 50.2984C107.174 50.0068 106.708 49.8219 106.078 49.7435L104.147 49.5031L103.781 52.4484L105.712 52.6887C106.341 52.7671 106.839 52.702 107.203 52.4935C107.578 52.2768 107.796 51.9276 107.856 51.446Z" fill="white"/>
</svg>
