<svg width="273" height="94" viewBox="0 0 273 94" fill="none" xmlns="http://www.w3.org/2000/svg">
<path d="M18.0955 64.2856C27.6356 62.808 32.3127 54.6116 31.1573 44.9363C29.6205 32.0677 20.5655 28.7017 13.9064 29.2069L14.6748 35.6412C18.4799 35.5251 21.7536 37.8413 23.2283 42.4993L11.4083 43.9108L12.1312 49.9638L24.0465 48.5409C23.8303 53.2075 21.6721 56.9941 17.3271 57.8514L18.0955 64.2856ZM15.8973 58.0221C12.3362 58.1573 9.42453 56.0396 7.78904 52.4643L1.58174 56.3478C4.07087 60.5946 8.81504 65.1039 16.6657 64.4564L15.8973 58.0221ZM12.4766 29.3776C5.17086 30.5401 1.86451 35.2373 0.252644 40.3606L6.89114 42.5166C7.38834 39.7985 9.47187 36.6009 13.2449 35.8119L12.4766 29.3776ZM49.1022 32.1583L57.014 31.2135L56.274 25.0175L48.3623 25.9623L49.1022 32.1583ZM39.2839 33.3308L38.544 27.1348L30.6322 28.0796L31.3722 34.2756L39.2839 33.3308ZM39.9739 26.964L43.9581 60.327L50.9166 59.496L46.9324 26.1331L39.9739 26.964ZM74.705 28.4724C78.1765 28.3962 82.9754 30.5302 83.9429 38.6326C84.8365 46.1155 81.2257 49.8822 77.3573 50.6826L78.1257 57.1168C85.4314 55.9544 92.6332 49.8735 91.1875 37.7675C89.6109 24.5653 80.3097 21.5671 73.9366 22.0381L74.705 28.4724ZM72.5068 22.2088C65.916 23.286 57.9083 28.6896 59.445 41.5582C60.8509 53.3305 69.1255 57.8533 76.6959 57.2876L75.9275 50.8533C71.8784 50.9501 67.5604 47.9852 66.6895 40.693C65.739 32.7336 69.7404 29.4036 73.2752 28.6431L72.5068 22.2088ZM120.132 23.0475C123.985 22.9258 126.763 25.5428 127.886 28.0674L133.83 24.4088C131.057 19.8091 126.738 16.0226 119.364 16.6132L120.132 23.0475ZM123.553 51.6919C131.335 50.4725 134.884 44.9729 136.303 40.2594L129.356 37.9468C128.608 41.8067 126.277 44.5505 122.785 45.2576L123.553 51.6919ZM121.355 45.4284C116.108 45.6198 112.811 41.0828 112.111 35.2205C111.297 28.4049 114.22 24.1402 118.702 23.2182L117.934 16.7839C111.343 17.861 103.335 23.2647 104.872 36.1333C106.028 45.8085 112.503 52.6731 122.123 51.8627L121.355 45.4284ZM153.039 19.1177C156.51 19.0416 161.309 21.1756 162.277 29.278C163.171 36.7608 159.56 40.5276 155.691 41.3279L156.46 47.7622C163.765 46.5997 170.967 40.5188 169.522 28.4129C167.945 15.2107 158.644 12.2124 152.271 12.6834L153.039 19.1177ZM150.841 12.8542C144.25 13.9313 136.242 19.335 137.779 32.2035C139.185 43.9759 147.46 48.4986 155.03 47.933L154.262 41.4987C150.212 41.5955 145.894 38.6306 145.024 31.3384C144.073 23.379 148.074 20.049 151.609 19.2885L150.841 12.8542ZM172.272 15.1774L175.783 44.5844L182.361 43.799L180.949 31.979L172.272 15.1774ZM195.318 40.1729L203.208 7.47066L196.631 8.25611L191.041 31.8856L195.318 40.1729ZM178.376 10.436L171.799 11.2215L188.271 43.0932L194.8 42.3135L178.376 10.436ZM199.22 29.942L200.615 41.6191L207.192 40.8336L203.68 11.4265L199.22 29.942ZM221.314 39.1472L228.082 38.3389C235.041 37.508 238.833 33.2361 238.121 27.2785C237.666 23.4656 234.814 20.2289 231.636 19.9316L231.619 19.7886C234.068 18.4327 235.611 15.9764 235.173 12.3064C234.507 6.73005 229.722 4.30438 223.907 4.99877L217.33 5.78422L218.024 11.5989L223.648 10.9273C225.555 10.6996 227.863 11.004 228.193 13.7684C228.501 16.3421 227.2 17.9961 223.53 18.4343L218.907 18.9864L219.555 24.4198L225.179 23.7482C227.896 23.4238 230.637 24.1116 231.058 27.6385C231.349 30.0693 229.426 32.1842 226.661 32.5143L220.608 33.2372L221.314 39.1472ZM215.9 5.95497L208.942 6.78596L212.926 40.1489L219.884 39.3179L215.9 5.95497ZM255.39 6.89501C258.861 6.81884 263.66 8.95285 264.628 17.0553C265.521 24.5381 261.911 28.3049 258.042 29.1052L258.811 35.5395C266.116 34.377 273.318 28.2961 271.872 16.1901C270.296 2.98795 260.995 -0.0103009 254.622 0.460726L255.39 6.89501ZM253.192 0.631478C246.601 1.7086 238.593 7.11226 240.13 19.9808C241.536 31.7532 249.81 36.2759 257.381 35.7102L256.612 29.276C252.563 29.3728 248.245 26.4079 247.374 19.1157C246.424 11.1562 250.425 7.82627 253.96 7.06576L253.192 0.631478ZM12.6128 79.4991L16.5687 79.0267L16.1987 75.9287L12.2428 76.4011L12.6128 79.4991ZM7.70366 80.0853L7.3337 76.9874L3.37781 77.4598L3.74777 80.5578L7.70366 80.0853ZM8.04862 76.902L10.0407 93.5835L13.52 93.168L11.5279 76.4865L8.04862 76.902ZM23.5795 91.9667L21.5874 75.2852L18.1081 75.7007L20.1002 92.3821L23.5795 91.9667ZM23.2785 83.3737L25.5186 83.1062C26.9484 82.9355 28.4131 83.4615 28.6721 85.6301C28.8684 87.2744 27.9042 88.308 26.1646 88.5158L23.9245 88.7833L24.2944 91.8813L26.7728 91.5853C31.1577 91.0617 32.2108 87.9388 31.8892 85.2459C31.5079 82.0526 29.6096 79.7172 25.5345 80.2038L22.937 80.514L23.2785 83.3737ZM37.7111 90.2791L35.719 73.5976L32.2397 74.0131L34.2318 90.6946L37.7111 90.2791ZM51.9212 74.4907C53.6569 74.4526 56.0563 75.5196 56.5401 79.5708C56.9869 83.3122 55.1815 85.1956 53.2473 85.5958L53.6315 88.8129C57.2844 88.2317 60.8853 85.1912 60.1624 79.1382C59.3741 72.5371 54.7235 71.038 51.537 71.2735L51.9212 74.4907ZM50.8221 71.3589C47.5267 71.8975 43.5228 74.5993 44.2912 81.0336C44.9941 86.9198 49.1314 89.1811 52.9166 88.8983L52.5324 85.6812C50.5079 85.7296 48.3489 84.2471 47.9134 80.601C47.4382 76.6213 49.4389 74.9563 51.2062 74.5761L50.8221 71.3589ZM77.9016 85.4795L82.2387 84.9616L82.7225 89.0128L86.2018 88.5973L85.3481 81.4481L83.0841 81.7185L81.462 68.135L77.9827 68.5505L79.6049 82.1339L77.5316 82.3815L77.9016 85.4795ZM76.8167 82.4669L74.7434 82.7145L73.1213 69.131L69.642 69.5465L71.2641 83.13L69.1909 83.3776L69.5608 86.4756L77.1866 85.5649L76.8167 82.4669ZM68.4759 83.463L66.4027 83.7106L64.7805 70.1271L61.3012 70.5426L63.2933 87.224L68.8459 86.561L68.4759 83.463ZM91.9064 74.163L87.5705 67.4055L83.6146 67.8779L90.5609 78.481L91.9064 74.163ZM91.0894 79.2639C90.6769 80.6667 90.0743 80.8837 87.6198 81.1768L86.9049 81.2622L87.2748 84.3602L89.2051 84.1297C92.5652 83.7284 93.617 83.0227 94.4115 80.3657L98.6517 66.0822L94.8865 66.5318L91.0894 79.2639ZM108.82 68.0101L112.776 67.5377L112.406 64.4397L108.45 64.9121L108.82 68.0101ZM103.911 68.5963L103.541 65.4983L99.5849 65.9707L99.9548 69.0687L103.911 68.5963ZM104.256 65.413L106.248 82.0944L109.727 81.6789L107.735 64.9975L104.256 65.413ZM117.794 63.7962L114.315 64.2116L116.307 80.8931L119.787 80.4776L117.794 63.7962ZM124.3 63.0192L126.292 79.7007L129.772 79.2852L127.78 62.6037L124.3 63.0192ZM124.413 70.0393L123.73 64.32L119.679 73.5052L120.359 79.2007L124.413 70.0393ZM137.804 75.1839L135.73 75.4315L134.108 61.848L130.629 62.2635L132.621 78.9449L138.174 78.2818L137.804 75.1839ZM147.229 77.2004L152.782 76.5373L150.79 59.8559L147.31 60.2714L148.933 73.8548L146.859 74.1024L147.229 77.2004ZM146.144 74.1878L144.071 74.4354L142.449 60.8519L138.97 61.2674L140.592 74.8509L138.519 75.0985L138.889 78.1965L146.514 77.2858L146.144 74.1878ZM159.116 75.7809L157.124 59.0994L153.645 59.5149L155.637 76.1963L159.116 75.7809ZM158.815 67.1879L161.056 66.9204C162.485 66.7497 163.95 67.2757 164.209 69.4443C164.405 71.0886 163.441 72.1222 161.702 72.33L159.461 72.5975L159.831 75.6955L162.31 75.3995C166.695 74.8759 167.748 71.753 167.426 69.0601C167.045 65.8668 165.147 63.5314 161.071 64.018L158.474 64.3282L158.815 67.1879ZM180.808 62.7488L177.924 63.0931L177.162 56.7065L173.682 57.122L175.675 73.8035L179.154 73.388L178.292 66.1673L181.175 65.823L180.808 62.7488ZM181.89 65.7376L184.797 65.3904L185.66 72.6111L189.139 72.1956L187.147 55.5141L183.667 55.9296L184.43 62.3162L181.523 62.6634L181.89 65.7376ZM194.131 55.7919L190.797 71.9976L194.228 71.5878L194.737 68.965L200.29 68.3019L198.982 65.6542L195.312 66.0925L196.368 60.3589L194.131 55.7919ZM194.357 54.653L202.235 70.6316L205.858 70.199L197.979 54.2205L194.357 54.653ZM218.876 54.553C220.802 54.4922 222.191 55.8007 222.753 57.063L225.725 55.2337C224.338 52.9339 222.178 51.0406 218.491 51.3359L218.876 54.553ZM220.586 68.8753C224.477 68.2656 226.251 65.5157 226.961 63.159L223.487 62.0027C223.114 63.9327 221.948 65.3045 220.202 65.6581L220.586 68.8753ZM219.487 65.7435C216.864 65.8392 215.215 63.5707 214.865 60.6395C214.458 57.2317 215.919 55.0994 218.161 54.6384L217.776 51.4213C214.481 51.9598 210.477 54.6616 211.246 61.0959C211.823 65.9336 215.061 69.3658 219.871 68.9606L219.487 65.7435ZM232.098 53.2882L239.224 52.4373L238.854 49.3393L231.728 50.1902L232.098 53.2882ZM232.887 59.8893L239.631 59.0839L239.269 56.0574L232.525 56.8628L232.887 59.8893ZM233.72 66.8717L241.156 65.9838L240.786 62.8858L233.351 63.7737L233.72 66.8717ZM231.013 50.2756L227.534 50.6911L229.526 67.3725L233.006 66.957L231.013 50.2756ZM247.015 65.284L245.023 48.6025L241.544 49.018L243.536 65.6995L247.015 65.284ZM247.73 65.1986L250.209 64.9026C254.594 64.379 255.647 61.2561 255.325 58.5632C254.944 55.3699 253.091 53.4158 249.016 53.9025L246.418 54.2127L246.754 57.0247L248.994 56.7572C250.424 56.5864 251.849 56.7788 252.108 58.9474C252.304 60.5917 251.34 61.6254 249.6 61.8331L247.36 62.1006L247.73 65.1986ZM245.738 48.5171L246.108 51.6151L252.9 50.8041L252.53 47.7061L245.738 48.5171ZM260.723 49.8698L267.848 49.0189L267.478 45.9209L260.353 46.7718L260.723 49.8698ZM261.511 56.4709L268.255 55.6655L267.894 52.639L261.15 53.4444L261.511 56.4709ZM262.345 63.4533L269.78 62.5654L269.41 59.4674L261.975 60.3553L262.345 63.4533ZM259.638 46.8572L256.159 47.2727L258.151 63.9542L261.63 63.5387L259.638 46.8572Z" fill="white"/>
</svg>
